<svg width="281" height="66" viewBox="0 0 281 66" fill="none" xmlns="http://www.w3.org/2000/svg">
<rect width="65.8669" height="65.8669" rx="7.04463" fill="#006150"/>
<path fill-rule="evenodd" clip-rule="evenodd" d="M24.2193 20.1915C24.4805 19.3148 24.6208 18.3861 24.6208 17.4246C24.6208 12.082 20.2898 7.75098 14.9472 7.75098C9.60462 7.75098 5.27361 12.082 5.27361 17.4246C5.27361 22.7671 9.60462 27.0982 14.9472 27.0982C16.7893 27.0982 18.5111 26.5833 19.9767 25.6896C21.9823 26.9525 23.7617 28.319 25.3281 29.7415L26.2092 30.5417L25.6449 31.5896C22.4266 37.565 21.1526 44.4086 22.0862 49.6419C22.5507 52.246 23.5425 54.3566 25.0052 55.8025C26.4409 57.2217 28.4381 58.1102 31.1673 58.1102C34.4384 58.1102 36.7188 57.1044 38.2572 55.5581C39.8177 53.9896 40.7664 51.7113 41.0561 48.9132C41.6392 43.2808 39.4924 35.9602 35.1245 29.7849L34.4032 28.7651L35.263 27.8588C37.4673 25.5353 40.2489 23.8381 43.5183 23.8381C46.8592 23.8381 49.5365 25.4022 50.615 28.0844C50.8519 28.6737 51.0018 29.2927 51.0662 29.9319C48.3807 30.9326 46.4679 33.5201 46.4679 36.5544C46.4679 40.4563 49.631 43.6194 53.5329 43.6194C57.4348 43.6194 60.5979 40.4563 60.5979 36.5544C60.5979 34.5186 59.7368 32.6839 58.359 31.3947C58.5458 29.5397 58.3689 27.7462 57.8227 26.1345C56.4186 21.9914 52.417 18.6202 44.7453 18.6202C39.6534 18.6202 35.2609 20.6253 31.695 23.7948L30.7072 24.673L29.6995 23.8178C28.0188 22.3914 26.1859 21.1616 24.2193 20.1915ZM34.7954 47.2379C34.7941 44.7352 33.9019 41.5065 32.0621 38.1592L30.3936 35.1235L29.2866 38.4059C28.2258 41.5514 27.6418 44.7055 27.6772 47.1462C27.6947 48.3478 27.8631 49.5242 28.3152 50.4563C28.7988 51.4537 29.7095 52.3197 31.0855 52.3197C32.3848 52.3197 33.397 51.6365 34.0091 50.6205C34.5777 49.6766 34.796 48.4772 34.7954 47.2379Z" fill="white"/>
<path d="M280.989 49.0926C280.989 56.9847 273.649 61.3254 264.889 61.3254C255.181 61.3254 247.684 56.7479 247.526 48.3034H257.391C257.391 51.697 260.548 53.7489 264.336 53.7489C268.361 53.7489 270.65 52.0127 270.65 48.9347C270.65 39.8588 248.315 48.0666 248.315 31.8089C248.315 24.1535 255.576 20.2864 263.784 20.2864C273.807 20.2864 280.199 25.1006 280.436 32.2035H270.571C270.492 29.5202 268.598 27.8628 264.257 27.8628C260.943 27.8628 258.812 29.2045 258.812 31.651C258.812 39.7799 280.989 31.651 280.989 49.0926Z" fill="#006150"/>
<path d="M230.624 28.2574C219.496 28.2574 213.577 52.8019 218.628 52.8019C223.363 52.8019 220.838 36.4652 203.791 27.9417L210.657 21.0756C230.387 28.7309 237.806 61.3254 218.707 61.3254C199.45 61.3254 208.29 20.2864 231.808 20.2864C247.592 20.2864 249.881 34.4133 242.305 43.8838L234.491 38.5172C238.437 33.3084 236.149 28.2574 230.624 28.2574Z" fill="#006150"/>
<path d="M157.794 45.0672C157.794 37.0961 162.766 31.8873 171.29 30.1511V29.7565C165.449 27.9413 161.425 24.1531 161.425 17.9183C161.425 9.86835 168.291 4.50171 180.129 4.50171C192.046 4.50171 198.991 9.86835 198.991 17.8394C198.991 24.0741 194.966 28.0991 189.047 29.8354V30.23C197.57 32.0452 202.621 37.1751 202.621 45.1461C202.621 54.7745 194.492 61.3249 180.129 61.3249C165.765 61.3249 157.794 54.7745 157.794 45.0672ZM172.237 19.3389C172.237 23.4428 175.078 26.0472 180.129 26.0472C185.338 26.0472 188.179 23.4428 188.179 19.3389C188.179 15.4717 185.338 12.8673 180.129 12.8673C175.078 12.8673 172.237 15.4717 172.237 19.3389ZM168.606 43.5677C168.606 49.25 172.552 52.9593 180.129 52.9593C187.784 52.9593 191.809 49.25 191.809 43.5677C191.809 38.0432 187.784 34.3339 180.129 34.3339C172.552 34.3339 168.606 38.0432 168.606 43.5677Z" fill="#006150"/>
<path d="M141.215 28.2574C130.087 28.2574 124.168 52.8019 129.219 52.8019C133.955 52.8019 131.429 36.4652 114.382 27.9417L121.248 21.0756C140.979 28.7309 148.397 61.3254 129.298 61.3254C110.042 61.3254 118.881 20.2864 142.399 20.2864C158.183 20.2864 160.472 34.4133 152.896 43.8838L145.082 38.5172C149.029 33.3084 146.74 28.2574 141.215 28.2574Z" fill="#006150"/>
<path d="M75.7505 40.8059C75.7505 28.0996 82.9323 20.2864 95.7965 20.2864C106.766 20.2864 113.238 25.9687 114.264 34.9657H103.452C102.899 31.4932 100.611 28.4942 95.5597 28.4942C89.4038 28.4942 86.4838 33.5451 86.4838 40.7269C86.4838 47.9877 89.4038 53.0386 95.5597 53.0386C100.611 53.0386 102.899 50.0396 103.452 46.5671H114.264C113.238 55.5641 106.766 61.2464 95.7965 61.2464C82.9323 61.2464 75.7505 53.4332 75.7505 40.8059Z" fill="#006150"/>
</svg>
