<svg width="1000" height="1000" viewBox="0 0 1000 1000" fill="none" xmlns="http://www.w3.org/2000/svg">
<rect x="4.98657" y="0.00856805" width="394" height="394" rx="42" transform="matrix(0.83205 -0.5547 0.830139 0.557556 169.385 704.57)" fill="white" stroke="#2563EB" stroke-width="6"/>
<g clip-path="url(#clip0_1200_1301)">
<path d="M492.275 663.945C505.552 672.863 505.528 687.284 492.22 696.155C478.912 705.027 457.361 704.99 444.084 696.073C430.807 687.155 430.832 672.734 444.139 663.862C457.447 654.991 478.998 655.028 492.275 663.945Z" fill="#DBEAFE"/>
<path d="M504.24 704.229C481.781 719.202 479.606 740.323 493.774 758.343C498.426 764.26 510.211 764.594 517.281 759.881L587.361 713.161C594.43 708.448 593.975 700.561 585.149 697.426C558.272 687.879 526.7 689.255 504.24 704.229Z" fill="#DBEAFE"/>
<path d="M492.275 663.945C505.552 672.863 505.528 687.284 492.22 696.155C478.912 705.027 457.361 704.99 444.084 696.073C430.807 687.155 430.832 672.734 444.139 663.862C457.447 654.991 478.998 655.028 492.275 663.945Z" stroke="#1D4ED8" stroke-width="7.23983" stroke-linejoin="round"/>
<path d="M504.24 704.229C481.781 719.202 479.606 740.323 493.774 758.343C498.426 764.26 510.211 764.594 517.281 759.881L587.361 713.161C594.43 708.448 593.975 700.561 585.149 697.426C558.272 687.879 526.7 689.255 504.24 704.229Z" stroke="#1D4ED8" stroke-width="7.23983" stroke-linejoin="round"/>
</g>
<g clip-path="url(#clip1_1200_1301)">
<path d="M387.928 670.638L340.741 702.096L387.82 733.716M453.99 626.597L501.177 595.139L548.256 626.759M614.166 671.027L661.244 702.647L614.057 734.105M547.996 778.146L500.809 809.604L453.73 777.984" stroke="#1D4ED8" stroke-width="6" stroke-linecap="round" stroke-linejoin="round"/>
</g>
<rect x="4.98657" y="0.00856805" width="394" height="394" rx="42" transform="matrix(0.83205 -0.5547 0.830139 0.557556 169.385 708.57)" fill="white" stroke="#2563EB" stroke-width="6"/>
<g clip-path="url(#clip2_1200_1301)">
<path d="M492.275 667.945C505.552 676.863 505.528 691.284 492.22 700.155C478.912 709.027 457.361 708.99 444.084 700.073C430.807 691.155 430.832 676.734 444.139 667.862C457.447 658.991 478.998 659.028 492.275 667.945Z" fill="#DBEAFE"/>
<path d="M504.24 708.229C481.781 723.202 479.606 744.323 493.774 762.343C498.426 768.26 510.211 768.594 517.281 763.881L587.361 717.161C594.43 712.448 593.975 704.561 585.149 701.426C558.272 691.879 526.7 693.255 504.24 708.229Z" fill="#DBEAFE"/>
<path d="M492.275 667.945C505.552 676.863 505.528 691.284 492.22 700.155C478.912 709.027 457.361 708.99 444.084 700.073C430.807 691.155 430.832 676.734 444.139 667.862C457.447 658.991 478.998 659.028 492.275 667.945Z" stroke="#1D4ED8" stroke-width="7.23983" stroke-linejoin="round"/>
<path d="M504.24 708.229C481.781 723.202 479.606 744.323 493.774 762.343C498.426 768.26 510.211 768.594 517.281 763.881L587.361 717.161C594.43 712.448 593.975 704.561 585.149 701.426C558.272 691.879 526.7 693.255 504.24 708.229Z" stroke="#1D4ED8" stroke-width="7.23983" stroke-linejoin="round"/>
</g>
<g clip-path="url(#clip3_1200_1301)">
<path d="M387.928 674.638L340.741 706.096L387.82 737.716M453.99 630.597L501.177 599.139L548.256 630.759M614.166 675.027L661.244 706.647L614.057 738.105M547.996 782.146L500.809 813.604L453.73 781.984" stroke="#1D4ED8" stroke-width="6" stroke-linecap="round" stroke-linejoin="round"/>
</g>
<rect x="4.98657" y="0.00856805" width="394" height="394" rx="42" transform="matrix(0.83205 -0.5547 0.830139 0.557556 169.385 704.57)" fill="white" stroke="#2563EB" stroke-width="6"/>
<g clip-path="url(#clip4_1200_1301)">
<path d="M492.275 663.945C505.552 672.863 505.528 687.284 492.22 696.155C478.912 705.027 457.361 704.99 444.084 696.073C430.807 687.155 430.832 672.734 444.139 663.862C457.447 654.991 478.998 655.028 492.275 663.945Z" fill="#DBEAFE"/>
<path d="M504.24 704.229C481.781 719.202 479.606 740.323 493.774 758.343C498.426 764.26 510.211 764.594 517.281 759.881L587.361 713.161C594.43 708.448 593.975 700.561 585.149 697.426C558.272 687.879 526.7 689.255 504.24 704.229Z" fill="#DBEAFE"/>
<path d="M492.275 663.945C505.552 672.863 505.528 687.284 492.22 696.155C478.912 705.027 457.361 704.99 444.084 696.073C430.807 687.155 430.832 672.734 444.139 663.862C457.447 654.991 478.998 655.028 492.275 663.945Z" stroke="#1D4ED8" stroke-width="7.23983" stroke-linejoin="round"/>
<path d="M504.24 704.229C481.781 719.202 479.606 740.323 493.774 758.343C498.426 764.26 510.211 764.594 517.281 759.881L587.361 713.161C594.43 708.448 593.975 700.561 585.149 697.426C558.272 687.879 526.7 689.255 504.24 704.229Z" stroke="#1D4ED8" stroke-width="7.23983" stroke-linejoin="round"/>
</g>
<g clip-path="url(#clip5_1200_1301)">
<path d="M387.928 670.638L340.741 702.096L387.82 733.716M453.99 626.597L501.177 595.139L548.256 626.759M614.166 671.027L661.244 702.647L614.057 734.105M547.996 778.146L500.809 809.604L453.73 777.984" stroke="#1D4ED8" stroke-width="6" stroke-linecap="round" stroke-linejoin="round"/>
</g>
<rect x="4.98657" y="0.00856805" width="394" height="394" rx="42" transform="matrix(0.83205 -0.5547 0.830139 0.557556 169.385 698.57)" fill="white" stroke="#2563EB" stroke-width="6"/>
<g clip-path="url(#clip6_1200_1301)">
<path d="M492.275 657.945C505.552 666.863 505.528 681.284 492.22 690.155C478.912 699.027 457.361 698.99 444.084 690.073C430.807 681.155 430.832 666.734 444.139 657.862C457.447 648.991 478.998 649.028 492.275 657.945Z" fill="#DBEAFE"/>
<path d="M504.24 698.229C481.781 713.202 479.606 734.323 493.774 752.343C498.426 758.26 510.211 758.594 517.281 753.881L587.361 707.161C594.43 702.448 593.975 694.561 585.149 691.426C558.272 681.879 526.7 683.255 504.24 698.229Z" fill="#DBEAFE"/>
<path d="M492.275 657.945C505.552 666.863 505.528 681.284 492.22 690.155C478.912 699.027 457.361 698.99 444.084 690.073C430.807 681.155 430.832 666.734 444.139 657.862C457.447 648.991 478.998 649.028 492.275 657.945Z" stroke="#1D4ED8" stroke-width="7.23983" stroke-linejoin="round"/>
<path d="M504.24 698.229C481.781 713.202 479.606 734.323 493.774 752.343C498.426 758.26 510.211 758.594 517.281 753.881L587.361 707.161C594.43 702.448 593.975 694.561 585.149 691.426C558.272 681.879 526.7 683.255 504.24 698.229Z" stroke="#1D4ED8" stroke-width="7.23983" stroke-linejoin="round"/>
</g>
<g clip-path="url(#clip7_1200_1301)">
<path d="M387.928 664.638L340.741 696.096L387.82 727.716M453.99 620.597L501.177 589.139L548.256 620.759M614.166 665.027L661.244 696.647L614.057 728.105M547.996 772.146L500.809 803.604L453.73 771.984" stroke="#1D4ED8" stroke-width="6" stroke-linecap="round" stroke-linejoin="round"/>
</g>
<rect x="4.98657" y="0.00856805" width="394" height="394" rx="42" transform="matrix(0.83205 -0.5547 0.830139 0.557556 169.385 700.57)" fill="white" stroke="#2563EB" stroke-width="6"/>
<g clip-path="url(#clip8_1200_1301)">
<path d="M492.275 659.945C505.552 668.863 505.528 683.284 492.22 692.155C478.912 701.027 457.361 700.99 444.084 692.073C430.807 683.155 430.832 668.734 444.139 659.862C457.447 650.991 478.998 651.028 492.275 659.945Z" fill="#DBEAFE"/>
<path d="M504.24 700.229C481.781 715.202 479.606 736.323 493.774 754.343C498.426 760.26 510.211 760.594 517.281 755.881L587.361 709.161C594.43 704.448 593.975 696.561 585.149 693.426C558.272 683.879 526.7 685.255 504.24 700.229Z" fill="#DBEAFE"/>
<path d="M492.275 659.945C505.552 668.863 505.528 683.284 492.22 692.155C478.912 701.027 457.361 700.99 444.084 692.073C430.807 683.155 430.832 668.734 444.139 659.862C457.447 650.991 478.998 651.028 492.275 659.945Z" stroke="#1D4ED8" stroke-width="7.23983" stroke-linejoin="round"/>
<path d="M504.24 700.229C481.781 715.202 479.606 736.323 493.774 754.343C498.426 760.26 510.211 760.594 517.281 755.881L587.361 709.161C594.43 704.448 593.975 696.561 585.149 693.426C558.272 683.879 526.7 685.255 504.24 700.229Z" stroke="#1D4ED8" stroke-width="7.23983" stroke-linejoin="round"/>
</g>
<g clip-path="url(#clip9_1200_1301)">
<path d="M387.928 666.638L340.741 698.096L387.82 729.716M453.99 622.597L501.177 591.139L548.256 622.759M614.166 667.027L661.244 698.647L614.057 730.105M547.996 774.146L500.809 805.604L453.73 773.984" stroke="#1D4ED8" stroke-width="6" stroke-linecap="round" stroke-linejoin="round"/>
</g>
<rect x="4.98657" y="0.00856805" width="394" height="394" rx="42" transform="matrix(0.83205 -0.5547 0.830139 0.557556 169.385 696.57)" fill="white" stroke="#2563EB" stroke-width="6"/>
<g clip-path="url(#clip10_1200_1301)">
<path d="M492.275 655.945C505.552 664.863 505.528 679.284 492.22 688.155C478.912 697.027 457.361 696.99 444.084 688.073C430.807 679.155 430.832 664.734 444.139 655.862C457.447 646.991 478.998 647.028 492.275 655.945Z" fill="#DBEAFE"/>
<path d="M504.24 696.229C481.781 711.202 479.606 732.323 493.774 750.343C498.426 756.26 510.211 756.594 517.281 751.881L587.361 705.161C594.43 700.448 593.975 692.561 585.149 689.426C558.272 679.879 526.7 681.255 504.24 696.229Z" fill="#DBEAFE"/>
<path d="M492.275 655.945C505.552 664.863 505.528 679.284 492.22 688.155C478.912 697.027 457.361 696.99 444.084 688.073C430.807 679.155 430.832 664.734 444.139 655.862C457.447 646.991 478.998 647.028 492.275 655.945Z" stroke="#1D4ED8" stroke-width="7.23983" stroke-linejoin="round"/>
<path d="M504.24 696.229C481.781 711.202 479.606 732.323 493.774 750.343C498.426 756.26 510.211 756.594 517.281 751.881L587.361 705.161C594.43 700.448 593.975 692.561 585.149 689.426C558.272 679.879 526.7 681.255 504.24 696.229Z" stroke="#1D4ED8" stroke-width="7.23983" stroke-linejoin="round"/>
</g>
<g clip-path="url(#clip11_1200_1301)">
<path d="M387.928 662.638L340.741 694.096L387.82 725.716M453.99 618.597L501.177 587.139L548.256 618.759M614.166 663.027L661.244 694.647L614.057 726.105M547.996 770.146L500.809 801.604L453.73 769.984" stroke="#1D4ED8" stroke-width="6" stroke-linecap="round" stroke-linejoin="round"/>
</g>
<rect x="4.98657" y="0.00856805" width="394" height="394" rx="42" transform="matrix(0.83205 -0.5547 0.830139 0.557556 169.385 692.57)" fill="white" stroke="#2563EB" stroke-width="6"/>
<g clip-path="url(#clip12_1200_1301)">
<path d="M492.275 651.945C505.552 660.863 505.528 675.284 492.22 684.155C478.912 693.027 457.361 692.99 444.084 684.073C430.807 675.155 430.832 660.734 444.139 651.862C457.447 642.991 478.998 643.028 492.275 651.945Z" fill="#DBEAFE"/>
<path d="M504.24 692.229C481.781 707.202 479.606 728.323 493.774 746.343C498.426 752.26 510.211 752.594 517.281 747.881L587.361 701.161C594.43 696.448 593.975 688.561 585.149 685.426C558.272 675.879 526.7 677.255 504.24 692.229Z" fill="#DBEAFE"/>
<path d="M492.275 651.945C505.552 660.863 505.528 675.284 492.22 684.155C478.912 693.027 457.361 692.99 444.084 684.073C430.807 675.155 430.832 660.734 444.139 651.862C457.447 642.991 478.998 643.028 492.275 651.945Z" stroke="#1D4ED8" stroke-width="7.23983" stroke-linejoin="round"/>
<path d="M504.24 692.229C481.781 707.202 479.606 728.323 493.774 746.343C498.426 752.26 510.211 752.594 517.281 747.881L587.361 701.161C594.43 696.448 593.975 688.561 585.149 685.426C558.272 675.879 526.7 677.255 504.24 692.229Z" stroke="#1D4ED8" stroke-width="7.23983" stroke-linejoin="round"/>
</g>
<g clip-path="url(#clip13_1200_1301)">
<path d="M387.928 658.638L340.741 690.096L387.82 721.716M453.99 614.597L501.177 583.139L548.256 614.759M614.166 659.027L661.244 690.647L614.057 722.105M547.996 766.146L500.809 797.604L453.73 765.984" stroke="#1D4ED8" stroke-width="6" stroke-linecap="round" stroke-linejoin="round"/>
</g>
<rect x="4.98657" y="0.00856805" width="394" height="394" rx="42" transform="matrix(0.83205 -0.5547 0.830139 0.557556 170.01 689.589)" fill="white" stroke="#2563EB" stroke-width="6"/>
<g clip-path="url(#clip14_1200_1301)">
<path d="M488.772 710.539L516.507 692.049M516.444 729.124L564.98 696.767" stroke="#1D4ED8" stroke-width="8.33333" stroke-linecap="round"/>
<path d="M447.338 640.952L475.009 659.537C482.65 664.669 495.054 664.69 502.712 659.584L530.447 641.094" stroke="#1D4ED8" stroke-width="8.33333" stroke-linejoin="round"/>
<path d="M398.809 668.675L438.134 642.458C441.812 640.006 446.797 638.634 451.992 638.643L525.8 638.769C530.995 638.778 535.975 640.168 539.644 642.632L606.551 687.57C614.192 692.702 614.178 701.001 606.519 706.107L530.248 756.955C522.589 762.061 510.186 762.039 502.544 756.907L398.777 687.213C391.136 682.08 391.15 673.781 398.809 668.675Z" stroke="#1D4ED8" stroke-width="8.33333"/>
</g>
<rect x="4.98657" y="0.00856805" width="394" height="394" rx="42" transform="matrix(0.83205 -0.5547 0.830139 0.557556 167.401 571.93)" fill="white" stroke="#2563EB" stroke-width="6"/>
<g clip-path="url(#clip15_1200_1301)">
<path d="M490.291 531.305C503.568 540.222 503.543 554.643 490.236 563.515C476.928 572.387 455.377 572.35 442.1 563.432C428.823 554.515 428.847 540.094 442.155 531.222C455.463 522.35 477.014 522.387 490.291 531.305Z" fill="#DBEAFE"/>
<path d="M502.256 571.588C479.796 586.561 477.622 607.683 491.79 625.703C496.442 631.62 508.227 631.954 515.296 627.241L585.376 580.521C592.446 575.808 591.99 567.921 583.165 564.786C556.288 555.239 524.715 556.615 502.256 571.588Z" fill="#DBEAFE"/>
<path d="M490.291 531.305C503.568 540.222 503.543 554.643 490.236 563.515C476.928 572.387 455.377 572.35 442.1 563.432C428.823 554.515 428.847 540.094 442.155 531.222C455.463 522.35 477.014 522.387 490.291 531.305Z" stroke="#1D4ED8" stroke-width="7.23983" stroke-linejoin="round"/>
<path d="M502.256 571.588C479.796 586.561 477.622 607.683 491.79 625.703C496.442 631.62 508.227 631.954 515.296 627.241L585.376 580.521C592.446 575.808 591.99 567.921 583.165 564.786C556.288 555.239 524.715 556.615 502.256 571.588Z" stroke="#1D4ED8" stroke-width="7.23983" stroke-linejoin="round"/>
</g>
<g clip-path="url(#clip16_1200_1301)">
<path d="M385.944 537.998L338.757 569.456L385.835 601.076M452.006 493.957L499.193 462.499L546.271 494.119M612.181 538.387L659.26 570.007L612.073 601.465M546.011 645.506L498.824 676.964L451.746 645.344" stroke="#1D4ED8" stroke-width="6" stroke-linecap="round" stroke-linejoin="round"/>
</g>
<rect x="4.98657" y="0.00856805" width="394" height="394" rx="42" transform="matrix(0.83205 -0.5547 0.830139 0.557556 167.401 575.93)" fill="white" stroke="#2563EB" stroke-width="6"/>
<g clip-path="url(#clip17_1200_1301)">
<path d="M490.291 535.305C503.568 544.222 503.543 558.643 490.236 567.515C476.928 576.387 455.377 576.35 442.1 567.432C428.823 558.515 428.847 544.094 442.155 535.222C455.463 526.35 477.014 526.387 490.291 535.305Z" fill="#DBEAFE"/>
<path d="M502.256 575.588C479.796 590.561 477.622 611.683 491.79 629.703C496.442 635.62 508.227 635.954 515.296 631.241L585.376 584.521C592.446 579.808 591.99 571.921 583.165 568.786C556.288 559.239 524.715 560.615 502.256 575.588Z" fill="#DBEAFE"/>
<path d="M490.291 535.305C503.568 544.222 503.543 558.643 490.236 567.515C476.928 576.387 455.377 576.35 442.1 567.432C428.823 558.515 428.847 544.094 442.155 535.222C455.463 526.35 477.014 526.387 490.291 535.305Z" stroke="#1D4ED8" stroke-width="7.23983" stroke-linejoin="round"/>
<path d="M502.256 575.588C479.796 590.561 477.622 611.683 491.79 629.703C496.442 635.62 508.227 635.954 515.296 631.241L585.376 584.521C592.446 579.808 591.99 571.921 583.165 568.786C556.288 559.239 524.715 560.615 502.256 575.588Z" stroke="#1D4ED8" stroke-width="7.23983" stroke-linejoin="round"/>
</g>
<g clip-path="url(#clip18_1200_1301)">
<path d="M385.944 541.998L338.757 573.456L385.835 605.076M452.006 497.957L499.193 466.499L546.271 498.119M612.181 542.387L659.26 574.007L612.073 605.465M546.011 649.506L498.824 680.964L451.746 649.344" stroke="#1D4ED8" stroke-width="6" stroke-linecap="round" stroke-linejoin="round"/>
</g>
<rect x="4.98657" y="0.00856805" width="394" height="394" rx="42" transform="matrix(0.83205 -0.5547 0.830139 0.557556 167.401 571.93)" fill="white" stroke="#2563EB" stroke-width="6"/>
<g clip-path="url(#clip19_1200_1301)">
<path d="M490.291 531.305C503.568 540.222 503.543 554.643 490.236 563.515C476.928 572.387 455.377 572.35 442.1 563.432C428.823 554.515 428.847 540.094 442.155 531.222C455.463 522.35 477.014 522.387 490.291 531.305Z" fill="#DBEAFE"/>
<path d="M502.256 571.588C479.796 586.561 477.622 607.683 491.79 625.703C496.442 631.62 508.227 631.954 515.296 627.241L585.376 580.521C592.446 575.808 591.99 567.921 583.165 564.786C556.288 555.239 524.715 556.615 502.256 571.588Z" fill="#DBEAFE"/>
<path d="M490.291 531.305C503.568 540.222 503.543 554.643 490.236 563.515C476.928 572.387 455.377 572.35 442.1 563.432C428.823 554.515 428.847 540.094 442.155 531.222C455.463 522.35 477.014 522.387 490.291 531.305Z" stroke="#1D4ED8" stroke-width="7.23983" stroke-linejoin="round"/>
<path d="M502.256 571.588C479.796 586.561 477.622 607.683 491.79 625.703C496.442 631.62 508.227 631.954 515.296 627.241L585.376 580.521C592.446 575.808 591.99 567.921 583.165 564.786C556.288 555.239 524.715 556.615 502.256 571.588Z" stroke="#1D4ED8" stroke-width="7.23983" stroke-linejoin="round"/>
</g>
<g clip-path="url(#clip20_1200_1301)">
<path d="M385.944 537.998L338.757 569.456L385.835 601.076M452.006 493.957L499.193 462.499L546.271 494.119M612.181 538.387L659.26 570.007L612.073 601.465M546.011 645.506L498.824 676.964L451.746 645.344" stroke="#1D4ED8" stroke-width="6" stroke-linecap="round" stroke-linejoin="round"/>
</g>
<rect x="4.98657" y="0.00856805" width="394" height="394" rx="42" transform="matrix(0.83205 -0.5547 0.830139 0.557556 167.401 565.93)" fill="white" stroke="#2563EB" stroke-width="6"/>
<g clip-path="url(#clip21_1200_1301)">
<path d="M490.291 525.305C503.568 534.222 503.543 548.643 490.236 557.515C476.928 566.387 455.377 566.35 442.1 557.432C428.823 548.515 428.847 534.094 442.155 525.222C455.463 516.35 477.014 516.387 490.291 525.305Z" fill="#DBEAFE"/>
<path d="M502.256 565.588C479.796 580.561 477.622 601.683 491.79 619.703C496.442 625.62 508.227 625.954 515.296 621.241L585.376 574.521C592.446 569.808 591.99 561.921 583.165 558.786C556.288 549.239 524.715 550.615 502.256 565.588Z" fill="#DBEAFE"/>
<path d="M490.291 525.305C503.568 534.222 503.543 548.643 490.236 557.515C476.928 566.387 455.377 566.35 442.1 557.432C428.823 548.515 428.847 534.094 442.155 525.222C455.463 516.35 477.014 516.387 490.291 525.305Z" stroke="#1D4ED8" stroke-width="7.23983" stroke-linejoin="round"/>
<path d="M502.256 565.588C479.796 580.561 477.622 601.683 491.79 619.703C496.442 625.62 508.227 625.954 515.296 621.241L585.376 574.521C592.446 569.808 591.99 561.921 583.165 558.786C556.288 549.239 524.715 550.615 502.256 565.588Z" stroke="#1D4ED8" stroke-width="7.23983" stroke-linejoin="round"/>
</g>
<g clip-path="url(#clip22_1200_1301)">
<path d="M385.944 531.998L338.757 563.456L385.835 595.076M452.006 487.957L499.193 456.499L546.271 488.119M612.181 532.387L659.26 564.007L612.073 595.465M546.011 639.506L498.824 670.964L451.746 639.344" stroke="#1D4ED8" stroke-width="6" stroke-linecap="round" stroke-linejoin="round"/>
</g>
<rect x="4.98657" y="0.00856805" width="394" height="394" rx="42" transform="matrix(0.83205 -0.5547 0.830139 0.557556 167.401 567.93)" fill="white" stroke="#2563EB" stroke-width="6"/>
<g clip-path="url(#clip23_1200_1301)">
<path d="M490.291 527.305C503.568 536.222 503.543 550.643 490.236 559.515C476.928 568.387 455.377 568.35 442.1 559.432C428.823 550.515 428.847 536.094 442.155 527.222C455.463 518.35 477.014 518.387 490.291 527.305Z" fill="#DBEAFE"/>
<path d="M502.256 567.588C479.796 582.561 477.622 603.683 491.79 621.703C496.442 627.62 508.227 627.954 515.296 623.241L585.376 576.521C592.446 571.808 591.99 563.921 583.165 560.786C556.288 551.239 524.715 552.615 502.256 567.588Z" fill="#DBEAFE"/>
<path d="M490.291 527.305C503.568 536.222 503.543 550.643 490.236 559.515C476.928 568.387 455.377 568.35 442.1 559.432C428.823 550.515 428.847 536.094 442.155 527.222C455.463 518.35 477.014 518.387 490.291 527.305Z" stroke="#1D4ED8" stroke-width="7.23983" stroke-linejoin="round"/>
<path d="M502.256 567.588C479.796 582.561 477.622 603.683 491.79 621.703C496.442 627.62 508.227 627.954 515.296 623.241L585.376 576.521C592.446 571.808 591.99 563.921 583.165 560.786C556.288 551.239 524.715 552.615 502.256 567.588Z" stroke="#1D4ED8" stroke-width="7.23983" stroke-linejoin="round"/>
</g>
<g clip-path="url(#clip24_1200_1301)">
<path d="M385.944 533.998L338.757 565.456L385.835 597.076M452.006 489.957L499.193 458.499L546.271 490.119M612.181 534.387L659.26 566.007L612.073 597.465M546.011 641.506L498.824 672.964L451.746 641.344" stroke="#1D4ED8" stroke-width="6" stroke-linecap="round" stroke-linejoin="round"/>
</g>
<rect x="4.98657" y="0.00856805" width="394" height="394" rx="42" transform="matrix(0.83205 -0.5547 0.830139 0.557556 167.401 563.93)" fill="white" stroke="#2563EB" stroke-width="6"/>
<g clip-path="url(#clip25_1200_1301)">
<path d="M490.291 523.305C503.568 532.222 503.543 546.643 490.236 555.515C476.928 564.387 455.377 564.35 442.1 555.432C428.823 546.515 428.847 532.094 442.155 523.222C455.463 514.35 477.014 514.387 490.291 523.305Z" fill="#DBEAFE"/>
<path d="M502.256 563.588C479.796 578.561 477.622 599.683 491.79 617.703C496.442 623.62 508.227 623.954 515.296 619.241L585.376 572.521C592.446 567.808 591.99 559.921 583.165 556.786C556.288 547.239 524.715 548.615 502.256 563.588Z" fill="#DBEAFE"/>
<path d="M490.291 523.305C503.568 532.222 503.543 546.643 490.236 555.515C476.928 564.387 455.377 564.35 442.1 555.432C428.823 546.515 428.847 532.094 442.155 523.222C455.463 514.35 477.014 514.387 490.291 523.305Z" stroke="#1D4ED8" stroke-width="7.23983" stroke-linejoin="round"/>
<path d="M502.256 563.588C479.796 578.561 477.622 599.683 491.79 617.703C496.442 623.62 508.227 623.954 515.296 619.241L585.376 572.521C592.446 567.808 591.99 559.921 583.165 556.786C556.288 547.239 524.715 548.615 502.256 563.588Z" stroke="#1D4ED8" stroke-width="7.23983" stroke-linejoin="round"/>
</g>
<g clip-path="url(#clip26_1200_1301)">
<path d="M385.944 529.998L338.757 561.456L385.835 593.076M452.006 485.957L499.193 454.499L546.271 486.119M612.181 530.387L659.26 562.007L612.073 593.465M546.011 637.506L498.824 668.964L451.746 637.344" stroke="#1D4ED8" stroke-width="6" stroke-linecap="round" stroke-linejoin="round"/>
</g>
<rect x="4.98657" y="0.00856805" width="394" height="394" rx="42" transform="matrix(0.83205 -0.5547 0.830139 0.557556 167.401 559.93)" fill="white" stroke="#2563EB" stroke-width="6"/>
<g clip-path="url(#clip27_1200_1301)">
<path d="M490.291 519.305C503.568 528.222 503.543 542.643 490.236 551.515C476.928 560.387 455.377 560.35 442.1 551.432C428.823 542.515 428.847 528.094 442.155 519.222C455.463 510.35 477.014 510.387 490.291 519.305Z" fill="#DBEAFE"/>
<path d="M502.256 559.588C479.796 574.561 477.622 595.683 491.79 613.703C496.442 619.62 508.227 619.954 515.296 615.241L585.376 568.521C592.446 563.808 591.99 555.921 583.165 552.786C556.288 543.239 524.715 544.615 502.256 559.588Z" fill="#DBEAFE"/>
<path d="M490.291 519.305C503.568 528.222 503.543 542.643 490.236 551.515C476.928 560.387 455.377 560.35 442.1 551.432C428.823 542.515 428.847 528.094 442.155 519.222C455.463 510.35 477.014 510.387 490.291 519.305Z" stroke="#1D4ED8" stroke-width="7.23983" stroke-linejoin="round"/>
<path d="M502.256 559.588C479.796 574.561 477.622 595.683 491.79 613.703C496.442 619.62 508.227 619.954 515.296 615.241L585.376 568.521C592.446 563.808 591.99 555.921 583.165 552.786C556.288 543.239 524.715 544.615 502.256 559.588Z" stroke="#1D4ED8" stroke-width="7.23983" stroke-linejoin="round"/>
</g>
<g clip-path="url(#clip28_1200_1301)">
<path d="M385.944 525.998L338.757 557.456L385.835 589.076M452.006 481.957L499.193 450.499L546.271 482.119M612.181 526.387L659.26 558.007L612.073 589.465M546.011 633.506L498.824 664.964L451.746 633.344" stroke="#1D4ED8" stroke-width="6" stroke-linecap="round" stroke-linejoin="round"/>
</g>
<rect x="4.98657" y="0.00856805" width="394" height="394" rx="42" transform="matrix(0.83205 -0.5547 0.830139 0.557556 168.026 556.949)" fill="white" stroke="#2563EB" stroke-width="6"/>
<g clip-path="url(#clip29_1200_1301)">
<path d="M417.61 531.436L396.809 545.303C389.15 550.409 389.136 558.709 396.777 563.841L417.531 577.78M465.955 610.304L486.709 624.243C494.35 629.375 506.753 629.396 514.412 624.29L535.213 610.423M466.146 499.078L486.948 485.211C494.607 480.105 507.01 480.126 514.651 485.258L535.404 499.197M583.829 531.721L604.583 545.66C612.224 550.793 612.21 559.092 604.551 564.198L583.75 578.065M479.941 536.173L497.236 547.789C504.289 552.526 504.819 559.962 498.836 565.094M448.732 556.979L459.109 563.948M504.202 519.999L514.579 526.968M505.456 585.797C515.107 584.09 524.233 580.711 531.81 575.659C539.388 570.607 544.471 564.513 547.059 558.062" stroke="#1D4ED8" stroke-width="8.33333" stroke-linecap="round" stroke-linejoin="round"/>
</g>
<rect x="4.98657" y="0.00856805" width="394" height="394" rx="42" transform="matrix(0.83205 -0.5547 0.830139 0.557556 168.025 433.948)" fill="white" stroke="#2563EB" stroke-width="6"/>
<g clip-path="url(#clip30_1200_1301)">
<path d="M490.915 393.323C504.192 402.24 504.167 416.661 490.86 425.533C477.552 434.405 456.001 434.368 442.724 425.45C429.447 416.533 429.471 402.112 442.779 393.24C456.087 384.369 477.638 384.406 490.915 393.323Z" fill="#DBEAFE"/>
<path d="M502.88 433.606C480.42 448.579 478.246 469.701 492.414 487.721C497.066 493.638 508.851 493.972 515.92 489.259L586 442.539C593.07 437.826 592.614 429.939 583.789 426.804C556.912 417.257 525.339 418.633 502.88 433.606Z" fill="#DBEAFE"/>
<path d="M490.915 393.323C504.192 402.24 504.167 416.661 490.86 425.533C477.552 434.405 456.001 434.368 442.724 425.45C429.447 416.533 429.471 402.112 442.779 393.24C456.087 384.369 477.638 384.406 490.915 393.323Z" stroke="#1D4ED8" stroke-width="7.23983" stroke-linejoin="round"/>
<path d="M502.88 433.606C480.42 448.579 478.246 469.701 492.414 487.721C497.066 493.638 508.851 493.972 515.92 489.259L586 442.539C593.07 437.826 592.614 429.939 583.789 426.804C556.912 417.257 525.339 418.633 502.88 433.606Z" stroke="#1D4ED8" stroke-width="7.23983" stroke-linejoin="round"/>
</g>
<g clip-path="url(#clip31_1200_1301)">
<path d="M386.568 400.016L339.381 431.474L386.459 463.094M452.63 355.975L499.817 324.517L546.895 356.137M612.805 400.405L659.884 432.025L612.697 463.483M546.635 507.524L499.448 538.982L452.37 507.362" stroke="#1D4ED8" stroke-width="6" stroke-linecap="round" stroke-linejoin="round"/>
</g>
<rect x="4.98657" y="0.00856805" width="394" height="394" rx="42" transform="matrix(0.83205 -0.5547 0.830139 0.557556 168.025 437.948)" fill="white" stroke="#2563EB" stroke-width="6"/>
<g clip-path="url(#clip32_1200_1301)">
<path d="M490.915 397.323C504.192 406.24 504.167 420.661 490.86 429.533C477.552 438.405 456.001 438.368 442.724 429.45C429.447 420.533 429.471 406.112 442.779 397.24C456.087 388.369 477.638 388.406 490.915 397.323Z" fill="#DBEAFE"/>
<path d="M502.88 437.606C480.42 452.579 478.246 473.701 492.414 491.721C497.066 497.638 508.851 497.972 515.92 493.259L586 446.539C593.07 441.826 592.614 433.939 583.789 430.804C556.912 421.257 525.339 422.633 502.88 437.606Z" fill="#DBEAFE"/>
<path d="M490.915 397.323C504.192 406.24 504.167 420.661 490.86 429.533C477.552 438.405 456.001 438.368 442.724 429.45C429.447 420.533 429.471 406.112 442.779 397.24C456.087 388.369 477.638 388.406 490.915 397.323Z" stroke="#1D4ED8" stroke-width="7.23983" stroke-linejoin="round"/>
<path d="M502.88 437.606C480.42 452.579 478.246 473.701 492.414 491.721C497.066 497.638 508.851 497.972 515.92 493.259L586 446.539C593.07 441.826 592.614 433.939 583.789 430.804C556.912 421.257 525.339 422.633 502.88 437.606Z" stroke="#1D4ED8" stroke-width="7.23983" stroke-linejoin="round"/>
</g>
<g clip-path="url(#clip33_1200_1301)">
<path d="M386.568 404.016L339.381 435.474L386.459 467.094M452.63 359.975L499.817 328.517L546.895 360.137M612.805 404.405L659.884 436.025L612.697 467.483M546.635 511.524L499.448 542.982L452.37 511.362" stroke="#1D4ED8" stroke-width="6" stroke-linecap="round" stroke-linejoin="round"/>
</g>
<rect x="4.98657" y="0.00856805" width="394" height="394" rx="42" transform="matrix(0.83205 -0.5547 0.830139 0.557556 168.025 433.948)" fill="white" stroke="#2563EB" stroke-width="6"/>
<g clip-path="url(#clip34_1200_1301)">
<path d="M490.915 393.323C504.192 402.24 504.167 416.661 490.86 425.533C477.552 434.405 456.001 434.368 442.724 425.45C429.447 416.533 429.471 402.112 442.779 393.24C456.087 384.369 477.638 384.406 490.915 393.323Z" fill="#DBEAFE"/>
<path d="M502.88 433.606C480.42 448.579 478.246 469.701 492.414 487.721C497.066 493.638 508.851 493.972 515.92 489.259L586 442.539C593.07 437.826 592.614 429.939 583.789 426.804C556.912 417.257 525.339 418.633 502.88 433.606Z" fill="#DBEAFE"/>
<path d="M490.915 393.323C504.192 402.24 504.167 416.661 490.86 425.533C477.552 434.405 456.001 434.368 442.724 425.45C429.447 416.533 429.471 402.112 442.779 393.24C456.087 384.369 477.638 384.406 490.915 393.323Z" stroke="#1D4ED8" stroke-width="7.23983" stroke-linejoin="round"/>
<path d="M502.88 433.606C480.42 448.579 478.246 469.701 492.414 487.721C497.066 493.638 508.851 493.972 515.92 489.259L586 442.539C593.07 437.826 592.614 429.939 583.789 426.804C556.912 417.257 525.339 418.633 502.88 433.606Z" stroke="#1D4ED8" stroke-width="7.23983" stroke-linejoin="round"/>
</g>
<g clip-path="url(#clip35_1200_1301)">
<path d="M386.568 400.016L339.381 431.474L386.459 463.094M452.63 355.975L499.817 324.517L546.895 356.137M612.805 400.405L659.884 432.025L612.697 463.483M546.635 507.524L499.448 538.982L452.37 507.362" stroke="#1D4ED8" stroke-width="6" stroke-linecap="round" stroke-linejoin="round"/>
</g>
<rect x="4.98657" y="0.00856805" width="394" height="394" rx="42" transform="matrix(0.83205 -0.5547 0.830139 0.557556 168.025 427.948)" fill="white" stroke="#2563EB" stroke-width="6"/>
<g clip-path="url(#clip36_1200_1301)">
<path d="M490.915 387.323C504.192 396.24 504.167 410.661 490.86 419.533C477.552 428.405 456.001 428.368 442.724 419.45C429.447 410.533 429.471 396.112 442.779 387.24C456.087 378.369 477.638 378.406 490.915 387.323Z" fill="#DBEAFE"/>
<path d="M502.88 427.606C480.42 442.579 478.246 463.701 492.414 481.721C497.066 487.638 508.851 487.972 515.92 483.259L586 436.539C593.07 431.826 592.614 423.939 583.789 420.804C556.912 411.257 525.339 412.633 502.88 427.606Z" fill="#DBEAFE"/>
<path d="M490.915 387.323C504.192 396.24 504.167 410.661 490.86 419.533C477.552 428.405 456.001 428.368 442.724 419.45C429.447 410.533 429.471 396.112 442.779 387.24C456.087 378.369 477.638 378.406 490.915 387.323Z" stroke="#1D4ED8" stroke-width="7.23983" stroke-linejoin="round"/>
<path d="M502.88 427.606C480.42 442.579 478.246 463.701 492.414 481.721C497.066 487.638 508.851 487.972 515.92 483.259L586 436.539C593.07 431.826 592.614 423.939 583.789 420.804C556.912 411.257 525.339 412.633 502.88 427.606Z" stroke="#1D4ED8" stroke-width="7.23983" stroke-linejoin="round"/>
</g>
<g clip-path="url(#clip37_1200_1301)">
<path d="M386.568 394.016L339.381 425.474L386.459 457.094M452.63 349.975L499.817 318.517L546.895 350.137M612.805 394.405L659.884 426.025L612.697 457.483M546.635 501.524L499.448 532.982L452.37 501.362" stroke="#1D4ED8" stroke-width="6" stroke-linecap="round" stroke-linejoin="round"/>
</g>
<rect x="4.98657" y="0.00856805" width="394" height="394" rx="42" transform="matrix(0.83205 -0.5547 0.830139 0.557556 168.025 429.948)" fill="white" stroke="#2563EB" stroke-width="6"/>
<g clip-path="url(#clip38_1200_1301)">
<path d="M490.915 389.323C504.192 398.24 504.167 412.661 490.86 421.533C477.552 430.405 456.001 430.368 442.724 421.45C429.447 412.533 429.471 398.112 442.779 389.24C456.087 380.369 477.638 380.406 490.915 389.323Z" fill="#DBEAFE"/>
<path d="M502.88 429.606C480.42 444.579 478.246 465.701 492.414 483.721C497.066 489.638 508.851 489.972 515.92 485.259L586 438.539C593.07 433.826 592.614 425.939 583.789 422.804C556.912 413.257 525.339 414.633 502.88 429.606Z" fill="#DBEAFE"/>
<path d="M490.915 389.323C504.192 398.24 504.167 412.661 490.86 421.533C477.552 430.405 456.001 430.368 442.724 421.45C429.447 412.533 429.471 398.112 442.779 389.24C456.087 380.369 477.638 380.406 490.915 389.323Z" stroke="#1D4ED8" stroke-width="7.23983" stroke-linejoin="round"/>
<path d="M502.88 429.606C480.42 444.579 478.246 465.701 492.414 483.721C497.066 489.638 508.851 489.972 515.92 485.259L586 438.539C593.07 433.826 592.614 425.939 583.789 422.804C556.912 413.257 525.339 414.633 502.88 429.606Z" stroke="#1D4ED8" stroke-width="7.23983" stroke-linejoin="round"/>
</g>
<g clip-path="url(#clip39_1200_1301)">
<path d="M386.568 396.016L339.381 427.474L386.459 459.094M452.63 351.975L499.817 320.517L546.895 352.137M612.805 396.405L659.884 428.025L612.697 459.483M546.635 503.524L499.448 534.982L452.37 503.362" stroke="#1D4ED8" stroke-width="6" stroke-linecap="round" stroke-linejoin="round"/>
</g>
<rect x="4.98657" y="0.00856805" width="394" height="394" rx="42" transform="matrix(0.83205 -0.5547 0.830139 0.557556 168.025 425.948)" fill="white" stroke="#2563EB" stroke-width="6"/>
<g clip-path="url(#clip40_1200_1301)">
<path d="M490.915 385.323C504.192 394.24 504.167 408.661 490.86 417.533C477.552 426.405 456.001 426.368 442.724 417.45C429.447 408.533 429.471 394.112 442.779 385.24C456.087 376.369 477.638 376.406 490.915 385.323Z" fill="#DBEAFE"/>
<path d="M502.88 425.606C480.42 440.579 478.246 461.701 492.414 479.721C497.066 485.638 508.851 485.972 515.92 481.259L586 434.539C593.07 429.826 592.614 421.939 583.789 418.804C556.912 409.257 525.339 410.633 502.88 425.606Z" fill="#DBEAFE"/>
<path d="M490.915 385.323C504.192 394.24 504.167 408.661 490.86 417.533C477.552 426.405 456.001 426.368 442.724 417.45C429.447 408.533 429.471 394.112 442.779 385.24C456.087 376.369 477.638 376.406 490.915 385.323Z" stroke="#1D4ED8" stroke-width="7.23983" stroke-linejoin="round"/>
<path d="M502.88 425.606C480.42 440.579 478.246 461.701 492.414 479.721C497.066 485.638 508.851 485.972 515.92 481.259L586 434.539C593.07 429.826 592.614 421.939 583.789 418.804C556.912 409.257 525.339 410.633 502.88 425.606Z" stroke="#1D4ED8" stroke-width="7.23983" stroke-linejoin="round"/>
</g>
<g clip-path="url(#clip41_1200_1301)">
<path d="M386.568 392.016L339.381 423.474L386.459 455.094M452.63 347.975L499.817 316.517L546.895 348.137M612.805 392.405L659.884 424.025L612.697 455.483M546.635 499.524L499.448 530.982L452.37 499.362" stroke="#1D4ED8" stroke-width="6" stroke-linecap="round" stroke-linejoin="round"/>
</g>
<rect x="4.98657" y="0.00856805" width="394" height="394" rx="42" transform="matrix(0.83205 -0.5547 0.830139 0.557556 168.025 421.948)" fill="white" stroke="#2563EB" stroke-width="6"/>
<g clip-path="url(#clip42_1200_1301)">
<path d="M490.915 381.323C504.192 390.24 504.167 404.661 490.86 413.533C477.552 422.405 456.001 422.368 442.724 413.45C429.447 404.533 429.471 390.112 442.779 381.24C456.087 372.369 477.638 372.406 490.915 381.323Z" fill="#DBEAFE"/>
<path d="M502.88 421.606C480.42 436.579 478.246 457.701 492.414 475.721C497.066 481.638 508.851 481.972 515.92 477.259L586 430.539C593.07 425.826 592.614 417.939 583.789 414.804C556.912 405.257 525.339 406.633 502.88 421.606Z" fill="#DBEAFE"/>
<path d="M490.915 381.323C504.192 390.24 504.167 404.661 490.86 413.533C477.552 422.405 456.001 422.368 442.724 413.45C429.447 404.533 429.471 390.112 442.779 381.24C456.087 372.369 477.638 372.406 490.915 381.323Z" stroke="#1D4ED8" stroke-width="7.23983" stroke-linejoin="round"/>
<path d="M502.88 421.606C480.42 436.579 478.246 457.701 492.414 475.721C497.066 481.638 508.851 481.972 515.92 477.259L586 430.539C593.07 425.826 592.614 417.939 583.789 414.804C556.912 405.257 525.339 406.633 502.88 421.606Z" stroke="#1D4ED8" stroke-width="7.23983" stroke-linejoin="round"/>
</g>
<g clip-path="url(#clip43_1200_1301)">
<path d="M386.568 388.016L339.381 419.474L386.459 451.094M452.63 343.975L499.817 312.517L546.895 344.137M612.805 388.405L659.884 420.025L612.697 451.483M546.635 495.524L499.448 526.982L452.37 495.362" stroke="#1D4ED8" stroke-width="6" stroke-linecap="round" stroke-linejoin="round"/>
</g>
<rect x="4.98657" y="0.00856805" width="394" height="394" rx="42" transform="matrix(0.83205 -0.5547 0.830139 0.557556 168.65 418.967)" fill="white" stroke="#2563EB" stroke-width="6"/>
<g clip-path="url(#clip44_1200_1301)">
<path d="M478.77 431.792L509.358 432.231L508.274 391.292M449.286 460.706L406.667 432.082C401.061 428.317 399.4 422.663 402.461 417.765L429.015 375.283C431.008 372.095 434.804 369.564 439.576 368.243L503.16 350.632C510.491 348.602 518.935 349.734 524.541 353.5L567.159 382.124C599.635 403.936 599.574 439.209 567.024 460.909C534.474 482.609 481.761 482.518 449.286 460.706Z" stroke="#1D4ED8" stroke-width="8.33333" stroke-linecap="round" stroke-linejoin="round"/>
</g>
<rect x="4.98657" y="0.00856805" width="394" height="394" rx="42" transform="matrix(0.83205 -0.5547 0.830139 0.557556 166.776 310.807)" fill="white" stroke="#2563EB" stroke-width="6"/>
<g clip-path="url(#clip45_1200_1301)">
<path d="M489.666 270.182C502.943 279.1 502.918 293.521 489.611 302.393C476.303 311.264 454.752 311.227 441.475 302.31C428.198 293.392 428.222 278.971 441.53 270.1C454.838 261.228 476.389 261.265 489.666 270.182Z" fill="#DBEAFE"/>
<path d="M501.631 310.466C479.171 325.439 476.997 346.56 491.165 364.58C495.817 370.498 507.602 370.832 514.671 366.119L584.751 319.399C591.821 314.686 591.365 306.799 582.54 303.664C555.663 294.117 524.09 295.493 501.631 310.466Z" fill="#DBEAFE"/>
<path d="M489.666 270.182C502.943 279.1 502.918 293.521 489.611 302.393C476.303 311.264 454.752 311.227 441.475 302.31C428.198 293.392 428.222 278.971 441.53 270.1C454.838 261.228 476.389 261.265 489.666 270.182Z" stroke="#1D4ED8" stroke-width="7.23983" stroke-linejoin="round"/>
<path d="M501.631 310.466C479.171 325.439 476.997 346.56 491.165 364.58C495.817 370.498 507.602 370.832 514.671 366.119L584.751 319.399C591.821 314.686 591.365 306.799 582.54 303.664C555.663 294.117 524.09 295.493 501.631 310.466Z" stroke="#1D4ED8" stroke-width="7.23983" stroke-linejoin="round"/>
</g>
<g clip-path="url(#clip46_1200_1301)">
<path d="M385.319 276.875L338.132 308.333L385.21 339.953M451.381 232.834L498.568 201.376L545.646 232.996M611.556 277.264L658.635 308.884L611.448 340.342M545.386 384.383L498.199 415.841L451.121 384.221" stroke="#1D4ED8" stroke-width="6" stroke-linecap="round" stroke-linejoin="round"/>
</g>
<rect x="4.98657" y="0.00856805" width="394" height="394" rx="42" transform="matrix(0.83205 -0.5547 0.830139 0.557556 166.776 314.807)" fill="white" stroke="#2563EB" stroke-width="6"/>
<g clip-path="url(#clip47_1200_1301)">
<path d="M489.666 274.182C502.943 283.1 502.918 297.521 489.611 306.393C476.303 315.264 454.752 315.227 441.475 306.31C428.198 297.392 428.222 282.971 441.53 274.1C454.838 265.228 476.389 265.265 489.666 274.182Z" fill="#DBEAFE"/>
<path d="M501.631 314.466C479.171 329.439 476.997 350.56 491.165 368.58C495.817 374.498 507.602 374.832 514.671 370.119L584.751 323.399C591.821 318.686 591.365 310.799 582.54 307.664C555.663 298.117 524.09 299.493 501.631 314.466Z" fill="#DBEAFE"/>
<path d="M489.666 274.182C502.943 283.1 502.918 297.521 489.611 306.393C476.303 315.264 454.752 315.227 441.475 306.31C428.198 297.392 428.222 282.971 441.53 274.1C454.838 265.228 476.389 265.265 489.666 274.182Z" stroke="#1D4ED8" stroke-width="7.23983" stroke-linejoin="round"/>
<path d="M501.631 314.466C479.171 329.439 476.997 350.56 491.165 368.58C495.817 374.498 507.602 374.832 514.671 370.119L584.751 323.399C591.821 318.686 591.365 310.799 582.54 307.664C555.663 298.117 524.09 299.493 501.631 314.466Z" stroke="#1D4ED8" stroke-width="7.23983" stroke-linejoin="round"/>
</g>
<g clip-path="url(#clip48_1200_1301)">
<path d="M385.319 280.875L338.132 312.333L385.21 343.953M451.381 236.834L498.568 205.376L545.646 236.996M611.556 281.264L658.635 312.884L611.448 344.342M545.386 388.383L498.199 419.841L451.121 388.221" stroke="#1D4ED8" stroke-width="6" stroke-linecap="round" stroke-linejoin="round"/>
</g>
<rect x="4.98657" y="0.00856805" width="394" height="394" rx="42" transform="matrix(0.83205 -0.5547 0.830139 0.557556 166.776 310.807)" fill="white" stroke="#2563EB" stroke-width="6"/>
<g clip-path="url(#clip49_1200_1301)">
<path d="M489.666 270.182C502.943 279.1 502.918 293.521 489.611 302.393C476.303 311.264 454.752 311.227 441.475 302.31C428.198 293.392 428.222 278.971 441.53 270.1C454.838 261.228 476.389 261.265 489.666 270.182Z" fill="#DBEAFE"/>
<path d="M501.631 310.466C479.171 325.439 476.997 346.56 491.165 364.58C495.817 370.498 507.602 370.832 514.671 366.119L584.751 319.399C591.821 314.686 591.365 306.799 582.54 303.664C555.663 294.117 524.09 295.493 501.631 310.466Z" fill="#DBEAFE"/>
<path d="M489.666 270.182C502.943 279.1 502.918 293.521 489.611 302.393C476.303 311.264 454.752 311.227 441.475 302.31C428.198 293.392 428.222 278.971 441.53 270.1C454.838 261.228 476.389 261.265 489.666 270.182Z" stroke="#1D4ED8" stroke-width="7.23983" stroke-linejoin="round"/>
<path d="M501.631 310.466C479.171 325.439 476.997 346.56 491.165 364.58C495.817 370.498 507.602 370.832 514.671 366.119L584.751 319.399C591.821 314.686 591.365 306.799 582.54 303.664C555.663 294.117 524.09 295.493 501.631 310.466Z" stroke="#1D4ED8" stroke-width="7.23983" stroke-linejoin="round"/>
</g>
<g clip-path="url(#clip50_1200_1301)">
<path d="M385.319 276.875L338.132 308.333L385.21 339.953M451.381 232.834L498.568 201.376L545.646 232.996M611.556 277.264L658.635 308.884L611.448 340.342M545.386 384.383L498.199 415.841L451.121 384.221" stroke="#1D4ED8" stroke-width="6" stroke-linecap="round" stroke-linejoin="round"/>
</g>
<rect x="4.98657" y="0.00856805" width="394" height="394" rx="42" transform="matrix(0.83205 -0.5547 0.830139 0.557556 166.776 304.807)" fill="white" stroke="#2563EB" stroke-width="6"/>
<g clip-path="url(#clip51_1200_1301)">
<path d="M489.666 264.182C502.943 273.1 502.918 287.521 489.611 296.393C476.303 305.264 454.752 305.227 441.475 296.31C428.198 287.392 428.222 272.971 441.53 264.1C454.838 255.228 476.389 255.265 489.666 264.182Z" fill="#DBEAFE"/>
<path d="M501.631 304.466C479.171 319.439 476.997 340.56 491.165 358.58C495.817 364.498 507.602 364.832 514.671 360.119L584.751 313.399C591.821 308.686 591.365 300.799 582.54 297.664C555.663 288.117 524.09 289.493 501.631 304.466Z" fill="#DBEAFE"/>
<path d="M489.666 264.182C502.943 273.1 502.918 287.521 489.611 296.393C476.303 305.264 454.752 305.227 441.475 296.31C428.198 287.392 428.222 272.971 441.53 264.1C454.838 255.228 476.389 255.265 489.666 264.182Z" stroke="#1D4ED8" stroke-width="7.23983" stroke-linejoin="round"/>
<path d="M501.631 304.466C479.171 319.439 476.997 340.56 491.165 358.58C495.817 364.498 507.602 364.832 514.671 360.119L584.751 313.399C591.821 308.686 591.365 300.799 582.54 297.664C555.663 288.117 524.09 289.493 501.631 304.466Z" stroke="#1D4ED8" stroke-width="7.23983" stroke-linejoin="round"/>
</g>
<g clip-path="url(#clip52_1200_1301)">
<path d="M385.319 270.875L338.132 302.333L385.21 333.953M451.381 226.834L498.568 195.376L545.646 226.996M611.556 271.264L658.635 302.884L611.448 334.342M545.386 378.383L498.199 409.841L451.121 378.221" stroke="#1D4ED8" stroke-width="6" stroke-linecap="round" stroke-linejoin="round"/>
</g>
<rect x="4.98657" y="0.00856805" width="394" height="394" rx="42" transform="matrix(0.83205 -0.5547 0.830139 0.557556 166.776 306.807)" fill="white" stroke="#2563EB" stroke-width="6"/>
<g clip-path="url(#clip53_1200_1301)">
<path d="M489.666 266.182C502.943 275.1 502.918 289.521 489.611 298.393C476.303 307.264 454.752 307.227 441.475 298.31C428.198 289.392 428.222 274.971 441.53 266.1C454.838 257.228 476.389 257.265 489.666 266.182Z" fill="#DBEAFE"/>
<path d="M501.631 306.466C479.171 321.439 476.997 342.56 491.165 360.58C495.817 366.498 507.602 366.832 514.671 362.119L584.751 315.399C591.821 310.686 591.365 302.799 582.54 299.664C555.663 290.117 524.09 291.493 501.631 306.466Z" fill="#DBEAFE"/>
<path d="M489.666 266.182C502.943 275.1 502.918 289.521 489.611 298.393C476.303 307.264 454.752 307.227 441.475 298.31C428.198 289.392 428.222 274.971 441.53 266.1C454.838 257.228 476.389 257.265 489.666 266.182Z" stroke="#1D4ED8" stroke-width="7.23983" stroke-linejoin="round"/>
<path d="M501.631 306.466C479.171 321.439 476.997 342.56 491.165 360.58C495.817 366.498 507.602 366.832 514.671 362.119L584.751 315.399C591.821 310.686 591.365 302.799 582.54 299.664C555.663 290.117 524.09 291.493 501.631 306.466Z" stroke="#1D4ED8" stroke-width="7.23983" stroke-linejoin="round"/>
</g>
<g clip-path="url(#clip54_1200_1301)">
<path d="M385.319 272.875L338.132 304.333L385.21 335.953M451.381 228.834L498.568 197.376L545.646 228.996M611.556 273.264L658.635 304.884L611.448 336.342M545.386 380.383L498.199 411.841L451.121 380.221" stroke="#1D4ED8" stroke-width="6" stroke-linecap="round" stroke-linejoin="round"/>
</g>
<rect x="4.98657" y="0.00856805" width="394" height="394" rx="42" transform="matrix(0.83205 -0.5547 0.830139 0.557556 166.776 302.807)" fill="white" stroke="#2563EB" stroke-width="6"/>
<g clip-path="url(#clip55_1200_1301)">
<path d="M489.666 262.182C502.943 271.1 502.918 285.521 489.611 294.393C476.303 303.264 454.752 303.227 441.475 294.31C428.198 285.392 428.222 270.971 441.53 262.1C454.838 253.228 476.389 253.265 489.666 262.182Z" fill="#DBEAFE"/>
<path d="M501.631 302.466C479.171 317.439 476.997 338.56 491.165 356.58C495.817 362.498 507.602 362.832 514.671 358.119L584.751 311.399C591.821 306.686 591.365 298.799 582.54 295.664C555.663 286.117 524.09 287.493 501.631 302.466Z" fill="#DBEAFE"/>
<path d="M489.666 262.182C502.943 271.1 502.918 285.521 489.611 294.393C476.303 303.264 454.752 303.227 441.475 294.31C428.198 285.392 428.222 270.971 441.53 262.1C454.838 253.228 476.389 253.265 489.666 262.182Z" stroke="#1D4ED8" stroke-width="7.23983" stroke-linejoin="round"/>
<path d="M501.631 302.466C479.171 317.439 476.997 338.56 491.165 356.58C495.817 362.498 507.602 362.832 514.671 358.119L584.751 311.399C591.821 306.686 591.365 298.799 582.54 295.664C555.663 286.117 524.09 287.493 501.631 302.466Z" stroke="#1D4ED8" stroke-width="7.23983" stroke-linejoin="round"/>
</g>
<g clip-path="url(#clip56_1200_1301)">
<path d="M385.319 268.875L338.132 300.333L385.21 331.953M451.381 224.834L498.568 193.376L545.646 224.996M611.556 269.264L658.635 300.884L611.448 332.342M545.386 376.383L498.199 407.841L451.121 376.221" stroke="#1D4ED8" stroke-width="6" stroke-linecap="round" stroke-linejoin="round"/>
</g>
<rect x="4.98657" y="0.00856805" width="394" height="394" rx="42" transform="matrix(0.83205 -0.5547 0.830139 0.557556 166.776 298.807)" fill="white" stroke="#2563EB" stroke-width="6"/>
<g clip-path="url(#clip57_1200_1301)">
<path d="M489.666 258.182C502.943 267.1 502.918 281.521 489.611 290.393C476.303 299.264 454.752 299.227 441.475 290.31C428.198 281.392 428.222 266.971 441.53 258.1C454.838 249.228 476.389 249.265 489.666 258.182Z" fill="#DBEAFE"/>
<path d="M501.631 298.466C479.171 313.439 476.997 334.56 491.165 352.58C495.817 358.498 507.602 358.832 514.671 354.119L584.751 307.399C591.821 302.686 591.365 294.799 582.54 291.664C555.663 282.117 524.09 283.493 501.631 298.466Z" fill="#DBEAFE"/>
<path d="M489.666 258.182C502.943 267.1 502.918 281.521 489.611 290.393C476.303 299.264 454.752 299.227 441.475 290.31C428.198 281.392 428.222 266.971 441.53 258.1C454.838 249.228 476.389 249.265 489.666 258.182Z" stroke="#1D4ED8" stroke-width="7.23983" stroke-linejoin="round"/>
<path d="M501.631 298.466C479.171 313.439 476.997 334.56 491.165 352.58C495.817 358.498 507.602 358.832 514.671 354.119L584.751 307.399C591.821 302.686 591.365 294.799 582.54 291.664C555.663 282.117 524.09 283.493 501.631 298.466Z" stroke="#1D4ED8" stroke-width="7.23983" stroke-linejoin="round"/>
</g>
<g clip-path="url(#clip58_1200_1301)">
<path d="M385.319 264.875L338.132 296.333L385.21 327.953M451.381 220.834L498.568 189.376L545.646 220.996M611.556 265.264L658.635 296.884L611.448 328.342M545.386 372.383L498.199 403.841L451.121 372.221" stroke="#1D4ED8" stroke-width="6" stroke-linecap="round" stroke-linejoin="round"/>
</g>
<rect x="4.98657" y="0.00856805" width="394" height="394" rx="42" transform="matrix(0.83205 -0.5547 0.830139 0.557556 167.401 295.826)" fill="white" stroke="#2563EB" stroke-width="6"/>
<g clip-path="url(#clip59_1200_1301)">
<path d="M490.291 255.201C503.568 264.119 503.543 278.54 490.236 287.412C476.928 296.283 455.377 296.246 442.1 287.329C428.823 278.411 428.847 263.99 442.155 255.119C455.463 246.247 477.014 246.284 490.291 255.201Z" fill="#EFF6FF"/>
<path d="M502.256 295.485C479.796 310.458 477.622 331.579 491.79 349.599C496.442 355.517 508.227 355.851 515.296 351.138L585.376 304.418C592.446 299.705 591.99 291.818 583.165 288.683C556.288 279.136 524.715 280.512 502.256 295.485Z" fill="#EFF6FF"/>
<path d="M490.291 255.201C503.568 264.119 503.543 278.54 490.236 287.412C476.928 296.283 455.377 296.246 442.1 287.329C428.823 278.411 428.847 263.99 442.155 255.119C455.463 246.247 477.014 246.284 490.291 255.201Z" stroke="#1D4ED8" stroke-width="7.23983" stroke-linejoin="round"/>
<path d="M502.256 295.485C479.796 310.458 477.622 331.579 491.79 349.599C496.442 355.517 508.227 355.851 515.296 351.138L585.376 304.418C592.446 299.705 591.99 291.818 583.165 288.683C556.288 279.136 524.715 280.512 502.256 295.485Z" stroke="#1D4ED8" stroke-width="7.23983" stroke-linejoin="round"/>
</g>
<g clip-path="url(#clip60_1200_1301)">
<path d="M385.944 261.895L338.757 293.353L385.835 324.973M452.006 217.853L499.193 186.395L546.271 218.015M612.181 262.283L659.26 293.903L612.073 325.361M546.011 369.402L498.824 400.86L451.746 369.24" stroke="#1D4ED8" stroke-width="6" stroke-linecap="round" stroke-linejoin="round"/>
</g>
<defs>
<clipPath id="clip0_1200_1301">
<rect width="173.756" height="173.756" fill="white" transform="matrix(0.83205 -0.5547 0.830139 0.557556 356.827 701.962)"/>
</clipPath>
<clipPath id="clip1_1200_1301">
<rect width="272.216" height="272.216" fill="white" transform="matrix(0.83205 -0.5547 0.830139 0.557556 274.755 701.983)"/>
</clipPath>
<clipPath id="clip2_1200_1301">
<rect width="173.756" height="173.756" fill="white" transform="matrix(0.83205 -0.5547 0.830139 0.557556 356.827 705.962)"/>
</clipPath>
<clipPath id="clip3_1200_1301">
<rect width="272.216" height="272.216" fill="white" transform="matrix(0.83205 -0.5547 0.830139 0.557556 274.755 705.983)"/>
</clipPath>
<clipPath id="clip4_1200_1301">
<rect width="173.756" height="173.756" fill="white" transform="matrix(0.83205 -0.5547 0.830139 0.557556 356.827 701.962)"/>
</clipPath>
<clipPath id="clip5_1200_1301">
<rect width="272.216" height="272.216" fill="white" transform="matrix(0.83205 -0.5547 0.830139 0.557556 274.755 701.983)"/>
</clipPath>
<clipPath id="clip6_1200_1301">
<rect width="173.756" height="173.756" fill="white" transform="matrix(0.83205 -0.5547 0.830139 0.557556 356.827 695.962)"/>
</clipPath>
<clipPath id="clip7_1200_1301">
<rect width="272.216" height="272.216" fill="white" transform="matrix(0.83205 -0.5547 0.830139 0.557556 274.755 695.983)"/>
</clipPath>
<clipPath id="clip8_1200_1301">
<rect width="173.756" height="173.756" fill="white" transform="matrix(0.83205 -0.5547 0.830139 0.557556 356.827 697.962)"/>
</clipPath>
<clipPath id="clip9_1200_1301">
<rect width="272.216" height="272.216" fill="white" transform="matrix(0.83205 -0.5547 0.830139 0.557556 274.755 697.983)"/>
</clipPath>
<clipPath id="clip10_1200_1301">
<rect width="173.756" height="173.756" fill="white" transform="matrix(0.83205 -0.5547 0.830139 0.557556 356.827 693.962)"/>
</clipPath>
<clipPath id="clip11_1200_1301">
<rect width="272.216" height="272.216" fill="white" transform="matrix(0.83205 -0.5547 0.830139 0.557556 274.755 693.983)"/>
</clipPath>
<clipPath id="clip12_1200_1301">
<rect width="173.756" height="173.756" fill="white" transform="matrix(0.83205 -0.5547 0.830139 0.557556 356.827 689.962)"/>
</clipPath>
<clipPath id="clip13_1200_1301">
<rect width="272.216" height="272.216" fill="white" transform="matrix(0.83205 -0.5547 0.830139 0.557556 274.755 689.983)"/>
</clipPath>
<clipPath id="clip14_1200_1301">
<rect width="200" height="200" fill="white" transform="matrix(0.83205 -0.5547 0.830139 0.557556 336.445 687.105)"/>
</clipPath>
<clipPath id="clip15_1200_1301">
<rect width="173.756" height="173.756" fill="white" transform="matrix(0.83205 -0.5547 0.830139 0.557556 354.843 569.322)"/>
</clipPath>
<clipPath id="clip16_1200_1301">
<rect width="272.216" height="272.216" fill="white" transform="matrix(0.83205 -0.5547 0.830139 0.557556 272.771 569.343)"/>
</clipPath>
<clipPath id="clip17_1200_1301">
<rect width="173.756" height="173.756" fill="white" transform="matrix(0.83205 -0.5547 0.830139 0.557556 354.843 573.322)"/>
</clipPath>
<clipPath id="clip18_1200_1301">
<rect width="272.216" height="272.216" fill="white" transform="matrix(0.83205 -0.5547 0.830139 0.557556 272.771 573.343)"/>
</clipPath>
<clipPath id="clip19_1200_1301">
<rect width="173.756" height="173.756" fill="white" transform="matrix(0.83205 -0.5547 0.830139 0.557556 354.843 569.322)"/>
</clipPath>
<clipPath id="clip20_1200_1301">
<rect width="272.216" height="272.216" fill="white" transform="matrix(0.83205 -0.5547 0.830139 0.557556 272.771 569.343)"/>
</clipPath>
<clipPath id="clip21_1200_1301">
<rect width="173.756" height="173.756" fill="white" transform="matrix(0.83205 -0.5547 0.830139 0.557556 354.843 563.322)"/>
</clipPath>
<clipPath id="clip22_1200_1301">
<rect width="272.216" height="272.216" fill="white" transform="matrix(0.83205 -0.5547 0.830139 0.557556 272.771 563.343)"/>
</clipPath>
<clipPath id="clip23_1200_1301">
<rect width="173.756" height="173.756" fill="white" transform="matrix(0.83205 -0.5547 0.830139 0.557556 354.843 565.322)"/>
</clipPath>
<clipPath id="clip24_1200_1301">
<rect width="272.216" height="272.216" fill="white" transform="matrix(0.83205 -0.5547 0.830139 0.557556 272.771 565.343)"/>
</clipPath>
<clipPath id="clip25_1200_1301">
<rect width="173.756" height="173.756" fill="white" transform="matrix(0.83205 -0.5547 0.830139 0.557556 354.843 561.322)"/>
</clipPath>
<clipPath id="clip26_1200_1301">
<rect width="272.216" height="272.216" fill="white" transform="matrix(0.83205 -0.5547 0.830139 0.557556 272.771 561.343)"/>
</clipPath>
<clipPath id="clip27_1200_1301">
<rect width="173.756" height="173.756" fill="white" transform="matrix(0.83205 -0.5547 0.830139 0.557556 354.843 557.322)"/>
</clipPath>
<clipPath id="clip28_1200_1301">
<rect width="272.216" height="272.216" fill="white" transform="matrix(0.83205 -0.5547 0.830139 0.557556 272.771 557.343)"/>
</clipPath>
<clipPath id="clip29_1200_1301">
<rect width="200" height="200" fill="white" transform="matrix(0.83205 -0.5547 0.830139 0.557556 334.461 554.465)"/>
</clipPath>
<clipPath id="clip30_1200_1301">
<rect width="173.756" height="173.756" fill="white" transform="matrix(0.83205 -0.5547 0.830139 0.557556 355.467 431.34)"/>
</clipPath>
<clipPath id="clip31_1200_1301">
<rect width="272.216" height="272.216" fill="white" transform="matrix(0.83205 -0.5547 0.830139 0.557556 273.395 431.361)"/>
</clipPath>
<clipPath id="clip32_1200_1301">
<rect width="173.756" height="173.756" fill="white" transform="matrix(0.83205 -0.5547 0.830139 0.557556 355.467 435.34)"/>
</clipPath>
<clipPath id="clip33_1200_1301">
<rect width="272.216" height="272.216" fill="white" transform="matrix(0.83205 -0.5547 0.830139 0.557556 273.395 435.361)"/>
</clipPath>
<clipPath id="clip34_1200_1301">
<rect width="173.756" height="173.756" fill="white" transform="matrix(0.83205 -0.5547 0.830139 0.557556 355.467 431.34)"/>
</clipPath>
<clipPath id="clip35_1200_1301">
<rect width="272.216" height="272.216" fill="white" transform="matrix(0.83205 -0.5547 0.830139 0.557556 273.395 431.361)"/>
</clipPath>
<clipPath id="clip36_1200_1301">
<rect width="173.756" height="173.756" fill="white" transform="matrix(0.83205 -0.5547 0.830139 0.557556 355.467 425.34)"/>
</clipPath>
<clipPath id="clip37_1200_1301">
<rect width="272.216" height="272.216" fill="white" transform="matrix(0.83205 -0.5547 0.830139 0.557556 273.395 425.361)"/>
</clipPath>
<clipPath id="clip38_1200_1301">
<rect width="173.756" height="173.756" fill="white" transform="matrix(0.83205 -0.5547 0.830139 0.557556 355.467 427.34)"/>
</clipPath>
<clipPath id="clip39_1200_1301">
<rect width="272.216" height="272.216" fill="white" transform="matrix(0.83205 -0.5547 0.830139 0.557556 273.395 427.361)"/>
</clipPath>
<clipPath id="clip40_1200_1301">
<rect width="173.756" height="173.756" fill="white" transform="matrix(0.83205 -0.5547 0.830139 0.557556 355.467 423.34)"/>
</clipPath>
<clipPath id="clip41_1200_1301">
<rect width="272.216" height="272.216" fill="white" transform="matrix(0.83205 -0.5547 0.830139 0.557556 273.395 423.361)"/>
</clipPath>
<clipPath id="clip42_1200_1301">
<rect width="173.756" height="173.756" fill="white" transform="matrix(0.83205 -0.5547 0.830139 0.557556 355.467 419.34)"/>
</clipPath>
<clipPath id="clip43_1200_1301">
<rect width="272.216" height="272.216" fill="white" transform="matrix(0.83205 -0.5547 0.830139 0.557556 273.395 419.361)"/>
</clipPath>
<clipPath id="clip44_1200_1301">
<rect width="200" height="200" fill="white" transform="matrix(0.83205 -0.5547 0.830139 0.557556 335.086 416.483)"/>
</clipPath>
<clipPath id="clip45_1200_1301">
<rect width="173.756" height="173.756" fill="white" transform="matrix(0.83205 -0.5547 0.830139 0.557556 354.218 308.199)"/>
</clipPath>
<clipPath id="clip46_1200_1301">
<rect width="272.216" height="272.216" fill="white" transform="matrix(0.83205 -0.5547 0.830139 0.557556 272.146 308.22)"/>
</clipPath>
<clipPath id="clip47_1200_1301">
<rect width="173.756" height="173.756" fill="white" transform="matrix(0.83205 -0.5547 0.830139 0.557556 354.218 312.199)"/>
</clipPath>
<clipPath id="clip48_1200_1301">
<rect width="272.216" height="272.216" fill="white" transform="matrix(0.83205 -0.5547 0.830139 0.557556 272.146 312.22)"/>
</clipPath>
<clipPath id="clip49_1200_1301">
<rect width="173.756" height="173.756" fill="white" transform="matrix(0.83205 -0.5547 0.830139 0.557556 354.218 308.199)"/>
</clipPath>
<clipPath id="clip50_1200_1301">
<rect width="272.216" height="272.216" fill="white" transform="matrix(0.83205 -0.5547 0.830139 0.557556 272.146 308.22)"/>
</clipPath>
<clipPath id="clip51_1200_1301">
<rect width="173.756" height="173.756" fill="white" transform="matrix(0.83205 -0.5547 0.830139 0.557556 354.218 302.199)"/>
</clipPath>
<clipPath id="clip52_1200_1301">
<rect width="272.216" height="272.216" fill="white" transform="matrix(0.83205 -0.5547 0.830139 0.557556 272.146 302.22)"/>
</clipPath>
<clipPath id="clip53_1200_1301">
<rect width="173.756" height="173.756" fill="white" transform="matrix(0.83205 -0.5547 0.830139 0.557556 354.218 304.199)"/>
</clipPath>
<clipPath id="clip54_1200_1301">
<rect width="272.216" height="272.216" fill="white" transform="matrix(0.83205 -0.5547 0.830139 0.557556 272.146 304.22)"/>
</clipPath>
<clipPath id="clip55_1200_1301">
<rect width="173.756" height="173.756" fill="white" transform="matrix(0.83205 -0.5547 0.830139 0.557556 354.218 300.199)"/>
</clipPath>
<clipPath id="clip56_1200_1301">
<rect width="272.216" height="272.216" fill="white" transform="matrix(0.83205 -0.5547 0.830139 0.557556 272.146 300.22)"/>
</clipPath>
<clipPath id="clip57_1200_1301">
<rect width="173.756" height="173.756" fill="white" transform="matrix(0.83205 -0.5547 0.830139 0.557556 354.218 296.199)"/>
</clipPath>
<clipPath id="clip58_1200_1301">
<rect width="272.216" height="272.216" fill="white" transform="matrix(0.83205 -0.5547 0.830139 0.557556 272.146 296.22)"/>
</clipPath>
<clipPath id="clip59_1200_1301">
<rect width="173.756" height="173.756" fill="white" transform="matrix(0.83205 -0.5547 0.830139 0.557556 354.843 293.218)"/>
</clipPath>
<clipPath id="clip60_1200_1301">
<rect width="272.216" height="272.216" fill="white" transform="matrix(0.83205 -0.5547 0.830139 0.557556 272.771 293.239)"/>
</clipPath>
</defs>
</svg>
