<svg width="1000" height="1000" viewBox="0 0 1000 1000" fill="none" xmlns="http://www.w3.org/2000/svg">
<circle cx="289.414" cy="261.792" r="19.3326" fill="#EFF6FF"/>
<circle cx="344.654" cy="261.792" r="19.3326" fill="#EFF6FF"/>
<circle cx="399.883" cy="261.792" r="19.3326" fill="#EFF6FF"/>
<path d="M230.036 236.938V279.746H784.944V236.938C784.944 206.432 760.214 181.702 729.708 181.702H285.272C254.766 181.702 230.036 206.432 230.036 236.938Z" fill="white" stroke="#DBEAFE" stroke-width="8.28541" stroke-linejoin="round"/>
<path d="M149.945 311.512V352.939H855.586V311.512C855.586 281.006 830.856 256.276 800.35 256.276H205.181C174.675 256.276 149.945 281.006 149.945 311.512Z" fill="white" stroke="#BFDBFE" stroke-width="8.28541" stroke-linejoin="round"/>
<circle cx="220.369" cy="325.32" r="19.3326" fill="#DBEAFE"/>
<circle cx="275.61" cy="325.32" r="19.3326" fill="#DBEAFE"/>
<circle cx="330.838" cy="325.32" r="19.3326" fill="#DBEAFE"/>
<path d="M74.5476 751.463L77.5886 385.524C77.8911 349.133 107.477 319.792 143.87 319.792H859.725C896.332 319.792 926.008 349.468 926.008 386.075V752.014C926.008 788.621 896.332 818.297 859.725 818.297H140.829C104.006 818.297 74.2416 788.284 74.5476 751.463Z" fill="white" stroke="#1D4ED8" stroke-width="8.28541" stroke-linejoin="round"/>
<path d="M852.818 448.215H154.082C132.728 448.215 115.417 465.526 115.417 486.881V737.03C115.417 758.303 132.602 775.581 153.875 775.694L852.611 779.424C874.046 779.539 891.483 762.194 891.483 740.759V486.881C891.483 465.526 874.172 448.215 852.818 448.215Z" fill="#DBEAFE"/>
<circle cx="148.566" cy="394.365" r="19.3326" fill="#DBEAFE"/>
<circle cx="203.794" cy="394.365" r="19.3326" fill="#DBEAFE"/>
<circle cx="259.035" cy="394.365" r="19.3326" fill="#DBEAFE"/>
</svg>
