<svg width="1000" height="1000" viewBox="0 0 1000 1000" fill="none" xmlns="http://www.w3.org/2000/svg">
<path d="M372.509 267.637L355.768 278.797C351.145 281.879 351.137 286.888 355.749 289.986L401.68 320.835C406.292 323.933 413.778 323.946 418.401 320.864L472.808 284.593C477.431 281.511 477.439 276.501 472.827 273.404L460.3 264.99L458.208 266.385C452.429 270.238 443.071 270.222 437.306 266.349C431.541 262.477 431.552 256.215 437.33 252.363L439.423 250.968L426.896 242.555C422.284 239.457 414.798 239.444 410.175 242.526L393.434 253.686L391.346 252.284C385.581 248.412 376.223 248.396 370.445 252.248C364.666 256.1 364.656 262.362 370.421 266.234L372.509 267.637Z" fill="white" stroke="#1D4ED8" stroke-width="3.50214" stroke-linejoin="round"/>
<path d="M372.509 266.97L355.768 278.131C351.145 281.212 351.137 286.222 355.749 289.32L401.68 320.169C406.292 323.266 413.778 323.279 418.401 320.197L472.808 283.926C477.431 280.844 477.439 275.835 472.827 272.737L460.3 264.324L458.208 265.719C452.429 269.571 443.071 269.555 437.306 265.683C431.541 261.811 431.552 255.549 437.33 251.696L439.423 250.301L426.896 241.888C422.284 238.79 414.798 238.777 410.175 241.859L393.434 253.02L391.346 251.617C385.581 247.745 376.223 247.729 370.445 251.582C364.666 255.434 364.656 261.696 370.421 265.568L372.509 266.97Z" fill="white" stroke="#1D4ED8" stroke-width="3.50214" stroke-linejoin="round"/>
<path d="M372.509 266.303L355.768 277.464C351.145 280.545 351.137 285.555 355.749 288.653L401.68 319.502C406.292 322.599 413.778 322.612 418.401 319.53L472.808 283.259C477.431 280.177 477.439 275.168 472.827 272.07L460.3 263.657L458.208 265.052C452.429 268.904 443.071 268.888 437.306 265.016C431.541 261.144 431.552 254.882 437.33 251.029L439.423 249.634L426.896 241.221C422.284 238.123 414.798 238.11 410.175 241.192L393.434 252.353L391.346 250.95C385.581 247.078 376.223 247.062 370.445 250.915C364.666 254.767 364.656 261.029 370.421 264.901L372.509 266.303Z" fill="white" stroke="#1D4ED8" stroke-width="3.50214" stroke-linejoin="round"/>
<path d="M372.509 265.637L355.768 276.797C351.145 279.879 351.137 284.888 355.749 287.986L401.68 318.835C406.292 321.933 413.778 321.946 418.401 318.864L472.808 282.593C477.431 279.511 477.439 274.501 472.827 271.404L460.3 262.99L458.208 264.385C452.429 268.238 443.071 268.222 437.306 264.349C431.541 260.477 431.552 254.215 437.33 250.363L439.423 248.968L426.896 240.555C422.284 237.457 414.798 237.444 410.175 240.526L393.434 251.686L391.346 250.284C385.581 246.412 376.223 246.396 370.445 250.248C364.666 254.1 364.656 260.362 370.421 264.234L372.509 265.637Z" fill="white" stroke="#1D4ED8" stroke-width="3.50214" stroke-linejoin="round"/>
<path d="M372.509 264.97L355.768 276.13C351.145 279.212 351.137 284.221 355.749 287.319L401.68 318.168C406.292 321.266 413.778 321.279 418.401 318.197L472.808 281.926C477.431 278.844 477.439 273.834 472.827 270.737L460.3 262.323L458.208 263.718C452.429 267.571 443.071 267.555 437.306 263.682C431.541 259.81 431.552 253.548 437.33 249.696L439.423 248.301L426.896 239.888C422.284 236.79 414.798 236.777 410.175 239.859L393.434 251.019L391.346 249.617C385.581 245.745 376.223 245.729 370.445 249.581C364.666 253.433 364.656 259.695 370.421 263.567L372.509 264.97Z" fill="white" stroke="#1D4ED8" stroke-width="3.50214" stroke-linejoin="round"/>
<path d="M372.509 264.303L355.768 275.463C351.145 278.545 351.137 283.554 355.749 286.652L401.68 317.501C406.292 320.599 413.778 320.612 418.401 317.53L472.808 281.259C477.431 278.177 477.439 273.167 472.827 270.07L460.3 261.656L458.208 263.051C452.429 266.904 443.071 266.888 437.306 263.015C431.541 259.143 431.552 252.881 437.33 249.029L439.423 247.634L426.896 239.221C422.284 236.123 414.798 236.11 410.175 239.192L393.434 250.352L391.346 248.95C385.581 245.078 376.223 245.062 370.445 248.914C364.666 252.766 364.656 259.028 370.421 262.9L372.509 264.303Z" fill="white" stroke="#1D4ED8" stroke-width="3.50214" stroke-linejoin="round"/>
<path d="M372.509 262.778L355.768 273.939C351.145 277.021 351.137 282.03 355.749 285.128L401.68 315.977C406.292 319.075 413.778 319.087 418.401 316.006L472.808 279.734C477.431 276.652 477.439 271.643 472.827 268.545L460.3 260.132L458.208 261.527C452.429 265.379 443.071 265.363 437.306 261.491C431.541 257.619 431.552 251.357 437.33 247.505L439.423 246.11L426.896 237.696C422.284 234.598 414.798 234.586 410.175 237.667L393.434 248.828L391.346 247.426C385.581 243.553 376.223 243.537 370.445 247.39C364.666 251.242 364.656 257.504 370.421 261.376L372.509 262.778Z" fill="white" stroke="#1D4ED8" stroke-width="3.50214" stroke-linejoin="round"/>
<path d="M372.509 261.254L355.768 272.414C351.145 275.496 351.137 280.506 355.749 283.603L401.68 314.452C406.292 317.55 413.778 317.563 418.401 314.481L472.808 278.21C477.431 275.128 477.439 270.119 472.827 267.021L460.3 258.607L458.208 260.002C452.429 263.855 443.071 263.839 437.306 259.967C431.541 256.094 431.552 249.832 437.33 245.98L439.423 244.585L426.896 236.172C422.284 233.074 414.798 233.061 410.175 236.143L393.434 247.303L391.346 245.901C385.581 242.029 376.223 242.013 370.445 245.865C364.666 249.718 364.656 255.979 370.421 259.852L372.509 261.254Z" fill="white" stroke="#1D4ED8" stroke-width="3.50214" stroke-linejoin="round"/>
<path d="M372.509 259.73L355.768 270.89C351.145 273.972 351.137 278.982 355.749 282.079L401.68 312.928C406.292 316.026 413.778 316.039 418.401 312.957L472.808 276.686C477.431 273.604 477.439 268.595 472.827 265.497L460.3 257.084L458.208 258.479C452.429 262.331 443.071 262.315 437.306 258.443C431.541 254.57 431.552 248.309 437.33 244.456L439.423 243.061L426.896 234.648C422.284 231.55 414.798 231.537 410.175 234.619L393.434 245.779L391.346 244.377C385.581 240.505 376.223 240.489 370.445 244.341C364.666 248.194 364.656 254.456 370.421 258.328L372.509 259.73Z" fill="white" stroke="#1D4ED8" stroke-width="3.50214" stroke-linejoin="round"/>
<path d="M372.509 258.206L355.768 269.366C351.145 272.448 351.137 277.457 355.749 280.555L401.68 311.404C406.292 314.502 413.778 314.515 418.401 311.433L472.808 275.162C477.431 272.08 477.439 267.07 472.827 263.972L460.3 255.559L458.208 256.954C452.429 260.806 443.071 260.79 437.306 256.918C431.541 253.046 431.552 246.784 437.33 242.932L439.423 241.537L426.896 233.123C422.284 230.026 414.798 230.013 410.175 233.095L393.434 244.255L391.346 242.853C385.581 238.981 376.223 238.965 370.445 242.817C364.666 246.669 364.656 252.931 370.421 256.803L372.509 258.206Z" fill="white" stroke="#1D4ED8" stroke-width="3.50214" stroke-linejoin="round"/>
<path d="M372.509 256.681L355.768 267.841C351.145 270.923 351.137 275.933 355.749 279.031L401.68 309.88C406.292 312.977 413.778 312.99 418.401 309.908L472.808 273.637C477.431 270.555 477.439 265.546 472.827 262.448L460.3 254.035L458.208 255.43C452.429 259.282 443.071 259.266 437.306 255.394C431.541 251.522 431.552 245.26 437.33 241.407L439.423 240.012L426.896 231.599C422.284 228.501 414.798 228.488 410.175 231.57L393.434 242.731L391.346 241.328C385.581 237.456 376.223 237.44 370.445 241.292C364.666 245.145 364.656 251.407 370.421 255.279L372.509 256.681Z" fill="white" stroke="#1D4ED8" stroke-width="3.50214" stroke-linejoin="round"/>
<path d="M372.509 255.157L355.768 266.317C351.145 269.399 351.137 274.408 355.749 277.506L401.68 308.355C406.292 311.453 413.778 311.466 418.401 308.384L472.808 272.113C477.431 269.031 477.439 264.021 472.827 260.924L460.3 252.51L458.208 253.905C452.429 257.758 443.071 257.742 437.306 253.869C431.541 249.997 431.552 243.735 437.33 239.883L439.423 238.488L426.896 230.075C422.284 226.977 414.798 226.964 410.175 230.046L393.434 241.206L391.346 239.804C385.581 235.932 376.223 235.916 370.445 239.768C364.666 243.62 364.656 249.882 370.421 253.754L372.509 255.157Z" fill="white" stroke="#1D4ED8" stroke-width="3.50214" stroke-linejoin="round"/>
<path d="M372.509 253.632L355.768 264.793C351.145 267.875 351.137 272.884 355.749 275.982L401.68 306.831C406.292 309.929 413.778 309.941 418.401 306.86L472.808 270.588C477.431 267.506 477.439 262.497 472.827 259.399L460.3 250.986L458.208 252.381C452.429 256.233 443.071 256.217 437.306 252.345C431.541 248.473 431.552 242.211 437.33 238.359L439.423 236.964L426.896 228.55C422.284 225.452 414.798 225.44 410.175 228.521L393.434 239.682L391.346 238.28C385.581 234.407 376.223 234.391 370.445 238.244C364.666 242.096 364.656 248.358 370.421 252.23L372.509 253.632Z" fill="white" stroke="#1D4ED8" stroke-width="3.50214" stroke-linejoin="round"/>
<path d="M372.509 252.108L355.768 263.268C351.145 266.35 351.137 271.36 355.749 274.457L401.68 305.306C406.292 308.404 413.778 308.417 418.401 305.335L472.808 269.064C477.431 265.982 477.439 260.973 472.827 257.875L460.3 249.461L458.208 250.856C452.429 254.709 443.071 254.693 437.306 250.821C431.541 246.948 431.552 240.686 437.33 236.834L439.423 235.439L426.896 227.026C422.284 223.928 414.798 223.915 410.175 226.997L393.434 238.157L391.346 236.755C385.581 232.883 376.223 232.867 370.445 236.719C364.666 240.572 364.656 246.833 370.421 250.706L372.509 252.108Z" fill="white" stroke="#1D4ED8" stroke-width="3.50214" stroke-linejoin="round"/>
<path d="M372.509 250.583L355.768 261.744C351.145 264.826 351.137 269.835 355.749 272.933L401.68 303.782C406.292 306.88 413.778 306.893 418.401 303.811L472.808 267.54C477.431 264.458 477.439 259.448 472.827 256.35L460.3 247.937L458.208 249.332C452.429 253.184 443.071 253.168 437.306 249.296C431.541 245.424 431.552 239.162 437.33 235.31L439.423 233.915L426.896 225.501C422.284 222.404 414.798 222.391 410.175 225.473L393.434 236.633L391.346 235.231C385.581 231.359 376.223 231.343 370.445 235.195C364.666 239.047 364.656 245.309 370.421 249.181L372.509 250.583Z" fill="white" stroke="#1D4ED8" stroke-width="3.50214" stroke-linejoin="round"/>
<path d="M372.509 249.059L355.768 260.219C351.145 263.301 351.137 268.311 355.749 271.409L401.68 302.258C406.292 305.355 413.778 305.368 418.401 302.286L472.808 266.015C477.431 262.933 477.439 257.924 472.827 254.826L460.3 246.413L458.208 247.808C452.429 251.66 443.071 251.644 437.306 247.772C431.541 243.9 431.552 237.638 437.33 233.785L439.423 232.39L426.896 223.977C422.284 220.879 414.798 220.866 410.175 223.948L393.434 235.109L391.346 233.706C385.581 229.834 376.223 229.818 370.445 233.67C364.666 237.523 364.656 243.785 370.421 247.657L372.509 249.059Z" fill="white" stroke="#1D4ED8" stroke-width="3.50214" stroke-linejoin="round"/>
<path d="M372.509 247.535L355.768 258.695C351.145 261.777 351.137 266.786 355.749 269.884L401.68 300.733C406.292 303.831 413.778 303.844 418.401 300.762L472.808 264.491C477.431 261.409 477.439 256.399 472.827 253.302L460.3 244.888L458.208 246.283C452.429 250.136 443.071 250.119 437.306 246.247C431.541 242.375 431.552 236.113 437.33 232.261L439.423 230.866L426.896 222.453C422.284 219.355 414.798 219.342 410.175 222.424L393.434 233.584L391.346 232.182C385.581 228.31 376.223 228.294 370.445 232.146C364.666 235.998 364.656 242.26 370.421 246.132L372.509 247.535Z" fill="white" stroke="#1D4ED8" stroke-width="3.50214" stroke-linejoin="round"/>
<path d="M693.414 315.763L655.174 341.257C644.614 348.297 644.594 359.74 655.13 366.817L760.05 437.286C770.586 444.362 787.687 444.391 798.247 437.351L922.53 354.496C933.09 347.456 933.109 336.013 922.574 328.937L893.959 309.718L889.179 312.905C875.979 321.705 854.602 321.668 841.433 312.823C828.263 303.977 828.288 289.673 841.488 280.873L846.268 277.686L817.653 258.468C807.117 251.391 790.016 251.362 779.456 258.402L741.215 283.896L736.446 280.693C723.277 271.848 701.9 271.811 688.7 280.611C675.5 289.411 675.476 303.715 688.645 312.56L693.414 315.763Z" fill="white" stroke="#1D4ED8" stroke-width="8" stroke-linejoin="round"/>
<path d="M693.414 312.281L655.174 337.775C644.614 344.815 644.594 356.258 655.13 363.335L760.05 433.804C770.586 440.88 787.687 440.909 798.247 433.869L922.53 351.014C933.09 343.974 933.109 332.531 922.574 325.455L893.959 306.236L889.179 309.423C875.979 318.223 854.602 318.186 841.433 309.341C828.263 300.495 828.288 286.191 841.488 277.391L846.268 274.205L817.653 254.986C807.117 247.91 790.016 247.88 779.456 254.92L741.215 280.414L736.446 277.211C723.277 268.366 701.9 268.329 688.7 277.129C675.5 285.929 675.476 300.233 688.645 309.078L693.414 312.281Z" fill="white" stroke="#1D4ED8" stroke-width="8" stroke-linejoin="round"/>
<path d="M693.414 308.799L655.174 334.293C644.614 341.333 644.594 352.776 655.13 359.852L760.05 430.321C770.586 437.397 787.687 437.427 798.247 430.387L922.53 347.532C933.09 340.492 933.109 329.049 922.574 321.972L893.959 302.754L889.179 305.94C875.979 314.74 854.602 314.703 841.433 305.858C828.263 297.013 828.288 282.709 841.488 273.909L846.268 270.722L817.653 251.503C807.117 244.427 790.016 244.398 779.456 251.438L741.215 276.932L736.446 273.728C723.277 264.883 701.9 264.846 688.7 273.646C675.5 282.446 675.476 296.75 688.645 305.596L693.414 308.799Z" fill="white" stroke="#1D4ED8" stroke-width="8" stroke-linejoin="round"/>
<path d="M693.414 305.317L655.174 330.811C644.614 337.851 644.594 349.294 655.13 356.37L760.05 426.839C770.586 433.916 787.687 433.945 798.247 426.905L922.53 344.05C933.09 337.01 933.109 325.567 922.574 318.49L893.959 299.272L889.179 302.458C875.979 311.258 854.602 311.222 841.433 302.376C828.263 293.531 828.288 279.227 841.488 270.427L846.268 267.24L817.653 248.021C807.117 240.945 790.016 240.916 779.456 247.956L741.215 273.45L736.446 270.246C723.277 261.401 701.9 261.364 688.7 270.164C675.5 278.964 675.476 293.269 688.645 302.114L693.414 305.317Z" fill="white" stroke="#1D4ED8" stroke-width="8" stroke-linejoin="round"/>
<path d="M693.414 301.834L655.174 327.328C644.614 334.368 644.594 345.812 655.13 352.888L760.05 423.357C770.586 430.433 787.687 430.463 798.247 423.423L922.53 340.568C933.09 333.528 933.109 322.084 922.574 315.008L893.959 295.789L889.179 298.976C875.979 307.776 854.602 307.739 841.433 298.894C828.263 290.049 828.288 275.744 841.488 266.945L846.268 263.758L817.653 244.539C807.117 237.463 790.016 237.433 779.456 244.473L741.215 269.967L736.446 266.764C723.277 257.919 701.9 257.882 688.7 266.682C675.5 275.482 675.476 289.786 688.645 298.631L693.414 301.834Z" fill="white" stroke="#1D4ED8" stroke-width="8" stroke-linejoin="round"/>
<path d="M693.414 298.353L655.174 323.846C644.614 330.886 644.594 342.33 655.13 349.406L760.05 419.875C770.586 426.951 787.687 426.981 798.247 419.941L922.53 337.086C933.09 330.046 933.109 318.602 922.574 311.526L893.959 292.307L889.179 295.494C875.979 304.294 854.602 304.257 841.433 295.412C828.263 286.567 828.288 272.262 841.488 263.463L846.268 260.276L817.653 241.057C807.117 233.981 790.016 233.951 779.456 240.991L741.215 266.485L736.446 263.282C723.277 254.437 701.9 254.4 688.7 263.2C675.5 272 675.476 286.304 688.645 295.149L693.414 298.353Z" fill="white" stroke="#1D4ED8" stroke-width="8" stroke-linejoin="round"/>
<path d="M693.414 294.87L655.174 320.364C644.614 327.404 644.594 338.847 655.13 345.923L760.05 416.393C770.586 423.469 787.687 423.498 798.247 416.458L922.53 333.603C933.09 326.563 933.109 315.12 922.574 308.044L893.959 288.825L889.179 292.012C875.979 300.811 854.602 300.775 841.433 291.93C828.263 283.084 828.288 268.78 841.488 259.98L846.268 256.793L817.653 237.575C807.117 230.498 790.016 230.469 779.456 237.509L741.215 263.003L736.446 259.8C723.277 250.954 701.9 250.918 688.7 259.718C675.5 268.518 675.476 282.822 688.645 291.667L693.414 294.87Z" fill="white" stroke="#1D4ED8" stroke-width="8" stroke-linejoin="round"/>
<path d="M693.414 291.388L655.174 316.882C644.614 323.922 644.594 335.365 655.13 342.442L760.05 412.911C770.586 419.987 787.687 420.016 798.247 412.976L922.53 330.121C933.09 323.081 933.109 311.638 922.574 304.562L893.959 285.343L889.179 288.53C875.979 297.33 854.602 297.293 841.433 288.448C828.263 279.602 828.288 265.298 841.488 256.498L846.268 253.311L817.653 234.093C807.117 227.016 790.016 226.987 779.456 234.027L741.215 259.521L736.446 256.318C723.277 247.473 701.9 247.436 688.7 256.236C675.5 265.036 675.476 279.34 688.645 288.185L693.414 291.388Z" fill="white" stroke="#1D4ED8" stroke-width="8" stroke-linejoin="round"/>
<path d="M693.414 287.906L655.174 313.4C644.614 320.44 644.594 331.883 655.13 338.959L760.05 409.428C770.586 416.504 787.687 416.534 798.247 409.494L922.53 326.639C933.09 319.599 933.109 308.155 922.574 301.079L893.959 281.86L889.179 285.047C875.979 293.847 854.602 293.81 841.433 284.965C828.263 276.12 828.288 261.816 841.488 253.016L846.268 249.829L817.653 230.61C807.117 223.534 790.016 223.505 779.456 230.545L741.215 256.038L736.446 252.835C723.277 243.99 701.9 243.953 688.7 252.753C675.5 261.553 675.476 275.857 688.645 284.703L693.414 287.906Z" fill="white" stroke="#1D4ED8" stroke-width="8" stroke-linejoin="round"/>
<path d="M693.414 284.424L655.174 309.918C644.614 316.958 644.594 328.401 655.13 335.477L760.05 405.946C770.586 413.022 787.687 413.052 798.247 406.012L922.53 323.157C933.09 316.117 933.109 304.674 922.574 297.597L893.959 278.379L889.179 281.565C875.979 290.365 854.602 290.328 841.433 281.483C828.263 272.638 828.288 258.334 841.488 249.534L846.268 246.347L817.653 227.128C807.117 220.052 790.016 220.023 779.456 227.063L741.215 252.557L736.446 249.353C723.277 240.508 701.9 240.471 688.7 249.271C675.5 258.071 675.476 272.375 688.645 281.221L693.414 284.424Z" fill="white" stroke="#1D4ED8" stroke-width="8" stroke-linejoin="round"/>
<path d="M693.414 280.941L655.174 306.435C644.614 313.475 644.594 324.919 655.13 331.995L760.05 402.464C770.586 409.54 787.687 409.569 798.247 402.53L922.53 319.674C933.09 312.635 933.109 301.191 922.574 294.115L893.959 274.896L889.179 278.083C875.979 286.883 854.602 286.846 841.433 278.001C828.263 269.156 828.288 254.851 841.488 246.051L846.268 242.865L817.653 223.646C807.117 216.57 790.016 216.54 779.456 223.58L741.215 249.074L736.446 245.871C723.277 237.026 701.9 236.989 688.7 245.789C675.5 254.589 675.476 268.893 688.645 277.738L693.414 280.941Z" fill="white" stroke="#1D4ED8" stroke-width="8" stroke-linejoin="round"/>
<path d="M693.414 277.459L655.174 302.953C644.614 309.993 644.594 321.437 655.13 328.513L760.05 398.982C770.586 406.058 787.687 406.088 798.247 399.048L922.53 316.193C933.09 309.153 933.109 297.709 922.574 290.633L893.959 271.414L889.179 274.601C875.979 283.401 854.602 283.364 841.433 274.519C828.263 265.674 828.288 251.369 841.488 242.57L846.268 239.383L817.653 220.164C807.117 213.088 790.016 213.058 779.456 220.098L741.215 245.592L736.446 242.389C723.277 233.544 701.9 233.507 688.7 242.307C675.5 251.107 675.476 265.411 688.645 274.256L693.414 277.459Z" fill="white" stroke="#1D4ED8" stroke-width="8" stroke-linejoin="round"/>
<path d="M258.785 256.545L220.544 231.051C209.984 224.011 192.883 224.04 182.347 231.116L77.4267 301.585C66.8911 308.662 66.9107 320.105 77.4706 327.145L201.753 410C212.313 417.04 229.414 417.011 239.95 409.934L268.565 390.716L263.785 387.529C250.585 378.729 250.56 364.425 263.73 355.579C276.899 346.734 298.276 346.697 311.476 355.497L316.256 358.684L344.871 339.465C355.406 332.389 355.387 320.946 344.827 313.906L306.586 288.412L311.355 285.209C324.525 276.364 324.5 262.059 311.3 253.259C298.1 244.46 276.724 244.496 263.554 253.341L258.785 256.545Z" fill="white" stroke="#1D4ED8" stroke-width="8" stroke-linejoin="round"/>
<path d="M258.785 269.967L220.544 244.474C209.984 237.434 192.883 237.463 182.347 244.539L77.4267 315.008C66.8911 322.084 66.9107 333.528 77.4706 340.568L201.753 423.423C212.313 430.463 229.414 430.433 239.95 423.357L268.565 404.138L263.785 400.952C250.585 392.152 250.56 377.848 263.73 369.002C276.899 360.157 298.276 360.12 311.476 368.92L316.256 372.107L344.871 352.888C355.406 345.812 355.387 334.369 344.827 327.329L306.586 301.835L311.355 298.632C324.525 289.786 324.5 275.482 311.3 266.682C298.1 257.882 276.724 257.919 263.554 266.764L258.785 269.967Z" fill="white" stroke="#1D4ED8" stroke-width="8" stroke-linejoin="round"/>
<path d="M258.785 267.73L220.544 242.236C209.984 235.196 192.883 235.226 182.347 242.302L77.4267 312.771C66.8911 319.847 66.9107 331.291 77.4706 338.331L201.753 421.186C212.313 428.225 229.414 428.196 239.95 421.12L268.565 401.901L263.785 398.714C250.585 389.914 250.56 375.61 263.73 366.765C276.899 357.92 298.276 357.883 311.476 366.683L316.256 369.87L344.871 350.651C355.406 343.575 355.387 332.131 344.827 325.091L306.586 299.597L311.355 296.394C324.525 287.549 324.5 273.245 311.3 264.445C298.1 255.645 276.724 255.682 263.554 264.527L258.785 267.73Z" fill="white" stroke="#1D4ED8" stroke-width="8" stroke-linejoin="round"/>
<path d="M258.785 265.493L220.544 239.999C209.984 232.959 192.883 232.988 182.347 240.065L77.4267 310.534C66.8911 317.61 66.9107 329.053 77.4706 336.093L201.753 418.948C212.313 425.988 229.414 425.959 239.95 418.883L268.565 399.664L263.785 396.477C250.585 387.677 250.56 373.373 263.73 364.528C276.899 355.682 298.276 355.646 311.476 364.446L316.256 367.632L344.871 348.414C355.406 341.337 355.387 329.894 344.827 322.854L306.586 297.36L311.355 294.157C324.525 285.312 324.5 271.008 311.3 262.208C298.1 253.408 276.724 253.444 263.554 262.29L258.785 265.493Z" fill="white" stroke="#1D4ED8" stroke-width="8" stroke-linejoin="round"/>
<path d="M258.785 263.256L220.544 237.762C209.984 230.722 192.883 230.752 182.347 237.828L77.4267 308.297C66.8911 315.373 66.9107 326.816 77.4706 333.856L201.753 416.711C212.313 423.751 229.414 423.722 239.95 416.646L268.565 397.427L263.785 394.24C250.585 385.44 250.56 371.136 263.73 362.291C276.899 353.446 298.276 353.409 311.476 362.209L316.256 365.396L344.871 346.177C355.406 339.101 355.387 327.657 344.827 320.617L306.586 295.123L311.355 291.92C324.525 283.075 324.5 268.771 311.3 259.971C298.1 251.171 276.724 251.208 263.554 260.053L258.785 263.256Z" fill="white" stroke="#1D4ED8" stroke-width="8" stroke-linejoin="round"/>
<path d="M258.785 261.019L220.544 235.525C209.984 228.485 192.883 228.515 182.347 235.591L77.4267 306.06C66.8911 313.136 66.9107 324.58 77.4706 331.62L201.753 414.475C212.313 421.515 229.414 421.485 239.95 414.409L268.565 395.19L263.785 392.003C250.585 383.204 250.56 368.899 263.73 360.054C276.899 351.209 298.276 351.172 311.476 359.972L316.256 363.159L344.871 343.94C355.406 336.864 355.387 325.42 344.827 318.38L306.586 292.887L311.355 289.683C324.525 280.838 324.5 266.534 311.3 257.734C298.1 248.934 276.724 248.971 263.554 257.816L258.785 261.019Z" fill="white" stroke="#1D4ED8" stroke-width="8" stroke-linejoin="round"/>
<path d="M258.785 258.782L220.544 233.288C209.984 226.248 192.883 226.277 182.347 233.354L77.4267 303.823C66.8911 310.899 66.9107 322.342 77.4706 329.382L201.753 412.237C212.313 419.277 229.414 419.248 239.95 412.172L268.565 392.953L263.785 389.766C250.585 380.966 250.56 366.662 263.73 357.817C276.899 348.972 298.276 348.935 311.476 357.735L316.256 360.921L344.871 341.703C355.406 334.626 355.387 323.183 344.827 316.143L306.586 290.649L311.355 287.446C324.525 278.601 324.5 264.297 311.3 255.497C298.1 246.697 276.724 246.734 263.554 255.579L258.785 258.782Z" fill="white" stroke="#1D4ED8" stroke-width="8" stroke-linejoin="round"/>
<path d="M258.785 254.308L220.544 228.814C209.984 221.774 192.883 221.803 182.347 228.88L77.4267 299.349C66.8911 306.425 66.9107 317.868 77.4706 324.908L201.753 407.763C212.313 414.803 229.414 414.774 239.95 407.698L268.565 388.479L263.785 385.292C250.585 376.492 250.56 362.188 263.73 353.343C276.899 344.497 298.276 344.461 311.476 353.261L316.256 356.447L344.871 337.228C355.406 330.152 355.387 318.709 344.827 311.669L306.586 286.175L311.355 282.972C324.525 274.127 324.5 259.823 311.3 251.023C298.1 242.223 276.724 242.259 263.554 251.105L258.785 254.308Z" fill="white" stroke="#1D4ED8" stroke-width="8" stroke-linejoin="round"/>
<path d="M258.785 252.071L220.544 226.577C209.984 219.537 192.883 219.567 182.347 226.643L77.4267 297.112C66.8911 304.188 66.9107 315.631 77.4706 322.671L201.753 405.526C212.313 412.566 229.414 412.537 239.95 405.461L268.565 386.242L263.785 383.055C250.585 374.255 250.56 359.951 263.73 351.106C276.899 342.261 298.276 342.224 311.476 351.024L316.256 354.211L344.871 334.992C355.406 327.915 355.387 316.472 344.827 309.432L306.586 283.938L311.355 280.735C324.525 271.89 324.5 257.586 311.3 248.786C298.1 239.986 276.724 240.023 263.554 248.868L258.785 252.071Z" fill="white" stroke="#1D4ED8" stroke-width="8" stroke-linejoin="round"/>
<path d="M258.785 249.834L220.544 224.34C209.984 217.3 192.883 217.329 182.347 224.405L77.4267 294.875C66.8911 301.951 66.9107 313.394 77.4706 320.434L201.753 403.289C212.313 410.329 229.414 410.3 239.95 403.223L268.565 384.005L263.785 380.818C250.585 372.018 250.56 357.714 263.73 348.869C276.899 340.023 298.276 339.987 311.476 348.786L316.256 351.973L344.871 332.754C355.406 325.678 355.387 314.235 344.827 307.195L306.586 281.701L311.355 278.498C324.525 269.653 324.5 255.348 311.3 246.548C298.1 237.749 276.724 237.785 263.554 246.631L258.785 249.834Z" fill="white" stroke="#1D4ED8" stroke-width="8" stroke-linejoin="round"/>
<path d="M258.785 247.596L220.544 222.102C209.984 215.063 192.883 215.092 182.347 222.168L77.4267 292.637C66.8911 299.713 66.9107 311.157 77.4706 318.197L201.753 401.052C212.313 408.092 229.414 408.062 239.95 400.986L268.565 381.767L263.785 378.581C250.585 369.781 250.56 355.476 263.73 346.631C276.899 337.786 298.276 337.749 311.476 346.549L316.256 349.736L344.871 330.517C355.406 323.441 355.387 311.997 344.827 304.958L306.586 279.464L311.355 276.261C324.525 267.415 324.5 253.111 311.3 244.311C298.1 235.511 276.724 235.548 263.554 244.393L258.785 247.596Z" fill="white" stroke="#1D4ED8" stroke-width="8" stroke-linejoin="round"/>
<path d="M258.785 245.36L220.544 219.866C209.984 212.826 192.883 212.855 182.347 219.931L77.4267 290.4C66.8911 297.477 66.9107 308.92 77.4706 315.96L201.753 398.815C212.313 405.855 229.414 405.826 239.95 398.749L268.565 379.53L263.785 376.344C250.585 367.544 250.56 353.24 263.73 344.394C276.899 335.549 298.276 335.512 311.476 344.312L316.256 347.499L344.871 328.28C355.406 321.204 355.387 309.761 344.827 302.721L306.586 277.227L311.355 274.024C324.525 265.179 324.5 250.874 311.3 242.074C298.1 233.274 276.724 233.311 263.554 242.156L258.785 245.36Z" fill="white" stroke="#1D4ED8" stroke-width="8" stroke-linejoin="round"/>
<path d="M258.785 243.123L220.544 217.629C209.984 210.589 192.883 210.618 182.347 217.694L77.4267 288.164C66.8911 295.24 66.9107 306.683 77.4706 313.723L201.753 396.578C212.313 403.618 229.414 403.589 239.95 396.513L268.565 377.294L263.785 374.107C250.585 365.307 250.56 351.003 263.73 342.158C276.899 333.312 298.276 333.276 311.476 342.076L316.256 345.262L344.871 326.043C355.406 318.967 355.387 307.524 344.827 300.484L306.586 274.99L311.355 271.787C324.525 262.942 324.5 248.637 311.3 239.838C298.1 231.038 276.724 231.074 263.554 239.92L258.785 243.123Z" fill="white" stroke="#1D4ED8" stroke-width="8" stroke-linejoin="round"/>
<path d="M258.785 240.885L220.544 215.392C209.984 208.352 192.883 208.381 182.347 215.457L77.4267 285.926C66.8911 293.002 66.9107 304.446 77.4706 311.486L201.753 394.341C212.313 401.381 229.414 401.351 239.95 394.275L268.565 375.056L263.785 371.87C250.585 363.07 250.56 348.765 263.73 339.92C276.899 331.075 298.276 331.038 311.476 339.838L316.256 343.025L344.871 323.806C355.406 316.73 355.387 305.287 344.827 298.247L306.586 272.753L311.355 269.55C324.525 260.704 324.5 246.4 311.3 237.6C298.1 228.8 276.724 228.837 263.554 237.682L258.785 240.885Z" fill="white" stroke="#1D4ED8" stroke-width="8" stroke-linejoin="round"/>
<path d="M258.785 238.648L220.544 213.154C209.984 206.114 192.883 206.144 182.347 213.22L77.4267 283.689C66.8911 290.765 66.9107 302.209 77.4706 309.248L201.753 392.104C212.313 399.143 229.414 399.114 239.95 392.038L268.565 372.819L263.785 369.632C250.585 360.832 250.56 346.528 263.73 337.683C276.899 328.838 298.276 328.801 311.476 337.601L316.256 340.788L344.871 321.569C355.406 314.493 355.387 303.049 344.827 296.009L306.586 270.515L311.355 267.312C324.525 258.467 324.5 244.163 311.3 235.363C298.1 226.563 276.724 226.6 263.554 235.445L258.785 238.648Z" fill="white" stroke="#1D4ED8" stroke-width="8" stroke-linejoin="round"/>
<path d="M258.785 236.411L220.544 210.917C209.984 203.878 192.883 203.907 182.347 210.983L77.4267 281.452C66.8911 288.528 66.9107 299.972 77.4706 307.012L201.753 389.867C212.313 396.907 229.414 396.877 239.95 389.801L268.565 370.582L263.785 367.396C250.585 358.596 250.56 344.291 263.73 335.446C276.899 326.601 298.276 326.564 311.476 335.364L316.256 338.551L344.871 319.332C355.406 312.256 355.387 300.812 344.827 293.772L306.586 268.279L311.355 265.075C324.525 256.23 324.5 241.926 311.3 233.126C298.1 224.326 276.724 224.363 263.554 233.208L258.785 236.411Z" fill="white" stroke="#1D4ED8" stroke-width="8" stroke-linejoin="round"/>
<rect x="6.64876" y="0.0114241" width="392" height="392" rx="41" transform="matrix(0.83205 -0.5547 0.830139 0.557556 170.183 587.766)" fill="white" stroke="#2563EB" stroke-width="8"/>
<rect x="6.64876" y="0.0114241" width="392" height="392" rx="41" transform="matrix(0.83205 -0.5547 0.830139 0.557556 170.183 590.557)" fill="white" stroke="#2563EB" stroke-width="8"/>
<rect x="6.64876" y="0.0114241" width="392" height="392" rx="41" transform="matrix(0.83205 -0.5547 0.830139 0.557556 170.183 596.138)" fill="white" stroke="#2563EB" stroke-width="8"/>
<rect x="6.64876" y="0.0114241" width="392" height="392" rx="41" transform="matrix(0.83205 -0.5547 0.830139 0.557556 170.183 601.72)" fill="white" stroke="#2563EB" stroke-width="8"/>
<rect x="6.64876" y="0.0114241" width="392" height="392" rx="41" transform="matrix(0.83205 -0.5547 0.830139 0.557556 170.183 598.929)" fill="white" stroke="#2563EB" stroke-width="8"/>
<rect x="6.64876" y="0.0114241" width="392" height="392" rx="41" transform="matrix(0.83205 -0.5547 0.830139 0.557556 170.183 593.348)" fill="white" stroke="#2563EB" stroke-width="8"/>
<rect x="6.64876" y="0.0114241" width="392" height="392" rx="41" transform="matrix(0.83205 -0.5547 0.830139 0.557556 170.183 587.766)" fill="white" stroke="#2563EB" stroke-width="8"/>
<g clip-path="url(#clip0_1200_1763)">
<path d="M538.406 637.957L464.622 531.331M526.13 526.988L577.756 525.363C584.882 525.139 590.75 529.08 590.388 533.847L587.768 568.387M476.897 642.3L425.272 643.925C418.146 644.149 412.278 640.209 412.64 635.441L415.26 600.902" stroke="#1D4ED8" stroke-width="10.2637" stroke-linecap="round" stroke-linejoin="round"/>
</g>
<rect x="6.64876" y="0.0114241" width="392" height="392" rx="41" transform="matrix(0.83205 -0.5547 0.830139 0.557556 170.183 582.206)" fill="white" stroke="#2563EB" stroke-width="8"/>
<g clip-path="url(#clip1_1200_1763)">
<path d="M538.406 632.397L464.622 525.771M526.13 521.428L577.756 519.803C584.882 519.579 590.75 523.52 590.388 528.287L587.768 562.826M476.897 636.74L425.272 638.365C418.146 638.589 412.278 634.649 412.64 629.881L415.26 595.342" stroke="#1D4ED8" stroke-width="10.2637" stroke-linecap="round" stroke-linejoin="round"/>
</g>
<rect x="6.64876" y="0.0114241" width="392" height="392" rx="41" transform="matrix(0.83205 -0.5547 0.830139 0.557556 170.183 582.206)" fill="white" stroke="#2563EB" stroke-width="8"/>
<g clip-path="url(#clip2_1200_1763)">
<path d="M538.406 632.397L464.622 525.771M526.13 521.428L577.756 519.803C584.882 519.579 590.75 523.52 590.388 528.287L587.768 562.826M476.897 636.74L425.272 638.365C418.146 638.589 412.278 634.649 412.64 629.881L415.26 595.342" stroke="#1D4ED8" stroke-width="10.2637" stroke-linecap="round" stroke-linejoin="round"/>
</g>
<rect x="6.64876" y="0.0114241" width="392" height="392" rx="41" transform="matrix(0.83205 -0.5547 0.830139 0.557556 170.183 576.646)" fill="white" stroke="#2563EB" stroke-width="8"/>
<g clip-path="url(#clip3_1200_1763)">
<path d="M538.406 626.837L464.622 520.211M526.13 515.868L577.756 514.243C584.882 514.019 590.75 517.96 590.388 522.727L587.768 557.266M476.897 631.18L425.272 632.805C418.146 633.029 412.278 629.088 412.64 624.321L415.26 589.782" stroke="#1D4ED8" stroke-width="10.2637" stroke-linecap="round" stroke-linejoin="round"/>
</g>
<rect x="6.64876" y="0.0114241" width="392" height="392" rx="41" transform="matrix(0.83205 -0.5547 0.830139 0.557556 170.183 571.087)" fill="white" stroke="#2563EB" stroke-width="8"/>
<g clip-path="url(#clip4_1200_1763)">
<path d="M538.406 621.277L464.622 514.652M526.13 510.308L577.756 508.684C584.882 508.459 590.75 512.4 590.388 517.168L587.768 551.707M476.897 625.621L425.272 627.245C418.146 627.47 412.278 623.529 412.64 618.761L415.26 584.222" stroke="#1D4ED8" stroke-width="10.2637" stroke-linecap="round" stroke-linejoin="round"/>
</g>
<rect x="6.64876" y="0.0114241" width="392" height="392" rx="41" transform="matrix(0.83205 -0.5547 0.830139 0.557556 170.183 565.527)" fill="white" stroke="#2563EB" stroke-width="8"/>
<g clip-path="url(#clip5_1200_1763)">
<path d="M538.406 615.717L464.622 509.092M526.13 504.748L577.756 503.124C584.882 502.899 590.75 506.84 590.388 511.608L587.768 546.147M476.897 620.061L425.272 621.685C418.146 621.91 412.278 617.969 412.64 613.201L415.26 578.662" stroke="#1D4ED8" stroke-width="10.2637" stroke-linecap="round" stroke-linejoin="round"/>
</g>
<rect x="6.64876" y="0.0114241" width="392" height="392" rx="41" transform="matrix(0.83205 -0.5547 0.830139 0.557556 170.183 559.967)" fill="white" stroke="#2563EB" stroke-width="8"/>
<g clip-path="url(#clip6_1200_1763)">
<path d="M538.406 610.158L464.622 503.532M526.13 499.189L577.756 497.564C584.882 497.34 590.75 501.281 590.388 506.048L587.768 540.587M476.897 614.501L425.272 616.126C418.146 616.35 412.278 612.409 412.64 607.642L415.26 573.102" stroke="#1D4ED8" stroke-width="10.2637" stroke-linecap="round" stroke-linejoin="round"/>
</g>
<rect x="6.64876" y="0.0114241" width="392" height="392" rx="41" transform="matrix(0.83205 -0.5547 0.830139 0.557556 170.183 554.407)" fill="white" stroke="#2563EB" stroke-width="8"/>
<g clip-path="url(#clip7_1200_1763)">
<path d="M538.406 604.598L464.622 497.972M526.13 493.629L577.756 492.004C584.882 491.78 590.75 495.721 590.388 500.488L587.768 535.028M476.897 608.941L425.272 610.566C418.146 610.79 412.278 606.85 412.64 602.082L415.26 567.543" stroke="#1D4ED8" stroke-width="10.2637" stroke-linecap="round" stroke-linejoin="round"/>
</g>
<rect x="6.64876" y="0.0114241" width="392" height="392" rx="41" transform="matrix(0.83205 -0.5547 0.830139 0.557556 170.183 548.847)" fill="white" stroke="#2563EB" stroke-width="8"/>
<g clip-path="url(#clip8_1200_1763)">
<path d="M538.406 599.038L464.622 492.412M526.13 488.069L577.756 486.444C584.882 486.22 590.75 490.161 590.388 494.928L587.768 529.468M476.897 603.381L425.272 605.006C418.146 605.23 412.278 601.29 412.64 596.522L415.26 561.983" stroke="#1D4ED8" stroke-width="10.2637" stroke-linecap="round" stroke-linejoin="round"/>
</g>
<rect x="6.64876" y="0.0114241" width="392" height="392" rx="41" transform="matrix(0.83205 -0.5547 0.830139 0.557556 170.183 543.288)" fill="white" stroke="#2563EB" stroke-width="8"/>
<g clip-path="url(#clip9_1200_1763)">
<path d="M538.406 593.478L464.622 486.853M526.13 482.509L577.756 480.885C584.882 480.661 590.75 484.601 590.388 489.369L587.768 523.908M476.897 597.822L425.272 599.447C418.146 599.671 412.278 595.73 412.64 590.963L415.26 556.423" stroke="#1D4ED8" stroke-width="10.2637" stroke-linecap="round" stroke-linejoin="round"/>
</g>
<rect x="6.64876" y="0.0114241" width="392" height="392" rx="41" transform="matrix(0.83205 -0.5547 0.830139 0.557556 170.183 537.728)" fill="white" stroke="#2563EB" stroke-width="8"/>
<g clip-path="url(#clip10_1200_1763)">
<path d="M538.406 587.918L464.622 481.293M526.13 476.949L577.756 475.325C584.882 475.101 590.75 479.041 590.388 483.809L587.768 518.348M476.897 592.262L425.272 593.886C418.146 594.111 412.278 590.17 412.64 585.403L415.26 550.863" stroke="#1D4ED8" stroke-width="10.2637" stroke-linecap="round" stroke-linejoin="round"/>
</g>
<rect x="6.64876" y="0.0114241" width="392" height="392" rx="41" transform="matrix(0.83205 -0.5547 0.830139 0.557556 170.183 532.168)" fill="white" stroke="#2563EB" stroke-width="8"/>
<g clip-path="url(#clip11_1200_1763)">
<path d="M538.406 582.359L464.622 475.733M526.13 471.39L577.756 469.765C584.882 469.541 590.75 473.482 590.388 478.249L587.768 512.788M476.897 586.702L425.272 588.327C418.146 588.551 412.278 584.61 412.64 579.843L415.26 545.304" stroke="#1D4ED8" stroke-width="10.2637" stroke-linecap="round" stroke-linejoin="round"/>
</g>
<rect x="6.64876" y="0.0114241" width="392" height="392" rx="41" transform="matrix(0.83205 -0.5547 0.830139 0.557556 170.183 526.608)" fill="white" stroke="#2563EB" stroke-width="8"/>
<g clip-path="url(#clip12_1200_1763)">
<path d="M538.406 576.799L464.622 470.173M526.13 465.83L577.756 464.205C584.882 463.981 590.75 467.922 590.388 472.689L587.768 507.228M476.897 581.142L425.272 582.767C418.146 582.991 412.278 579.05 412.64 574.283L415.26 539.744" stroke="#1D4ED8" stroke-width="10.2637" stroke-linecap="round" stroke-linejoin="round"/>
</g>
<path d="M882.313 438.458L867.502 428.584C863.412 425.858 856.789 425.869 852.708 428.61L812.072 455.903C807.991 458.644 807.999 463.076 812.089 465.803L860.224 497.893C864.314 500.62 870.938 500.608 875.019 497.868L886.101 490.424L884.25 489.19C879.137 485.782 879.128 480.241 884.229 476.816C889.329 473.39 897.609 473.375 902.721 476.784L904.573 478.018L915.655 470.574C919.736 467.834 919.728 463.402 915.638 460.675L900.827 450.801L902.674 449.56C907.775 446.134 907.766 440.594 902.653 437.186C897.541 433.778 889.261 433.792 884.161 437.218L882.313 438.458Z" fill="white" stroke="#1D4ED8" stroke-width="3.09848" stroke-linejoin="round"/>
<path d="M882.313 443.657L867.502 433.783C863.412 431.056 856.789 431.068 852.708 433.808L812.072 461.102C807.991 463.843 807.999 468.275 812.089 471.001L860.224 503.092C864.314 505.819 870.938 505.807 875.019 503.067L886.101 495.623L884.25 494.389C879.137 490.98 879.128 485.44 884.229 482.014C889.329 478.588 897.609 478.574 902.721 481.983L904.573 483.217L915.655 475.773C919.736 473.032 919.728 468.6 915.638 465.874L900.827 456L902.674 454.759C907.775 451.333 907.766 445.793 902.653 442.385C897.541 438.976 889.261 438.991 884.161 442.416L882.313 443.657Z" fill="white" stroke="#1D4ED8" stroke-width="3.09848" stroke-linejoin="round"/>
<path d="M882.313 445.657L867.502 435.783C863.412 433.056 856.789 433.068 852.708 435.808L812.072 463.102C807.991 465.843 807.999 470.275 812.089 473.001L860.224 505.092C864.314 507.819 870.938 507.807 875.019 505.067L886.101 497.623L884.25 496.389C879.137 492.98 879.128 487.44 884.229 484.014C889.329 480.588 897.609 480.574 902.721 483.983L904.573 485.217L915.655 477.773C919.736 475.032 919.728 470.6 915.638 467.874L900.827 458L902.674 456.759C907.775 453.333 907.766 447.793 902.653 444.385C897.541 440.976 889.261 440.991 884.161 444.416L882.313 445.657Z" fill="white" stroke="#1D4ED8" stroke-width="3.09848" stroke-linejoin="round"/>
<path d="M882.313 447.657L867.502 437.783C863.412 435.056 856.789 435.068 852.708 437.808L812.072 465.102C807.991 467.843 807.999 472.275 812.089 475.001L860.224 507.092C864.314 509.819 870.938 509.807 875.019 507.067L886.101 499.623L884.25 498.389C879.137 494.98 879.128 489.44 884.229 486.014C889.329 482.588 897.609 482.574 902.721 485.983L904.573 487.217L915.655 479.773C919.736 477.032 919.728 472.6 915.638 469.874L900.827 460L902.674 458.759C907.775 455.333 907.766 449.793 902.653 446.385C897.541 442.976 889.261 442.991 884.161 446.416L882.313 447.657Z" fill="white" stroke="#1D4ED8" stroke-width="3.09848" stroke-linejoin="round"/>
<path d="M882.313 449.657L867.502 439.783C863.412 437.056 856.789 437.068 852.708 439.808L812.072 467.102C807.991 469.843 807.999 474.275 812.089 477.001L860.224 509.092C864.314 511.819 870.938 511.807 875.019 509.067L886.101 501.623L884.25 500.389C879.137 496.98 879.128 491.44 884.229 488.014C889.329 484.588 897.609 484.574 902.721 487.983L904.573 489.217L915.655 481.773C919.736 479.032 919.728 474.6 915.638 471.874L900.827 462L902.674 460.759C907.775 457.333 907.766 451.793 902.653 448.385C897.541 444.976 889.261 444.991 884.161 448.416L882.313 449.657Z" fill="white" stroke="#1D4ED8" stroke-width="3.09848" stroke-linejoin="round"/>
<path d="M882.313 448.657L867.502 438.783C863.412 436.056 856.789 436.068 852.708 438.808L812.072 466.102C807.991 468.843 807.999 473.275 812.089 476.001L860.224 508.092C864.314 510.819 870.938 510.807 875.019 508.067L886.101 500.623L884.25 499.389C879.137 495.98 879.128 490.44 884.229 487.014C889.329 483.588 897.609 483.574 902.721 486.983L904.573 488.217L915.655 480.773C919.736 478.032 919.728 473.6 915.638 470.874L900.827 461L902.674 459.759C907.775 456.333 907.766 450.793 902.653 447.385C897.541 443.976 889.261 443.991 884.161 447.416L882.313 448.657Z" fill="white" stroke="#1D4ED8" stroke-width="3.09848" stroke-linejoin="round"/>
<path d="M882.313 446.657L867.502 436.783C863.412 434.056 856.789 434.068 852.708 436.808L812.072 464.102C807.991 466.843 807.999 471.275 812.089 474.001L860.224 506.092C864.314 508.819 870.938 508.807 875.019 506.067L886.101 498.623L884.25 497.389C879.137 493.98 879.128 488.44 884.229 485.014C889.329 481.588 897.609 481.574 902.721 484.983L904.573 486.217L915.655 478.773C919.736 476.032 919.728 471.6 915.638 468.874L900.827 459L902.674 457.759C907.775 454.333 907.766 448.793 902.653 445.385C897.541 441.976 889.261 441.991 884.161 445.416L882.313 446.657Z" fill="white" stroke="#1D4ED8" stroke-width="3.09848" stroke-linejoin="round"/>
<path d="M882.313 444.657L867.502 434.783C863.412 432.056 856.789 432.068 852.708 434.808L812.072 462.102C807.991 464.843 807.999 469.275 812.089 472.001L860.224 504.092C864.314 506.819 870.938 506.807 875.019 504.067L886.101 496.623L884.25 495.389C879.137 491.98 879.128 486.44 884.229 483.014C889.329 479.588 897.609 479.574 902.721 482.983L904.573 484.217L915.655 476.773C919.736 474.032 919.728 469.6 915.638 466.874L900.827 457L902.674 455.759C907.775 452.333 907.766 446.793 902.653 443.385C897.541 439.976 889.261 439.991 884.161 443.416L882.313 444.657Z" fill="white" stroke="#1D4ED8" stroke-width="3.09848" stroke-linejoin="round"/>
<path d="M882.313 442.79L867.502 432.916C863.412 430.19 856.789 430.201 852.708 432.942L812.072 460.235C807.991 462.976 807.999 467.408 812.089 470.135L860.224 502.225C864.314 504.952 870.938 504.94 875.019 502.2L886.101 494.756L884.25 493.522C879.137 490.114 879.128 484.573 884.229 481.148C889.329 477.722 897.609 477.708 902.721 481.116L904.573 482.35L915.655 474.906C919.736 472.166 919.728 467.734 915.638 465.007L900.827 455.133L902.674 453.892C907.775 450.466 907.766 444.926 902.653 441.518C897.541 438.11 889.261 438.124 884.161 441.55L882.313 442.79Z" fill="white" stroke="#1D4ED8" stroke-width="3.09848" stroke-linejoin="round"/>
<path d="M882.313 441.924L867.502 432.05C863.412 429.323 856.789 429.335 852.708 432.076L812.072 459.369C807.991 462.11 807.999 466.542 812.089 469.268L860.224 501.359C864.314 504.086 870.938 504.074 875.019 501.334L886.101 493.89L884.25 492.656C879.137 489.247 879.128 483.707 884.229 480.281C889.329 476.856 897.609 476.841 902.721 480.25L904.573 481.484L915.655 474.04C919.736 471.3 919.728 466.867 915.638 464.141L900.827 454.267L902.674 453.026C907.775 449.6 907.766 444.06 902.653 440.652C897.541 437.243 889.261 437.258 884.161 440.684L882.313 441.924Z" fill="white" stroke="#1D4ED8" stroke-width="3.09848" stroke-linejoin="round"/>
<path d="M882.313 441.058L867.502 431.184C863.412 428.457 856.789 428.469 852.708 431.209L812.072 458.503C807.991 461.243 807.999 465.676 812.089 468.402L860.224 500.493C864.314 503.219 870.938 503.208 875.019 500.467L886.101 493.024L884.25 491.789C879.137 488.381 879.128 482.841 884.229 479.415C889.329 475.989 897.609 475.975 902.721 479.383L904.573 480.618L915.655 473.174C919.736 470.433 919.728 466.001 915.638 463.275L900.827 453.4L902.674 452.16C907.775 448.734 907.766 443.194 902.653 439.786C897.541 436.377 889.261 436.391 884.161 439.817L882.313 441.058Z" fill="white" stroke="#1D4ED8" stroke-width="3.09848" stroke-linejoin="round"/>
<path d="M882.313 440.191L867.502 430.317C863.412 427.591 856.789 427.602 852.708 430.343L812.072 457.636C807.991 460.377 807.999 464.809 812.089 467.535L860.224 499.626C864.314 502.353 870.938 502.341 875.019 499.601L886.101 492.157L884.25 490.923C879.137 487.514 879.128 481.974 884.229 478.548C889.329 475.123 897.609 475.108 902.721 478.517L904.573 479.751L915.655 472.307C919.736 469.567 919.728 465.134 915.638 462.408L900.827 452.534L902.674 451.293C907.775 447.867 907.766 442.327 902.653 438.919C897.541 435.511 889.261 435.525 884.161 438.951L882.313 440.191Z" fill="white" stroke="#1D4ED8" stroke-width="3.09848" stroke-linejoin="round"/>
<path d="M882.313 439.325L867.502 429.451C863.412 426.724 856.789 426.736 852.708 429.476L812.072 456.77C807.991 459.511 807.999 463.943 812.089 466.669L860.224 498.76C864.314 501.487 870.938 501.475 875.019 498.734L886.101 491.291L884.25 490.057C879.137 486.648 879.128 481.108 884.229 477.682C889.329 474.256 897.609 474.242 902.721 477.65L904.573 478.885L915.655 471.441C919.736 468.7 919.728 464.268 915.638 461.542L900.827 451.668L902.674 450.427C907.775 447.001 907.766 441.461 902.653 438.053C897.541 434.644 889.261 434.659 884.161 438.084L882.313 439.325Z" fill="white" stroke="#1D4ED8" stroke-width="3.09848" stroke-linejoin="round"/>
<path d="M882.313 437.592L867.502 427.718C863.412 424.991 856.789 425.003 852.708 427.743L812.072 455.037C807.991 457.778 807.999 462.21 812.089 464.936L860.224 497.027C864.314 499.754 870.938 499.742 875.019 497.002L886.101 489.558L884.25 488.324C879.137 484.915 879.128 479.375 884.229 475.949C889.329 472.523 897.609 472.509 902.721 475.918L904.573 477.152L915.655 469.708C919.736 466.967 919.728 462.535 915.638 459.809L900.827 449.935L902.674 448.694C907.775 445.268 907.766 439.728 902.653 436.32C897.541 432.911 889.261 432.926 884.161 436.352L882.313 437.592Z" fill="white" stroke="#1D4ED8" stroke-width="3.09848" stroke-linejoin="round"/>
<path d="M882.313 436.725L867.502 426.851C863.412 424.125 856.789 424.136 852.708 426.877L812.072 454.17C807.991 456.911 807.999 461.343 812.089 464.07L860.224 496.16C864.314 498.887 870.938 498.876 875.019 496.135L886.101 488.691L884.25 487.457C879.137 484.049 879.128 478.508 884.229 475.083C889.329 471.657 897.609 471.643 902.721 475.051L904.573 476.285L915.655 468.841C919.736 466.101 919.728 461.669 915.638 458.942L900.827 449.068L902.674 447.827C907.775 444.402 907.766 438.861 902.653 435.453C897.541 432.045 889.261 432.059 884.161 435.485L882.313 436.725Z" fill="white" stroke="#1D4ED8" stroke-width="3.09848" stroke-linejoin="round"/>
<path d="M882.313 435.859L867.502 425.985C863.412 423.259 856.789 423.27 852.708 426.011L812.072 453.304C807.991 456.045 807.999 460.477 812.089 463.203L860.224 495.294C864.314 498.021 870.938 498.009 875.019 495.269L886.101 487.825L884.25 486.591C879.137 483.182 879.128 477.642 884.229 474.216C889.329 470.791 897.609 470.776 902.721 474.185L904.573 475.419L915.655 467.975C919.736 465.235 919.728 460.802 915.638 458.076L900.827 448.202L902.674 446.961C907.775 443.535 907.766 437.995 902.653 434.587C897.541 431.179 889.261 431.193 884.161 434.619L882.313 435.859Z" fill="white" stroke="#1D4ED8" stroke-width="3.09848" stroke-linejoin="round"/>
<path d="M882.313 434.993L867.502 425.118C863.412 422.392 856.789 422.403 852.708 425.144L812.072 452.437C807.991 455.178 807.999 459.61 812.089 462.337L860.224 494.427C864.314 497.154 870.938 497.143 875.019 494.402L886.101 486.958L884.25 485.724C879.137 482.316 879.128 476.776 884.229 473.35C889.329 469.924 897.609 469.91 902.721 473.318L904.573 474.552L915.655 467.109C919.736 464.368 919.728 459.936 915.638 457.209L900.827 447.335L902.674 446.094C907.775 442.669 907.766 437.128 902.653 433.72C897.541 430.312 889.261 430.326 884.161 433.752L882.313 434.993Z" fill="white" stroke="#1D4ED8" stroke-width="3.09848" stroke-linejoin="round"/>
<path d="M882.313 434.126L867.502 424.252C863.412 421.526 856.789 421.537 852.708 424.278L812.072 451.571C807.991 454.312 807.999 458.744 812.089 461.471L860.224 493.561C864.314 496.288 870.938 496.276 875.019 493.536L886.101 486.092L884.25 484.858C879.137 481.45 879.128 475.909 884.229 472.484C889.329 469.058 897.609 469.043 902.721 472.452L904.573 473.686L915.655 466.242C919.736 463.502 919.728 459.07 915.638 456.343L900.827 446.469L902.674 445.228C907.775 441.802 907.766 436.262 902.653 432.854C897.541 429.446 889.261 429.46 884.161 432.886L882.313 434.126Z" fill="white" stroke="#1D4ED8" stroke-width="3.09848" stroke-linejoin="round"/>
<path d="M882.313 433.26L867.502 423.386C863.412 420.659 856.789 420.67 852.708 423.411L812.072 450.704C807.991 453.445 807.999 457.877 812.089 460.604L860.224 492.694C864.314 495.421 870.938 495.41 875.019 492.669L886.101 485.225L884.25 483.991C879.137 480.583 879.128 475.043 884.229 471.617C889.329 468.191 897.609 468.177 902.721 471.585L904.573 472.819L915.655 465.376C919.736 462.635 919.728 458.203 915.638 455.476L900.827 445.602L902.674 444.362C907.775 440.936 907.766 435.396 902.653 431.987C897.541 428.579 889.261 428.593 884.161 432.019L882.313 433.26Z" fill="white" stroke="#1D4ED8" stroke-width="3.09848" stroke-linejoin="round"/>
<path d="M882.313 432.393L867.502 422.519C863.412 419.793 856.789 419.804 852.708 422.545L812.072 449.838C807.991 452.579 807.999 457.011 812.089 459.738L860.224 491.828C864.314 494.555 870.938 494.544 875.019 491.803L886.101 484.359L884.25 483.125C879.137 479.717 879.128 474.176 884.229 470.751C889.329 467.325 897.609 467.311 902.721 470.719L904.573 471.953L915.655 464.509C919.736 461.769 919.728 457.337 915.638 454.61L900.827 444.736L902.674 443.495C907.775 440.069 907.766 434.529 902.653 431.121C897.541 427.713 889.261 427.727 884.161 431.153L882.313 432.393Z" fill="white" stroke="#1D4ED8" stroke-width="3.09848" stroke-linejoin="round"/>
<path d="M882.313 431.527L867.502 421.653C863.412 418.926 856.789 418.937 852.708 421.678L812.072 448.971C807.991 451.712 807.999 456.144 812.089 458.871L860.224 490.962C864.314 493.688 870.938 493.677 875.019 490.936L886.101 483.492L884.25 482.258C879.137 478.85 879.128 473.31 884.229 469.884C889.329 466.458 897.609 466.444 902.721 469.852L904.573 471.086L915.655 463.643C919.736 460.902 919.728 456.47 915.638 453.743L900.827 443.869L902.674 442.629C907.775 439.203 907.766 433.663 902.653 430.254C897.541 426.846 889.261 426.86 884.161 430.286L882.313 431.527Z" fill="white" stroke="#1D4ED8" stroke-width="3.09848" stroke-linejoin="round"/>
<path d="M882.313 430.66L867.502 420.786C863.412 418.06 856.789 418.071 852.708 420.812L812.072 448.105C807.991 450.846 807.999 455.278 812.089 458.005L860.224 490.095C864.314 492.822 870.938 492.811 875.019 490.07L886.101 482.626L884.25 481.392C879.137 477.984 879.128 472.444 884.229 469.018C889.329 465.592 897.609 465.578 902.721 468.986L904.573 470.22L915.655 462.777C919.736 460.036 919.728 455.604 915.638 452.877L900.827 443.003L902.674 441.762C907.775 438.337 907.766 432.796 902.653 429.388C897.541 425.98 889.261 425.994 884.161 429.42L882.313 430.66Z" fill="white" stroke="#1D4ED8" stroke-width="3.09848" stroke-linejoin="round"/>
<defs>
<clipPath id="clip0_1200_1763">
<rect width="246" height="198" fill="white" transform="matrix(0.83205 -0.5547 0.830139 0.557556 316.988 597.674)"/>
</clipPath>
<clipPath id="clip1_1200_1763">
<rect width="246" height="198" fill="white" transform="matrix(0.83205 -0.5547 0.830139 0.557556 316.988 592.114)"/>
</clipPath>
<clipPath id="clip2_1200_1763">
<rect width="246" height="198" fill="white" transform="matrix(0.83205 -0.5547 0.830139 0.557556 316.988 592.114)"/>
</clipPath>
<clipPath id="clip3_1200_1763">
<rect width="246" height="198" fill="white" transform="matrix(0.83205 -0.5547 0.830139 0.557556 316.988 586.554)"/>
</clipPath>
<clipPath id="clip4_1200_1763">
<rect width="246" height="198" fill="white" transform="matrix(0.83205 -0.5547 0.830139 0.557556 316.988 580.995)"/>
</clipPath>
<clipPath id="clip5_1200_1763">
<rect width="246" height="198" fill="white" transform="matrix(0.83205 -0.5547 0.830139 0.557556 316.988 575.435)"/>
</clipPath>
<clipPath id="clip6_1200_1763">
<rect width="246" height="198" fill="white" transform="matrix(0.83205 -0.5547 0.830139 0.557556 316.988 569.875)"/>
</clipPath>
<clipPath id="clip7_1200_1763">
<rect width="246" height="198" fill="white" transform="matrix(0.83205 -0.5547 0.830139 0.557556 316.988 564.315)"/>
</clipPath>
<clipPath id="clip8_1200_1763">
<rect width="246" height="198" fill="white" transform="matrix(0.83205 -0.5547 0.830139 0.557556 316.988 558.755)"/>
</clipPath>
<clipPath id="clip9_1200_1763">
<rect width="246" height="198" fill="white" transform="matrix(0.83205 -0.5547 0.830139 0.557556 316.988 553.196)"/>
</clipPath>
<clipPath id="clip10_1200_1763">
<rect width="246" height="198" fill="white" transform="matrix(0.83205 -0.5547 0.830139 0.557556 316.988 547.636)"/>
</clipPath>
<clipPath id="clip11_1200_1763">
<rect width="246" height="198" fill="white" transform="matrix(0.83205 -0.5547 0.830139 0.557556 316.988 542.076)"/>
</clipPath>
<clipPath id="clip12_1200_1763">
<rect width="246" height="198" fill="white" transform="matrix(0.83205 -0.5547 0.830139 0.557556 316.988 536.516)"/>
</clipPath>
</defs>
</svg>
