<svg width="1000" height="1000" viewBox="0 0 1000 1000" fill="none" xmlns="http://www.w3.org/2000/svg">
<path fill-rule="evenodd" clip-rule="evenodd" d="M276.79 651.789C276.629 654.31 276.631 656.773 276.79 659.18L276.79 748.519C276.79 748.519 300.411 840.872 505.122 845.25C690.697 849.22 723.33 751.893 723.33 751.893L723.33 651.789C723.33 748.521 539.991 757.517 505.122 757.517C465.793 757.517 282.158 740.54 276.79 659.18L276.79 651.789Z" fill="#1D4ED8"/>
<path d="M505.122 757.517C539.991 757.517 723.33 748.521 723.33 651.789C723.33 555.058 533.242 540.434 507.372 540.434C442.134 540.434 282.414 564.058 276.79 651.789L276.79 659.18C282.158 740.54 465.793 757.517 505.122 757.517Z" fill="white"/>
<path d="M723.33 651.789C723.33 748.521 539.991 757.517 505.122 757.517C465.793 757.517 282.158 740.54 276.79 659.18M276.79 659.18C276.631 656.773 276.629 654.31 276.79 651.789C282.414 564.058 442.134 540.434 507.372 540.434C533.242 540.434 723.33 555.058 723.33 651.789M723.33 651.789L723.33 751.893C723.33 751.893 690.697 849.22 505.122 845.25C300.411 840.872 276.79 748.519 276.79 748.519L276.79 659.18M276.79 651.789L276.79 659.18" stroke="#1D4ED8" stroke-width="6.74871" stroke-linejoin="round"/>
<path fill-rule="evenodd" clip-rule="evenodd" d="M276.79 456.076C276.629 458.597 276.631 461.06 276.79 463.467L276.79 552.806C276.79 552.806 300.411 645.159 505.122 649.538C690.697 653.507 723.33 556.18 723.33 556.18L723.33 456.076C723.33 552.808 539.991 561.804 505.122 561.804C465.793 561.804 282.158 544.827 276.79 463.467L276.79 456.076Z" fill="#1D4ED8"/>
<path d="M505.122 561.804C539.991 561.804 723.33 552.808 723.33 456.076C723.33 359.345 533.242 344.721 507.372 344.721C442.134 344.721 282.414 368.345 276.79 456.076L276.79 463.467C282.158 544.827 465.793 561.804 505.122 561.804Z" fill="white"/>
<path d="M723.33 456.076C723.33 552.808 539.991 561.804 505.122 561.804C465.793 561.804 282.158 544.827 276.79 463.467M276.79 463.467C276.631 461.06 276.629 458.597 276.79 456.076C282.414 368.345 442.134 344.721 507.372 344.721C533.242 344.721 723.33 359.345 723.33 456.076M723.33 456.076L723.33 556.18C723.33 556.18 690.697 653.507 505.122 649.538C300.411 645.159 276.79 552.806 276.79 552.806L276.79 463.467M276.79 456.076L276.79 463.467" stroke="#1D4ED8" stroke-width="6.74871" stroke-linejoin="round"/>
<path fill-rule="evenodd" clip-rule="evenodd" d="M276.79 265.987C276.629 268.508 276.631 270.971 276.79 273.378L276.79 362.717C276.79 362.717 300.411 455.07 505.122 459.449C690.697 463.418 723.33 366.092 723.33 366.092L723.33 265.987C723.33 362.719 539.991 371.715 505.122 371.715C465.793 371.715 282.158 354.738 276.79 273.378L276.79 265.987Z" fill="#1D4ED8"/>
<path d="M505.122 371.715C539.991 371.715 723.33 362.719 723.33 265.987C723.33 169.256 533.242 154.632 507.372 154.632C442.134 154.632 282.414 178.256 276.79 265.987L276.79 273.378C282.158 354.738 465.793 371.715 505.122 371.715Z" fill="white"/>
<path d="M723.33 265.987C723.33 362.719 539.991 371.715 505.122 371.715C465.793 371.715 282.158 354.738 276.79 273.378M276.79 273.378C276.631 270.971 276.629 268.508 276.79 265.987C282.414 178.256 442.134 154.632 507.372 154.632C533.242 154.632 723.33 169.256 723.33 265.987M723.33 265.987L723.33 366.092C723.33 366.092 690.697 463.418 505.122 459.449C300.411 455.07 276.79 362.717 276.79 362.717L276.79 273.378M276.79 265.987L276.79 273.378" stroke="#1D4ED8" stroke-width="6.74871" stroke-linejoin="round"/>
</svg>
