<svg width="1000" height="1000" viewBox="0 0 1000 1000" fill="none" xmlns="http://www.w3.org/2000/svg">
<path d="M627.434 150H379.667C379.667 150 345.641 153.608 321.935 175.258C298.23 196.907 294.272 220.962 294.272 220.962L228.121 647.938C228.121 647.938 221.162 676.656 224.511 706.873C226.73 726.895 233.476 747.575 249.771 760.997C279.968 785.869 318.327 788.66 318.327 788.66H695.99C695.99 788.66 741.695 783.849 763.344 745.361C774.052 726.324 776.339 696.129 776.398 674.399C776.44 659.059 775.372 647.938 775.372 647.938L711.626 231.787C711.626 231.787 704.41 197.218 680.355 175.258C656.3 153.298 627.434 150 627.434 150Z" fill="white"/>
<path d="M763.344 745.361C741.695 783.849 695.99 788.66 695.99 788.66H318.327C318.327 788.66 279.968 785.869 249.771 760.997C233.476 747.575 226.73 726.895 224.511 706.873V777.835C224.511 777.835 224.511 801.89 249.771 823.539C277.837 847.594 309.916 850 309.916 850H695.99C695.99 850 729.675 850 758.541 817.526C775.372 798.591 776.398 774.227 776.398 774.227V674.399C776.339 696.129 774.052 726.324 763.344 745.361Z" fill="#1D4ED8"/>
<path d="M776.399 674.399C776.44 659.059 775.372 647.938 775.372 647.938L711.626 231.787C711.626 231.787 704.41 197.218 680.355 175.258C656.3 153.298 627.434 150 627.434 150H379.667C379.667 150 345.641 153.608 321.935 175.258C298.23 196.907 294.272 220.962 294.272 220.962L228.121 647.938C228.121 647.938 221.162 676.656 224.511 706.873C226.73 726.895 233.476 747.575 249.771 760.997C279.968 785.869 318.327 788.66 318.327 788.66H695.99C695.99 788.66 741.695 783.849 763.344 745.361C774.052 726.324 776.339 696.129 776.399 674.399ZM224.511 706.873V777.835C224.511 777.835 224.511 801.89 249.771 823.539C277.837 847.594 309.916 850 309.916 850H695.99C695.99 850 729.675 850 758.541 817.526C775.372 798.591 776.399 774.227 776.399 774.227V674.399" stroke="#2563EB" stroke-width="10.8198" stroke-linejoin="round"/>
<rect x="441.008" y="184.88" width="120.275" height="19.244" rx="9.62199" fill="#DBEAFE"/>
<rect x="390.492" y="730.928" width="233.333" height="26.4605" rx="13.2302" fill="#2563EB"/>
</svg>
