<svg width="901" height="901" viewBox="0 0 901 901" fill="none" xmlns="http://www.w3.org/2000/svg">
<mask id="mask0_186_99" style="mask-type:alpha" maskUnits="userSpaceOnUse" x="0" y="0" width="901" height="901">
<circle cx="450.203" cy="450.203" r="450.203" fill="url(#paint0_radial_186_99)"/>
</mask>
<g mask="url(#mask0_186_99)">
<path d="M394.728 30.19C397.654 30.19 400.026 27.8182 400.026 24.8924C400.026 21.9666 397.654 19.5947 394.728 19.5947C391.803 19.5947 389.431 21.9666 389.431 24.8924C389.431 27.8182 391.803 30.19 394.728 30.19Z" fill="#2563EB"/>
<path d="M413.22 30.19C416.146 30.19 418.518 27.8182 418.518 24.8924C418.518 21.9666 416.146 19.5947 413.22 19.5947C410.294 19.5947 407.923 21.9666 407.923 24.8924C407.923 27.8182 410.294 30.19 413.22 30.19Z" fill="#2563EB"/>
<path d="M431.712 30.19C434.638 30.19 437.01 27.8182 437.01 24.8924C437.01 21.9666 434.638 19.5947 431.712 19.5947C428.786 19.5947 426.414 21.9666 426.414 24.8924C426.414 27.8182 428.786 30.19 431.712 30.19Z" fill="#2563EB"/>
<path d="M450.204 30.19C453.13 30.19 455.501 27.8182 455.501 24.8924C455.501 21.9666 453.13 19.5947 450.204 19.5947C447.278 19.5947 444.906 21.9666 444.906 24.8924C444.906 27.8182 447.278 30.19 450.204 30.19Z" fill="#2563EB"/>
<path d="M468.695 30.19C471.621 30.19 473.993 27.8182 473.993 24.8924C473.993 21.9666 471.621 19.5947 468.695 19.5947C465.77 19.5947 463.398 21.9666 463.398 24.8924C463.398 27.8182 465.77 30.19 468.695 30.19Z" fill="#2563EB"/>
<path d="M487.187 30.19C490.113 30.19 492.485 27.8182 492.485 24.8924C492.485 21.9666 490.113 19.5947 487.187 19.5947C484.261 19.5947 481.89 21.9666 481.89 24.8924C481.89 27.8182 484.261 30.19 487.187 30.19Z" fill="#2563EB"/>
<path d="M505.679 30.19C508.605 30.19 510.977 27.8182 510.977 24.8924C510.977 21.9666 508.605 19.5947 505.679 19.5947C502.753 19.5947 500.381 21.9666 500.381 24.8924C500.381 27.8182 502.753 30.19 505.679 30.19Z" fill="#2563EB"/>
<path d="M524.171 25.8645C524.708 25.8645 525.143 25.4295 525.143 24.8928C525.143 24.3561 524.708 23.9211 524.171 23.9211C523.635 23.9211 523.199 24.3561 523.199 24.8928C523.199 25.4295 523.635 25.8645 524.171 25.8645Z" fill="#2563EB"/>
<path d="M320.761 48.6818C323.687 48.6818 326.059 46.3099 326.059 43.3841C326.059 40.4583 323.687 38.0865 320.761 38.0865C317.836 38.0865 315.464 40.4583 315.464 43.3841C315.464 46.3099 317.836 48.6818 320.761 48.6818Z" fill="#2563EB"/>
<path d="M339.253 48.6818C342.179 48.6818 344.551 46.3099 344.551 43.3841C344.551 40.4583 342.179 38.0865 339.253 38.0865C336.327 38.0865 333.956 40.4583 333.956 43.3841C333.956 46.3099 336.327 48.6818 339.253 48.6818Z" fill="#2563EB"/>
<path d="M357.745 48.6818C360.671 48.6818 363.043 46.3099 363.043 43.3841C363.043 40.4583 360.671 38.0865 357.745 38.0865C354.819 38.0865 352.447 40.4583 352.447 43.3841C352.447 46.3099 354.819 48.6818 357.745 48.6818Z" fill="#2563EB"/>
<path d="M376.237 48.6818C379.163 48.6818 381.534 46.3099 381.534 43.3841C381.534 40.4583 379.163 38.0865 376.237 38.0865C373.311 38.0865 370.939 40.4583 370.939 43.3841C370.939 46.3099 373.311 48.6818 376.237 48.6818Z" fill="#2563EB"/>
<path d="M524.171 48.6818C527.097 48.6818 529.468 46.3099 529.468 43.3841C529.468 40.4583 527.097 38.0865 524.171 38.0865C521.245 38.0865 518.873 40.4583 518.873 43.3841C518.873 46.3099 521.245 48.6818 524.171 48.6818Z" fill="#2563EB"/>
<path d="M542.663 48.6818C545.588 48.6818 547.96 46.3099 547.96 43.3841C547.96 40.4583 545.588 38.0865 542.663 38.0865C539.737 38.0865 537.365 40.4583 537.365 43.3841C537.365 46.3099 539.737 48.6818 542.663 48.6818Z" fill="#2563EB"/>
<path d="M561.154 48.6818C564.08 48.6818 566.452 46.3099 566.452 43.3841C566.452 40.4583 564.08 38.0865 561.154 38.0865C558.229 38.0865 555.857 40.4583 555.857 43.3841C555.857 46.3099 558.229 48.6818 561.154 48.6818Z" fill="#2563EB"/>
<path d="M579.646 48.6818C582.572 48.6818 584.944 46.3099 584.944 43.3841C584.944 40.4583 582.572 38.0865 579.646 38.0865C576.72 38.0865 574.348 40.4583 574.348 43.3841C574.348 46.3099 576.72 48.6818 579.646 48.6818Z" fill="#2563EB"/>
<path d="M283.778 67.1735C286.704 67.1735 289.076 64.8017 289.076 61.8759C289.076 58.9501 286.704 56.5782 283.778 56.5782C280.852 56.5782 278.48 58.9501 278.48 61.8759C278.48 64.8017 280.852 67.1735 283.778 67.1735Z" fill="#2563EB"/>
<path d="M302.27 67.1735C305.195 67.1735 307.567 64.8017 307.567 61.8759C307.567 58.9501 305.195 56.5782 302.27 56.5782C299.344 56.5782 296.972 58.9501 296.972 61.8759C296.972 64.8017 299.344 67.1735 302.27 67.1735Z" fill="#2563EB"/>
<path d="M598.138 67.1735C601.064 67.1735 603.435 64.8017 603.435 61.8759C603.435 58.9501 601.064 56.5782 598.138 56.5782C595.212 56.5782 592.84 58.9501 592.84 61.8759C592.84 64.8017 595.212 67.1735 598.138 67.1735Z" fill="#2563EB"/>
<path d="M616.63 67.1735C619.555 67.1735 621.927 64.8017 621.927 61.8759C621.927 58.9501 619.555 56.5782 616.63 56.5782C613.704 56.5782 611.332 58.9501 611.332 61.8759C611.332 64.8017 613.704 67.1735 616.63 67.1735Z" fill="#2563EB"/>
<path d="M635.121 67.1735C638.047 67.1735 640.419 64.8017 640.419 61.8759C640.419 58.9501 638.047 56.5782 635.121 56.5782C632.195 56.5782 629.824 58.9501 629.824 61.8759C629.824 64.8017 632.195 67.1735 635.121 67.1735Z" fill="#2563EB"/>
<path d="M246.794 85.6653C249.72 85.6653 252.092 83.2934 252.092 80.3676C252.092 77.4418 249.72 75.07 246.794 75.07C243.869 75.07 241.497 77.4418 241.497 80.3676C241.497 83.2934 243.869 85.6653 246.794 85.6653Z" fill="#2563EB"/>
<path d="M265.286 85.6653C268.212 85.6653 270.584 83.2934 270.584 80.3676C270.584 77.4418 268.212 75.07 265.286 75.07C262.36 75.07 259.989 77.4418 259.989 80.3676C259.989 83.2934 262.36 85.6653 265.286 85.6653Z" fill="#2563EB"/>
<path d="M653.613 85.6653C656.539 85.6653 658.911 83.2934 658.911 80.3676C658.911 77.4418 656.539 75.07 653.613 75.07C650.687 75.07 648.315 77.4418 648.315 80.3676C648.315 83.2934 650.687 85.6653 653.613 85.6653Z" fill="#2563EB"/>
<path d="M672.105 85.6653C675.031 85.6653 677.402 83.2934 677.402 80.3676C677.402 77.4418 675.031 75.07 672.105 75.07C669.179 75.07 666.807 77.4418 666.807 80.3676C666.807 83.2934 669.179 85.6653 672.105 85.6653Z" fill="#2563EB"/>
<path d="M209.811 104.157C212.737 104.157 215.109 101.785 215.109 98.8594C215.109 95.9336 212.737 93.5618 209.811 93.5618C206.885 93.5618 204.513 95.9336 204.513 98.8594C204.513 101.785 206.885 104.157 209.811 104.157Z" fill="#2563EB"/>
<path d="M228.303 104.157C231.228 104.157 233.6 101.785 233.6 98.8594C233.6 95.9336 231.228 93.5618 228.303 93.5618C225.377 93.5618 223.005 95.9336 223.005 98.8594C223.005 101.785 225.377 104.157 228.303 104.157Z" fill="#2563EB"/>
<path d="M672.105 104.157C675.031 104.157 677.402 101.785 677.402 98.8594C677.402 95.9336 675.031 93.5618 672.105 93.5618C669.179 93.5618 666.807 95.9336 666.807 98.8594C666.807 101.785 669.179 104.157 672.105 104.157Z" fill="#2563EB"/>
<path d="M690.597 104.157C693.522 104.157 695.894 101.785 695.894 98.8594C695.894 95.9336 693.522 93.5618 690.597 93.5618C687.671 93.5618 685.299 95.9336 685.299 98.8594C685.299 101.785 687.671 104.157 690.597 104.157Z" fill="#2563EB"/>
<path d="M191.319 122.649C194.245 122.649 196.617 120.277 196.617 117.351C196.617 114.425 194.245 112.054 191.319 112.054C188.393 112.054 186.021 114.425 186.021 117.351C186.021 120.277 188.393 122.649 191.319 122.649Z" fill="#2563EB"/>
<path d="M209.811 118.774C210.597 118.774 211.234 118.137 211.234 117.351C211.234 116.565 210.597 115.928 209.811 115.928C209.025 115.928 208.388 116.565 208.388 117.351C208.388 118.137 209.025 118.774 209.811 118.774Z" fill="#2563EB"/>
<path d="M709.088 122.649C712.014 122.649 714.386 120.277 714.386 117.351C714.386 114.425 712.014 112.054 709.088 112.054C706.163 112.054 703.791 114.425 703.791 117.351C703.791 120.277 706.163 122.649 709.088 122.649Z" fill="#2563EB"/>
<path d="M727.58 119.596C728.82 119.596 729.825 118.591 729.825 117.351C729.825 116.111 728.82 115.106 727.58 115.106C726.34 115.106 725.335 116.111 725.335 117.351C725.335 118.591 726.34 119.596 727.58 119.596Z" fill="#2563EB"/>
<path d="M172.827 141.141C175.753 141.141 178.125 138.769 178.125 135.843C178.125 132.917 175.753 130.545 172.827 130.545C169.902 130.545 167.53 132.917 167.53 135.843C167.53 138.769 169.902 141.141 172.827 141.141Z" fill="#2563EB"/>
<path d="M727.58 141.141C730.506 141.141 732.878 138.769 732.878 135.843C732.878 132.917 730.506 130.545 727.58 130.545C724.654 130.545 722.282 132.917 722.282 135.843C722.282 138.769 724.654 141.141 727.58 141.141Z" fill="#2563EB"/>
<path d="M746.072 141.141C748.998 141.141 751.369 138.769 751.369 135.843C751.369 132.917 748.998 130.545 746.072 130.545C743.146 130.545 740.774 132.917 740.774 135.843C740.774 138.769 743.146 141.141 746.072 141.141Z" fill="#2563EB"/>
<path d="M154.336 159.632C157.261 159.632 159.633 157.26 159.633 154.335C159.633 151.409 157.261 149.037 154.336 149.037C151.41 149.037 149.038 151.409 149.038 154.335C149.038 157.26 151.41 159.632 154.336 159.632Z" fill="#2563EB"/>
<path d="M746.072 159.632C748.998 159.632 751.369 157.26 751.369 154.335C751.369 151.409 748.998 149.037 746.072 149.037C743.146 149.037 740.774 151.409 740.774 154.335C740.774 157.26 743.146 159.632 746.072 159.632Z" fill="#2563EB"/>
<path d="M764.564 159.632C767.489 159.632 769.861 157.26 769.861 154.335C769.861 151.409 767.489 149.037 764.564 149.037C761.638 149.037 759.266 151.409 759.266 154.335C759.266 157.26 761.638 159.632 764.564 159.632Z" fill="#2563EB"/>
<path d="M135.844 178.124C138.77 178.124 141.142 175.752 141.142 172.826C141.142 169.901 138.77 167.529 135.844 167.529C132.918 167.529 130.546 169.901 130.546 172.826C130.546 175.752 132.918 178.124 135.844 178.124Z" fill="#2563EB"/>
<path d="M764.564 178.124C767.489 178.124 769.861 175.752 769.861 172.826C769.861 169.901 767.489 167.529 764.564 167.529C761.638 167.529 759.266 169.901 759.266 172.826C759.266 175.752 761.638 178.124 764.564 178.124Z" fill="#2563EB"/>
<path d="M783.055 178.124C785.981 178.124 788.353 175.752 788.353 172.826C788.353 169.901 785.981 167.529 783.055 167.529C780.13 167.529 777.758 169.901 777.758 172.826C777.758 175.752 780.13 178.124 783.055 178.124Z" fill="#2563EB"/>
<path d="M117.352 196.616C120.278 196.616 122.65 194.244 122.65 191.318C122.65 188.392 120.278 186.021 117.352 186.021C114.426 186.021 112.054 188.392 112.054 191.318C112.054 194.244 114.426 196.616 117.352 196.616Z" fill="#2563EB"/>
<path d="M394.728 196.616C397.654 196.616 400.026 194.244 400.026 191.318C400.026 188.392 397.654 186.021 394.728 186.021C391.803 186.021 389.431 188.392 389.431 191.318C389.431 194.244 391.803 196.616 394.728 196.616Z" fill="#2563EB"/>
<path d="M413.22 196.616C416.146 196.616 418.518 194.244 418.518 191.318C418.518 188.392 416.146 186.021 413.22 186.021C410.294 186.021 407.923 188.392 407.923 191.318C407.923 194.244 410.294 196.616 413.22 196.616Z" fill="#2563EB"/>
<path d="M431.712 196.616C434.638 196.616 437.01 194.244 437.01 191.318C437.01 188.392 434.638 186.021 431.712 186.021C428.786 186.021 426.414 188.392 426.414 191.318C426.414 194.244 428.786 196.616 431.712 196.616Z" fill="#2563EB"/>
<path d="M450.204 196.616C453.13 196.616 455.501 194.244 455.501 191.318C455.501 188.392 453.13 186.021 450.204 186.021C447.278 186.021 444.906 188.392 444.906 191.318C444.906 194.244 447.278 196.616 450.204 196.616Z" fill="#2563EB"/>
<path d="M468.695 196.616C471.621 196.616 473.993 194.244 473.993 191.318C473.993 188.392 471.621 186.021 468.695 186.021C465.77 186.021 463.398 188.392 463.398 191.318C463.398 194.244 465.77 196.616 468.695 196.616Z" fill="#2563EB"/>
<path d="M487.187 196.616C490.113 196.616 492.485 194.244 492.485 191.318C492.485 188.392 490.113 186.021 487.187 186.021C484.261 186.021 481.89 188.392 481.89 191.318C481.89 194.244 484.261 196.616 487.187 196.616Z" fill="#2563EB"/>
<path d="M505.679 196.616C508.605 196.616 510.977 194.244 510.977 191.318C510.977 188.392 508.605 186.021 505.679 186.021C502.753 186.021 500.381 188.392 500.381 191.318C500.381 194.244 502.753 196.616 505.679 196.616Z" fill="#2563EB"/>
<path d="M783.055 196.616C785.981 196.616 788.353 194.244 788.353 191.318C788.353 188.392 785.981 186.021 783.055 186.021C780.13 186.021 777.758 188.392 777.758 191.318C777.758 194.244 780.13 196.616 783.055 196.616Z" fill="#2563EB"/>
<path d="M98.8604 215.108C101.786 215.108 104.158 212.736 104.158 209.81C104.158 206.884 101.786 204.512 98.8604 204.512C95.9346 204.512 93.5627 206.884 93.5627 209.81C93.5627 212.736 95.9346 215.108 98.8604 215.108Z" fill="#2563EB"/>
<path d="M117.352 211.233C118.138 211.233 118.775 210.596 118.775 209.81C118.775 209.024 118.138 208.387 117.352 208.387C116.566 208.387 115.929 209.024 115.929 209.81C115.929 210.596 116.566 211.233 117.352 211.233Z" fill="#2563EB"/>
<path d="M339.253 215.108C342.179 215.108 344.551 212.736 344.551 209.81C344.551 206.884 342.179 204.512 339.253 204.512C336.327 204.512 333.956 206.884 333.956 209.81C333.956 212.736 336.327 215.108 339.253 215.108Z" fill="#2563EB"/>
<path d="M357.745 215.108C360.671 215.108 363.043 212.736 363.043 209.81C363.043 206.884 360.671 204.512 357.745 204.512C354.819 204.512 352.447 206.884 352.447 209.81C352.447 212.736 354.819 215.108 357.745 215.108Z" fill="#2563EB"/>
<path d="M376.237 215.108C379.163 215.108 381.534 212.736 381.534 209.81C381.534 206.884 379.163 204.512 376.237 204.512C373.311 204.512 370.939 206.884 370.939 209.81C370.939 212.736 373.311 215.108 376.237 215.108Z" fill="#2563EB"/>
<path d="M524.171 215.108C527.097 215.108 529.468 212.736 529.468 209.81C529.468 206.884 527.097 204.512 524.171 204.512C521.245 204.512 518.873 206.884 518.873 209.81C518.873 212.736 521.245 215.108 524.171 215.108Z" fill="#2563EB"/>
<path d="M542.663 215.108C545.588 215.108 547.96 212.736 547.96 209.81C547.96 206.884 545.588 204.512 542.663 204.512C539.737 204.512 537.365 206.884 537.365 209.81C537.365 212.736 539.737 215.108 542.663 215.108Z" fill="#2563EB"/>
<path d="M561.154 215.108C564.08 215.108 566.452 212.736 566.452 209.81C566.452 206.884 564.08 204.512 561.154 204.512C558.229 204.512 555.857 206.884 555.857 209.81C555.857 212.736 558.229 215.108 561.154 215.108Z" fill="#2563EB"/>
<path d="M801.547 215.108C804.473 215.108 806.845 212.736 806.845 209.81C806.845 206.884 804.473 204.512 801.547 204.512C798.621 204.512 796.25 206.884 796.25 209.81C796.25 212.736 798.621 215.108 801.547 215.108Z" fill="#2563EB"/>
<path d="M98.8604 233.599C101.786 233.599 104.158 231.228 104.158 228.302C104.158 225.376 101.786 223.004 98.8604 223.004C95.9346 223.004 93.5627 225.376 93.5627 228.302C93.5627 231.228 95.9346 233.599 98.8604 233.599Z" fill="#2563EB"/>
<path d="M320.761 233.599C323.687 233.599 326.059 231.228 326.059 228.302C326.059 225.376 323.687 223.004 320.761 223.004C317.836 223.004 315.464 225.376 315.464 228.302C315.464 231.228 317.836 233.599 320.761 233.599Z" fill="#2563EB"/>
<path d="M339.253 233.599C342.179 233.599 344.551 231.228 344.551 228.302C344.551 225.376 342.179 223.004 339.253 223.004C336.327 223.004 333.956 225.376 333.956 228.302C333.956 231.228 336.327 233.599 339.253 233.599Z" fill="#2563EB"/>
<path d="M579.646 233.599C582.572 233.599 584.944 231.228 584.944 228.302C584.944 225.376 582.572 223.004 579.646 223.004C576.72 223.004 574.348 225.376 574.348 228.302C574.348 231.228 576.72 233.599 579.646 233.599Z" fill="#2563EB"/>
<path d="M598.138 233.599C601.064 233.599 603.435 231.228 603.435 228.302C603.435 225.376 601.064 223.004 598.138 223.004C595.212 223.004 592.84 225.376 592.84 228.302C592.84 231.228 595.212 233.599 598.138 233.599Z" fill="#2563EB"/>
<path d="M820.039 233.599C822.965 233.599 825.336 231.228 825.336 228.302C825.336 225.376 822.965 223.004 820.039 223.004C817.113 223.004 814.741 225.376 814.741 228.302C814.741 231.228 817.113 233.599 820.039 233.599Z" fill="#2563EB"/>
<path d="M80.3686 252.091C83.2944 252.091 85.6663 249.719 85.6663 246.793C85.6663 243.868 83.2944 241.496 80.3686 241.496C77.4428 241.496 75.071 243.868 75.071 246.793C75.071 249.719 77.4428 252.091 80.3686 252.091Z" fill="#2563EB"/>
<path d="M283.778 252.091C286.704 252.091 289.076 249.719 289.076 246.793C289.076 243.868 286.704 241.496 283.778 241.496C280.852 241.496 278.48 243.868 278.48 246.793C278.48 249.719 280.852 252.091 283.778 252.091Z" fill="#2563EB"/>
<path d="M302.27 252.091C305.195 252.091 307.567 249.719 307.567 246.793C307.567 243.868 305.195 241.496 302.27 241.496C299.344 241.496 296.972 243.868 296.972 246.793C296.972 249.719 299.344 252.091 302.27 252.091Z" fill="#2563EB"/>
<path d="M616.63 252.091C619.555 252.091 621.927 249.719 621.927 246.793C621.927 243.868 619.555 241.496 616.63 241.496C613.704 241.496 611.332 243.868 611.332 246.793C611.332 249.719 613.704 252.091 616.63 252.091Z" fill="#2563EB"/>
<path d="M820.039 252.091C822.965 252.091 825.336 249.719 825.336 246.793C825.336 243.868 822.965 241.496 820.039 241.496C817.113 241.496 814.741 243.868 814.741 246.793C814.741 249.719 817.113 252.091 820.039 252.091Z" fill="#2563EB"/>
<path d="M80.3686 270.583C83.2944 270.583 85.6663 268.211 85.6663 265.285C85.6663 262.359 83.2944 259.988 80.3686 259.988C77.4428 259.988 75.071 262.359 75.071 265.285C75.071 268.211 77.4428 270.583 80.3686 270.583Z" fill="#2563EB"/>
<path d="M265.286 270.583C268.212 270.583 270.584 268.211 270.584 265.285C270.584 262.359 268.212 259.988 265.286 259.988C262.36 259.988 259.989 262.359 259.989 265.285C259.989 268.211 262.36 270.583 265.286 270.583Z" fill="#2563EB"/>
<path d="M283.778 270.583C286.704 270.583 289.076 268.211 289.076 265.285C289.076 262.359 286.704 259.988 283.778 259.988C280.852 259.988 278.48 262.359 278.48 265.285C278.48 268.211 280.852 270.583 283.778 270.583Z" fill="#2563EB"/>
<path d="M635.121 270.583C638.047 270.583 640.419 268.211 640.419 265.285C640.419 262.359 638.047 259.988 635.121 259.988C632.195 259.988 629.824 262.359 629.824 265.285C629.824 268.211 632.195 270.583 635.121 270.583Z" fill="#2563EB"/>
<path d="M838.531 270.583C841.456 270.583 843.828 268.211 843.828 265.285C843.828 262.359 841.456 259.988 838.531 259.988C835.605 259.988 833.233 262.359 833.233 265.285C833.233 268.211 835.605 270.583 838.531 270.583Z" fill="#2563EB"/>
<path d="M61.8769 289.075C64.8027 289.075 67.1745 286.703 67.1745 283.777C67.1745 280.851 64.8027 278.479 61.8769 278.479C58.951 278.479 56.5792 280.851 56.5792 283.777C56.5792 286.703 58.951 289.075 61.8769 289.075Z" fill="#2563EB"/>
<path d="M246.794 289.075C249.72 289.075 252.092 286.703 252.092 283.777C252.092 280.851 249.72 278.479 246.794 278.479C243.869 278.479 241.497 280.851 241.497 283.777C241.497 286.703 243.869 289.075 246.794 289.075Z" fill="#2563EB"/>
<path d="M265.286 289.075C268.212 289.075 270.584 286.703 270.584 283.777C270.584 280.851 268.212 278.479 265.286 278.479C262.36 278.479 259.989 280.851 259.989 283.777C259.989 286.703 262.36 289.075 265.286 289.075Z" fill="#2563EB"/>
<path d="M653.613 289.075C656.539 289.075 658.911 286.703 658.911 283.777C658.911 280.851 656.539 278.479 653.613 278.479C650.687 278.479 648.315 280.851 648.315 283.777C648.315 286.703 650.687 289.075 653.613 289.075Z" fill="#2563EB"/>
<path d="M838.531 289.075C841.456 289.075 843.828 286.703 843.828 283.777C843.828 280.851 841.456 278.479 838.531 278.479C835.605 278.479 833.233 280.851 833.233 283.777C833.233 286.703 835.605 289.075 838.531 289.075Z" fill="#2563EB"/>
<path d="M61.8769 307.566C64.8027 307.566 67.1745 305.195 67.1745 302.269C67.1745 299.343 64.8027 296.971 61.8769 296.971C58.951 296.971 56.5792 299.343 56.5792 302.269C56.5792 305.195 58.951 307.566 61.8769 307.566Z" fill="#2563EB"/>
<path d="M246.794 307.566C249.72 307.566 252.092 305.195 252.092 302.269C252.092 299.343 249.72 296.971 246.794 296.971C243.869 296.971 241.497 299.343 241.497 302.269C241.497 305.195 243.869 307.566 246.794 307.566Z" fill="#2563EB"/>
<path d="M672.105 307.566C675.031 307.566 677.402 305.195 677.402 302.269C677.402 299.343 675.031 296.971 672.105 296.971C669.179 296.971 666.807 299.343 666.807 302.269C666.807 305.195 669.179 307.566 672.105 307.566Z" fill="#2563EB"/>
<path d="M857.022 307.566C859.948 307.566 862.32 305.195 862.32 302.269C862.32 299.343 859.948 296.971 857.022 296.971C854.097 296.971 851.725 299.343 851.725 302.269C851.725 305.195 854.097 307.566 857.022 307.566Z" fill="#2563EB"/>
<path d="M43.3851 326.058C46.3109 326.058 48.6827 323.686 48.6827 320.76C48.6827 317.835 46.3109 315.463 43.3851 315.463C40.4593 315.463 38.0875 317.835 38.0875 320.76C38.0875 323.686 40.4593 326.058 43.3851 326.058Z" fill="#2563EB"/>
<path d="M228.303 326.058C231.228 326.058 233.6 323.686 233.6 320.76C233.6 317.835 231.228 315.463 228.303 315.463C225.377 315.463 223.005 317.835 223.005 320.76C223.005 323.686 225.377 326.058 228.303 326.058Z" fill="#2563EB"/>
<path d="M672.105 326.058C675.031 326.058 677.402 323.686 677.402 320.76C677.402 317.835 675.031 315.463 672.105 315.463C669.179 315.463 666.807 317.835 666.807 320.76C666.807 323.686 669.179 326.058 672.105 326.058Z" fill="#2563EB"/>
<path d="M857.022 326.058C859.948 326.058 862.32 323.686 862.32 320.76C862.32 317.835 859.948 315.463 857.022 315.463C854.097 315.463 851.725 317.835 851.725 320.76C851.725 323.686 854.097 326.058 857.022 326.058Z" fill="#2563EB"/>
<path d="M43.3851 344.55C46.3109 344.55 48.6827 342.178 48.6827 339.252C48.6827 336.326 46.3109 333.955 43.3851 333.955C40.4593 333.955 38.0875 336.326 38.0875 339.252C38.0875 342.178 40.4593 344.55 43.3851 344.55Z" fill="#2563EB"/>
<path d="M209.811 344.55C212.737 344.55 215.109 342.178 215.109 339.252C215.109 336.326 212.737 333.955 209.811 333.955C206.885 333.955 204.513 336.326 204.513 339.252C204.513 342.178 206.885 344.55 209.811 344.55Z" fill="#2563EB"/>
<path d="M228.303 344.55C231.228 344.55 233.6 342.178 233.6 339.252C233.6 336.326 231.228 333.955 228.303 333.955C225.377 333.955 223.005 336.326 223.005 339.252C223.005 342.178 225.377 344.55 228.303 344.55Z" fill="#2563EB"/>
<path d="M413.22 344.55C416.146 344.55 418.518 342.178 418.518 339.252C418.518 336.326 416.146 333.955 413.22 333.955C410.294 333.955 407.923 336.326 407.923 339.252C407.923 342.178 410.294 344.55 413.22 344.55Z" fill="#2563EB"/>
<path d="M431.712 344.55C434.638 344.55 437.01 342.178 437.01 339.252C437.01 336.326 434.638 333.955 431.712 333.955C428.786 333.955 426.414 336.326 426.414 339.252C426.414 342.178 428.786 344.55 431.712 344.55Z" fill="#2563EB"/>
<path d="M450.204 344.55C453.13 344.55 455.501 342.178 455.501 339.252C455.501 336.326 453.13 333.955 450.204 333.955C447.278 333.955 444.906 336.326 444.906 339.252C444.906 342.178 447.278 344.55 450.204 344.55Z" fill="#2563EB"/>
<path d="M468.695 344.55C471.621 344.55 473.993 342.178 473.993 339.252C473.993 336.326 471.621 333.955 468.695 333.955C465.77 333.955 463.398 336.326 463.398 339.252C463.398 342.178 465.77 344.55 468.695 344.55Z" fill="#2563EB"/>
<path d="M487.187 344.55C490.113 344.55 492.485 342.178 492.485 339.252C492.485 336.326 490.113 333.955 487.187 333.955C484.261 333.955 481.89 336.326 481.89 339.252C481.89 342.178 484.261 344.55 487.187 344.55Z" fill="#2563EB"/>
<path d="M690.597 344.55C693.522 344.55 695.894 342.178 695.894 339.252C695.894 336.326 693.522 333.955 690.597 333.955C687.671 333.955 685.299 336.326 685.299 339.252C685.299 342.178 687.671 344.55 690.597 344.55Z" fill="#2563EB"/>
<path d="M857.022 344.55C859.948 344.55 862.32 342.178 862.32 339.252C862.32 336.326 859.948 333.955 857.022 333.955C854.097 333.955 851.725 336.326 851.725 339.252C851.725 342.178 854.097 344.55 857.022 344.55Z" fill="#2563EB"/>
<path d="M43.3851 363.042C46.3109 363.042 48.6827 360.67 48.6827 357.744C48.6827 354.818 46.3109 352.446 43.3851 352.446C40.4593 352.446 38.0875 354.818 38.0875 357.744C38.0875 360.67 40.4593 363.042 43.3851 363.042Z" fill="#2563EB"/>
<path d="M209.811 363.042C212.737 363.042 215.109 360.67 215.109 357.744C215.109 354.818 212.737 352.446 209.811 352.446C206.885 352.446 204.513 354.818 204.513 357.744C204.513 360.67 206.885 363.042 209.811 363.042Z" fill="#2563EB"/>
<path d="M376.237 363.042C379.163 363.042 381.534 360.67 381.534 357.744C381.534 354.818 379.163 352.446 376.237 352.446C373.311 352.446 370.939 354.818 370.939 357.744C370.939 360.67 373.311 363.042 376.237 363.042Z" fill="#2563EB"/>
<path d="M394.728 363.042C397.654 363.042 400.026 360.67 400.026 357.744C400.026 354.818 397.654 352.446 394.728 352.446C391.803 352.446 389.431 354.818 389.431 357.744C389.431 360.67 391.803 363.042 394.728 363.042Z" fill="#2563EB"/>
<path d="M505.679 363.042C508.605 363.042 510.977 360.67 510.977 357.744C510.977 354.818 508.605 352.446 505.679 352.446C502.753 352.446 500.381 354.818 500.381 357.744C500.381 360.67 502.753 363.042 505.679 363.042Z" fill="#2563EB"/>
<path d="M524.171 363.042C527.097 363.042 529.468 360.67 529.468 357.744C529.468 354.818 527.097 352.446 524.171 352.446C521.245 352.446 518.873 354.818 518.873 357.744C518.873 360.67 521.245 363.042 524.171 363.042Z" fill="#2563EB"/>
<path d="M690.597 363.042C693.522 363.042 695.894 360.67 695.894 357.744C695.894 354.818 693.522 352.446 690.597 352.446C687.671 352.446 685.299 354.818 685.299 357.744C685.299 360.67 687.671 363.042 690.597 363.042Z" fill="#2563EB"/>
<path d="M875.514 363.042C878.44 363.042 880.812 360.67 880.812 357.744C880.812 354.818 878.44 352.446 875.514 352.446C872.588 352.446 870.216 354.818 870.216 357.744C870.216 360.67 872.588 363.042 875.514 363.042Z" fill="#2563EB"/>
<path d="M43.3851 381.533C46.3109 381.533 48.6827 379.162 48.6827 376.236C48.6827 373.31 46.3109 370.938 43.3851 370.938C40.4593 370.938 38.0875 373.31 38.0875 376.236C38.0875 379.162 40.4593 381.533 43.3851 381.533Z" fill="#2563EB"/>
<path d="M209.811 381.533C212.737 381.533 215.109 379.162 215.109 376.236C215.109 373.31 212.737 370.938 209.811 370.938C206.885 370.938 204.513 373.31 204.513 376.236C204.513 379.162 206.885 381.533 209.811 381.533Z" fill="#2563EB"/>
<path d="M357.745 381.533C360.671 381.533 363.043 379.162 363.043 376.236C363.043 373.31 360.671 370.938 357.745 370.938C354.819 370.938 352.447 373.31 352.447 376.236C352.447 379.162 354.819 381.533 357.745 381.533Z" fill="#2563EB"/>
<path d="M376.237 381.533C379.163 381.533 381.534 379.162 381.534 376.236C381.534 373.31 379.163 370.938 376.237 370.938C373.311 370.938 370.939 373.31 370.939 376.236C370.939 379.162 373.311 381.533 376.237 381.533Z" fill="#2563EB"/>
<path d="M542.663 381.533C545.588 381.533 547.96 379.162 547.96 376.236C547.96 373.31 545.588 370.938 542.663 370.938C539.737 370.938 537.365 373.31 537.365 376.236C537.365 379.162 539.737 381.533 542.663 381.533Z" fill="#2563EB"/>
<path d="M709.088 381.533C712.014 381.533 714.386 379.162 714.386 376.236C714.386 373.31 712.014 370.938 709.088 370.938C706.163 370.938 703.791 373.31 703.791 376.236C703.791 379.162 706.163 381.533 709.088 381.533Z" fill="#2563EB"/>
<path d="M875.514 381.533C878.44 381.533 880.812 379.162 880.812 376.236C880.812 373.31 878.44 370.938 875.514 370.938C872.588 370.938 870.216 373.31 870.216 376.236C870.216 379.162 872.588 381.533 875.514 381.533Z" fill="#2563EB"/>
<path d="M24.8933 400.025C27.8191 400.025 30.191 397.653 30.191 394.727C30.191 391.802 27.8191 389.43 24.8933 389.43C21.9675 389.43 19.5957 391.802 19.5957 394.727C19.5957 397.653 21.9675 400.025 24.8933 400.025Z" fill="#2563EB"/>
<path d="M191.319 400.025C194.245 400.025 196.617 397.653 196.617 394.727C196.617 391.802 194.245 389.43 191.319 389.43C188.393 389.43 186.021 391.802 186.021 394.727C186.021 397.653 188.393 400.025 191.319 400.025Z" fill="#2563EB"/>
<path d="M357.745 400.025C360.671 400.025 363.043 397.653 363.043 394.727C363.043 391.802 360.671 389.43 357.745 389.43C354.819 389.43 352.447 391.802 352.447 394.727C352.447 397.653 354.819 400.025 357.745 400.025Z" fill="#2563EB"/>
<path d="M542.663 400.025C545.588 400.025 547.96 397.653 547.96 394.727C547.96 391.802 545.588 389.43 542.663 389.43C539.737 389.43 537.365 391.802 537.365 394.727C537.365 397.653 539.737 400.025 542.663 400.025Z" fill="#2563EB"/>
<path d="M561.154 400.025C564.08 400.025 566.452 397.653 566.452 394.727C566.452 391.802 564.08 389.43 561.154 389.43C558.229 389.43 555.857 391.802 555.857 394.727C555.857 397.653 558.229 400.025 561.154 400.025Z" fill="#2563EB"/>
<path d="M709.088 400.025C712.014 400.025 714.386 397.653 714.386 394.727C714.386 391.802 712.014 389.43 709.088 389.43C706.163 389.43 703.791 391.802 703.791 394.727C703.791 397.653 706.163 400.025 709.088 400.025Z" fill="#2563EB"/>
<path d="M875.514 400.025C878.44 400.025 880.812 397.653 880.812 394.727C880.812 391.802 878.44 389.43 875.514 389.43C872.588 389.43 870.216 391.802 870.216 394.727C870.216 397.653 872.588 400.025 875.514 400.025Z" fill="#2563EB"/>
<path d="M24.8933 418.517C27.8191 418.517 30.191 416.145 30.191 413.219C30.191 410.293 27.8191 407.922 24.8933 407.922C21.9675 407.922 19.5957 410.293 19.5957 413.219C19.5957 416.145 21.9675 418.517 24.8933 418.517Z" fill="#2563EB"/>
<path d="M191.319 418.517C194.245 418.517 196.617 416.145 196.617 413.219C196.617 410.293 194.245 407.922 191.319 407.922C188.393 407.922 186.021 410.293 186.021 413.219C186.021 416.145 188.393 418.517 191.319 418.517Z" fill="#2563EB"/>
<path d="M339.253 418.517C342.179 418.517 344.551 416.145 344.551 413.219C344.551 410.293 342.179 407.922 339.253 407.922C336.327 407.922 333.956 410.293 333.956 413.219C333.956 416.145 336.327 418.517 339.253 418.517Z" fill="#2563EB"/>
<path d="M561.154 418.517C564.08 418.517 566.452 416.145 566.452 413.219C566.452 410.293 564.08 407.922 561.154 407.922C558.229 407.922 555.857 410.293 555.857 413.219C555.857 416.145 558.229 418.517 561.154 418.517Z" fill="#2563EB"/>
<path d="M709.088 418.517C712.014 418.517 714.386 416.145 714.386 413.219C714.386 410.293 712.014 407.922 709.088 407.922C706.163 407.922 703.791 410.293 703.791 413.219C703.791 416.145 706.163 418.517 709.088 418.517Z" fill="#2563EB"/>
<path d="M875.514 418.517C878.44 418.517 880.812 416.145 880.812 413.219C880.812 410.293 878.44 407.922 875.514 407.922C872.588 407.922 870.216 410.293 870.216 413.219C870.216 416.145 872.588 418.517 875.514 418.517Z" fill="#2563EB"/>
<path d="M24.8933 437.009C27.8191 437.009 30.191 434.637 30.191 431.711C30.191 428.785 27.8191 426.413 24.8933 426.413C21.9675 426.413 19.5957 428.785 19.5957 431.711C19.5957 434.637 21.9675 437.009 24.8933 437.009Z" fill="#2563EB"/>
<path d="M191.319 437.009C194.245 437.009 196.617 434.637 196.617 431.711C196.617 428.785 194.245 426.413 191.319 426.413C188.393 426.413 186.021 428.785 186.021 431.711C186.021 434.637 188.393 437.009 191.319 437.009Z" fill="#2563EB"/>
<path d="M339.253 437.009C342.179 437.009 344.551 434.637 344.551 431.711C344.551 428.785 342.179 426.413 339.253 426.413C336.327 426.413 333.956 428.785 333.956 431.711C333.956 434.637 336.327 437.009 339.253 437.009Z" fill="#2563EB"/>
<path d="M561.154 437.009C564.08 437.009 566.452 434.637 566.452 431.711C566.452 428.785 564.08 426.413 561.154 426.413C558.229 426.413 555.857 428.785 555.857 431.711C555.857 434.637 558.229 437.009 561.154 437.009Z" fill="#2563EB"/>
<path d="M709.088 437.009C712.014 437.009 714.386 434.637 714.386 431.711C714.386 428.785 712.014 426.413 709.088 426.413C706.163 426.413 703.791 428.785 703.791 431.711C703.791 434.637 706.163 437.009 709.088 437.009Z" fill="#2563EB"/>
<path d="M875.514 437.009C878.44 437.009 880.812 434.637 880.812 431.711C880.812 428.785 878.44 426.413 875.514 426.413C872.588 426.413 870.216 428.785 870.216 431.711C870.216 434.637 872.588 437.009 875.514 437.009Z" fill="#2563EB"/>
<path d="M24.8933 455.5C27.8191 455.5 30.191 453.129 30.191 450.203C30.191 447.277 27.8191 444.905 24.8933 444.905C21.9675 444.905 19.5957 447.277 19.5957 450.203C19.5957 453.129 21.9675 455.5 24.8933 455.5Z" fill="#2563EB"/>
<path d="M191.319 455.5C194.245 455.5 196.617 453.129 196.617 450.203C196.617 447.277 194.245 444.905 191.319 444.905C188.393 444.905 186.021 447.277 186.021 450.203C186.021 453.129 188.393 455.5 191.319 455.5Z" fill="#2563EB"/>
<path d="M339.253 455.5C342.179 455.5 344.551 453.129 344.551 450.203C344.551 447.277 342.179 444.905 339.253 444.905C336.327 444.905 333.956 447.277 333.956 450.203C333.956 453.129 336.327 455.5 339.253 455.5Z" fill="#2563EB"/>
<path d="M561.154 455.5C564.08 455.5 566.452 453.129 566.452 450.203C566.452 447.277 564.08 444.905 561.154 444.905C558.229 444.905 555.857 447.277 555.857 450.203C555.857 453.129 558.229 455.5 561.154 455.5Z" fill="#2563EB"/>
<path d="M709.088 455.5C712.014 455.5 714.386 453.129 714.386 450.203C714.386 447.277 712.014 444.905 709.088 444.905C706.163 444.905 703.791 447.277 703.791 450.203C703.791 453.129 706.163 455.5 709.088 455.5Z" fill="#2563EB"/>
<path d="M875.514 455.5C878.44 455.5 880.812 453.129 880.812 450.203C880.812 447.277 878.44 444.905 875.514 444.905C872.588 444.905 870.216 447.277 870.216 450.203C870.216 453.129 872.588 455.5 875.514 455.5Z" fill="#2563EB"/>
<path d="M24.8933 473.992C27.8191 473.992 30.191 471.62 30.191 468.695C30.191 465.769 27.8191 463.397 24.8933 463.397C21.9675 463.397 19.5957 465.769 19.5957 468.695C19.5957 471.62 21.9675 473.992 24.8933 473.992Z" fill="#2563EB"/>
<path d="M191.319 473.992C194.245 473.992 196.617 471.62 196.617 468.695C196.617 465.769 194.245 463.397 191.319 463.397C188.393 463.397 186.021 465.769 186.021 468.695C186.021 471.62 188.393 473.992 191.319 473.992Z" fill="#2563EB"/>
<path d="M339.253 473.992C342.179 473.992 344.551 471.62 344.551 468.695C344.551 465.769 342.179 463.397 339.253 463.397C336.327 463.397 333.956 465.769 333.956 468.695C333.956 471.62 336.327 473.992 339.253 473.992Z" fill="#2563EB"/>
<path d="M561.154 473.992C564.08 473.992 566.452 471.62 566.452 468.695C566.452 465.769 564.08 463.397 561.154 463.397C558.229 463.397 555.857 465.769 555.857 468.695C555.857 471.62 558.229 473.992 561.154 473.992Z" fill="#2563EB"/>
<path d="M709.088 473.992C712.014 473.992 714.386 471.62 714.386 468.695C714.386 465.769 712.014 463.397 709.088 463.397C706.163 463.397 703.791 465.769 703.791 468.695C703.791 471.62 706.163 473.992 709.088 473.992Z" fill="#2563EB"/>
<path d="M875.514 473.992C878.44 473.992 880.812 471.62 880.812 468.695C880.812 465.769 878.44 463.397 875.514 463.397C872.588 463.397 870.216 465.769 870.216 468.695C870.216 471.62 872.588 473.992 875.514 473.992Z" fill="#2563EB"/>
<path d="M24.8933 492.484C27.8191 492.484 30.191 490.112 30.191 487.186C30.191 484.26 27.8191 481.889 24.8933 481.889C21.9675 481.889 19.5957 484.26 19.5957 487.186C19.5957 490.112 21.9675 492.484 24.8933 492.484Z" fill="#2563EB"/>
<path d="M191.319 492.484C194.245 492.484 196.617 490.112 196.617 487.186C196.617 484.26 194.245 481.889 191.319 481.889C188.393 481.889 186.021 484.26 186.021 487.186C186.021 490.112 188.393 492.484 191.319 492.484Z" fill="#2563EB"/>
<path d="M339.253 492.484C342.179 492.484 344.551 490.112 344.551 487.186C344.551 484.26 342.179 481.889 339.253 481.889C336.327 481.889 333.956 484.26 333.956 487.186C333.956 490.112 336.327 492.484 339.253 492.484Z" fill="#2563EB"/>
<path d="M561.154 492.484C564.08 492.484 566.452 490.112 566.452 487.186C566.452 484.26 564.08 481.889 561.154 481.889C558.229 481.889 555.857 484.26 555.857 487.186C555.857 490.112 558.229 492.484 561.154 492.484Z" fill="#2563EB"/>
<path d="M709.088 492.484C712.014 492.484 714.386 490.112 714.386 487.186C714.386 484.26 712.014 481.889 709.088 481.889C706.163 481.889 703.791 484.26 703.791 487.186C703.791 490.112 706.163 492.484 709.088 492.484Z" fill="#2563EB"/>
<path d="M875.514 492.484C878.44 492.484 880.812 490.112 880.812 487.186C880.812 484.26 878.44 481.889 875.514 481.889C872.588 481.889 870.216 484.26 870.216 487.186C870.216 490.112 872.588 492.484 875.514 492.484Z" fill="#2563EB"/>
<path d="M24.8933 510.976C27.8191 510.976 30.191 508.604 30.191 505.678C30.191 502.752 27.8191 500.38 24.8933 500.38C21.9675 500.38 19.5957 502.752 19.5957 505.678C19.5957 508.604 21.9675 510.976 24.8933 510.976Z" fill="#2563EB"/>
<path d="M191.319 510.976C194.245 510.976 196.617 508.604 196.617 505.678C196.617 502.752 194.245 500.38 191.319 500.38C188.393 500.38 186.021 502.752 186.021 505.678C186.021 508.604 188.393 510.976 191.319 510.976Z" fill="#2563EB"/>
<path d="M357.745 510.976C360.671 510.976 363.043 508.604 363.043 505.678C363.043 502.752 360.671 500.38 357.745 500.38C354.819 500.38 352.447 502.752 352.447 505.678C352.447 508.604 354.819 510.976 357.745 510.976Z" fill="#2563EB"/>
<path d="M561.154 510.976C564.08 510.976 566.452 508.604 566.452 505.678C566.452 502.752 564.08 500.38 561.154 500.38C558.229 500.38 555.857 502.752 555.857 505.678C555.857 508.604 558.229 510.976 561.154 510.976Z" fill="#2563EB"/>
<path d="M709.088 510.976C712.014 510.976 714.386 508.604 714.386 505.678C714.386 502.752 712.014 500.38 709.088 500.38C706.163 500.38 703.791 502.752 703.791 505.678C703.791 508.604 706.163 510.976 709.088 510.976Z" fill="#2563EB"/>
<path d="M875.514 510.976C878.44 510.976 880.812 508.604 880.812 505.678C880.812 502.752 878.44 500.38 875.514 500.38C872.588 500.38 870.216 502.752 870.216 505.678C870.216 508.604 872.588 510.976 875.514 510.976Z" fill="#2563EB"/>
<path d="M24.8933 525.593C25.6794 525.593 26.3166 524.956 26.3166 524.17C26.3166 523.384 25.6794 522.747 24.8933 522.747C24.1073 522.747 23.4701 523.384 23.4701 524.17C23.4701 524.956 24.1073 525.593 24.8933 525.593Z" fill="#2563EB"/>
<path d="M43.3851 529.467C46.3109 529.467 48.6827 527.096 48.6827 524.17C48.6827 521.244 46.3109 518.872 43.3851 518.872C40.4593 518.872 38.0875 521.244 38.0875 524.17C38.0875 527.096 40.4593 529.467 43.3851 529.467Z" fill="#2563EB"/>
<path d="M209.811 529.467C212.737 529.467 215.109 527.096 215.109 524.17C215.109 521.244 212.737 518.872 209.811 518.872C206.885 518.872 204.513 521.244 204.513 524.17C204.513 527.096 206.885 529.467 209.811 529.467Z" fill="#2563EB"/>
<path d="M357.745 529.467C360.671 529.467 363.043 527.096 363.043 524.17C363.043 521.244 360.671 518.872 357.745 518.872C354.819 518.872 352.447 521.244 352.447 524.17C352.447 527.096 354.819 529.467 357.745 529.467Z" fill="#2563EB"/>
<path d="M542.663 529.467C545.588 529.467 547.96 527.096 547.96 524.17C547.96 521.244 545.588 518.872 542.663 518.872C539.737 518.872 537.365 521.244 537.365 524.17C537.365 527.096 539.737 529.467 542.663 529.467Z" fill="#2563EB"/>
<path d="M709.088 529.467C712.014 529.467 714.386 527.096 714.386 524.17C714.386 521.244 712.014 518.872 709.088 518.872C706.163 518.872 703.791 521.244 703.791 524.17C703.791 527.096 706.163 529.467 709.088 529.467Z" fill="#2563EB"/>
<path d="M875.514 529.467C878.44 529.467 880.812 527.096 880.812 524.17C880.812 521.244 878.44 518.872 875.514 518.872C872.588 518.872 870.216 521.244 870.216 524.17C870.216 527.096 872.588 529.467 875.514 529.467Z" fill="#2563EB"/>
<path d="M43.3851 547.959C46.3109 547.959 48.6827 545.587 48.6827 542.662C48.6827 539.736 46.3109 537.364 43.3851 537.364C40.4593 537.364 38.0875 539.736 38.0875 542.662C38.0875 545.587 40.4593 547.959 43.3851 547.959Z" fill="#2563EB"/>
<path d="M209.811 547.959C212.737 547.959 215.109 545.587 215.109 542.662C215.109 539.736 212.737 537.364 209.811 537.364C206.885 537.364 204.513 539.736 204.513 542.662C204.513 545.587 206.885 547.959 209.811 547.959Z" fill="#2563EB"/>
<path d="M376.237 547.959C379.163 547.959 381.534 545.587 381.534 542.662C381.534 539.736 379.163 537.364 376.237 537.364C373.311 537.364 370.939 539.736 370.939 542.662C370.939 545.587 373.311 547.959 376.237 547.959Z" fill="#2563EB"/>
<path d="M394.728 547.959C397.654 547.959 400.026 545.587 400.026 542.662C400.026 539.736 397.654 537.364 394.728 537.364C391.803 537.364 389.431 539.736 389.431 542.662C389.431 545.587 391.803 547.959 394.728 547.959Z" fill="#2563EB"/>
<path d="M524.171 547.959C527.097 547.959 529.468 545.587 529.468 542.662C529.468 539.736 527.097 537.364 524.171 537.364C521.245 537.364 518.873 539.736 518.873 542.662C518.873 545.587 521.245 547.959 524.171 547.959Z" fill="#2563EB"/>
<path d="M690.597 547.959C693.522 547.959 695.894 545.587 695.894 542.662C695.894 539.736 693.522 537.364 690.597 537.364C687.671 537.364 685.299 539.736 685.299 542.662C685.299 545.587 687.671 547.959 690.597 547.959Z" fill="#2563EB"/>
<path d="M709.088 547.959C712.014 547.959 714.386 545.587 714.386 542.662C714.386 539.736 712.014 537.364 709.088 537.364C706.163 537.364 703.791 539.736 703.791 542.662C703.791 545.587 706.163 547.959 709.088 547.959Z" fill="#2563EB"/>
<path d="M875.514 547.959C878.44 547.959 880.812 545.587 880.812 542.662C880.812 539.736 878.44 537.364 875.514 537.364C872.588 537.364 870.216 539.736 870.216 542.662C870.216 545.587 872.588 547.959 875.514 547.959Z" fill="#2563EB"/>
<path d="M43.3851 566.451C46.3109 566.451 48.6827 564.079 48.6827 561.153C48.6827 558.228 46.3109 555.856 43.3851 555.856C40.4593 555.856 38.0875 558.228 38.0875 561.153C38.0875 564.079 40.4593 566.451 43.3851 566.451Z" fill="#2563EB"/>
<path d="M209.811 566.451C212.737 566.451 215.109 564.079 215.109 561.153C215.109 558.228 212.737 555.856 209.811 555.856C206.885 555.856 204.513 558.228 204.513 561.153C204.513 564.079 206.885 566.451 209.811 566.451Z" fill="#2563EB"/>
<path d="M394.728 566.451C397.654 566.451 400.026 564.079 400.026 561.153C400.026 558.228 397.654 555.856 394.728 555.856C391.803 555.856 389.431 558.228 389.431 561.153C389.431 564.079 391.803 566.451 394.728 566.451Z" fill="#2563EB"/>
<path d="M413.22 566.451C416.146 566.451 418.518 564.079 418.518 561.153C418.518 558.228 416.146 555.856 413.22 555.856C410.294 555.856 407.923 558.228 407.923 561.153C407.923 564.079 410.294 566.451 413.22 566.451Z" fill="#2563EB"/>
<path d="M431.712 566.451C434.638 566.451 437.01 564.079 437.01 561.153C437.01 558.228 434.638 555.856 431.712 555.856C428.786 555.856 426.414 558.228 426.414 561.153C426.414 564.079 428.786 566.451 431.712 566.451Z" fill="#2563EB"/>
<path d="M450.204 566.451C453.13 566.451 455.501 564.079 455.501 561.153C455.501 558.228 453.13 555.856 450.204 555.856C447.278 555.856 444.906 558.228 444.906 561.153C444.906 564.079 447.278 566.451 450.204 566.451Z" fill="#2563EB"/>
<path d="M468.695 566.451C471.621 566.451 473.993 564.079 473.993 561.153C473.993 558.228 471.621 555.856 468.695 555.856C465.77 555.856 463.398 558.228 463.398 561.153C463.398 564.079 465.77 566.451 468.695 566.451Z" fill="#2563EB"/>
<path d="M487.187 566.451C490.113 566.451 492.485 564.079 492.485 561.153C492.485 558.228 490.113 555.856 487.187 555.856C484.261 555.856 481.89 558.228 481.89 561.153C481.89 564.079 484.261 566.451 487.187 566.451Z" fill="#2563EB"/>
<path d="M505.679 566.451C508.605 566.451 510.977 564.079 510.977 561.153C510.977 558.228 508.605 555.856 505.679 555.856C502.753 555.856 500.381 558.228 500.381 561.153C500.381 564.079 502.753 566.451 505.679 566.451Z" fill="#2563EB"/>
<path d="M690.597 566.451C693.522 566.451 695.894 564.079 695.894 561.153C695.894 558.228 693.522 555.856 690.597 555.856C687.671 555.856 685.299 558.228 685.299 561.153C685.299 564.079 687.671 566.451 690.597 566.451Z" fill="#2563EB"/>
<path d="M857.022 566.451C859.948 566.451 862.32 564.079 862.32 561.153C862.32 558.228 859.948 555.856 857.022 555.856C854.097 555.856 851.725 558.228 851.725 561.153C851.725 564.079 854.097 566.451 857.022 566.451Z" fill="#2563EB"/>
<path d="M43.3851 584.943C46.3109 584.943 48.6827 582.571 48.6827 579.645C48.6827 576.719 46.3109 574.347 43.3851 574.347C40.4593 574.347 38.0875 576.719 38.0875 579.645C38.0875 582.571 40.4593 584.943 43.3851 584.943Z" fill="#2563EB"/>
<path d="M228.303 584.943C231.228 584.943 233.6 582.571 233.6 579.645C233.6 576.719 231.228 574.347 228.303 574.347C225.377 574.347 223.005 576.719 223.005 579.645C223.005 582.571 225.377 584.943 228.303 584.943Z" fill="#2563EB"/>
<path d="M690.597 584.943C693.522 584.943 695.894 582.571 695.894 579.645C695.894 576.719 693.522 574.347 690.597 574.347C687.671 574.347 685.299 576.719 685.299 579.645C685.299 582.571 687.671 584.943 690.597 584.943Z" fill="#2563EB"/>
<path d="M857.022 584.943C859.948 584.943 862.32 582.571 862.32 579.645C862.32 576.719 859.948 574.347 857.022 574.347C854.097 574.347 851.725 576.719 851.725 579.645C851.725 582.571 854.097 584.943 857.022 584.943Z" fill="#2563EB"/>
<path d="M61.8769 603.434C64.8027 603.434 67.1745 601.063 67.1745 598.137C67.1745 595.211 64.8027 592.839 61.8769 592.839C58.951 592.839 56.5792 595.211 56.5792 598.137C56.5792 601.063 58.951 603.434 61.8769 603.434Z" fill="#2563EB"/>
<path d="M228.303 603.434C231.228 603.434 233.6 601.063 233.6 598.137C233.6 595.211 231.228 592.839 228.303 592.839C225.377 592.839 223.005 595.211 223.005 598.137C223.005 601.063 225.377 603.434 228.303 603.434Z" fill="#2563EB"/>
<path d="M672.105 603.434C675.031 603.434 677.402 601.063 677.402 598.137C677.402 595.211 675.031 592.839 672.105 592.839C669.179 592.839 666.807 595.211 666.807 598.137C666.807 601.063 669.179 603.434 672.105 603.434Z" fill="#2563EB"/>
<path d="M857.022 603.434C859.948 603.434 862.32 601.063 862.32 598.137C862.32 595.211 859.948 592.839 857.022 592.839C854.097 592.839 851.725 595.211 851.725 598.137C851.725 601.063 854.097 603.434 857.022 603.434Z" fill="#2563EB"/>
<path d="M61.8769 621.926C64.8027 621.926 67.1745 619.554 67.1745 616.629C67.1745 613.703 64.8027 611.331 61.8769 611.331C58.951 611.331 56.5792 613.703 56.5792 616.629C56.5792 619.554 58.951 621.926 61.8769 621.926Z" fill="#2563EB"/>
<path d="M246.794 621.926C249.72 621.926 252.092 619.554 252.092 616.629C252.092 613.703 249.72 611.331 246.794 611.331C243.869 611.331 241.497 613.703 241.497 616.629C241.497 619.554 243.869 621.926 246.794 621.926Z" fill="#2563EB"/>
<path d="M653.613 621.926C656.539 621.926 658.911 619.554 658.911 616.629C658.911 613.703 656.539 611.331 653.613 611.331C650.687 611.331 648.315 613.703 648.315 616.629C648.315 619.554 650.687 621.926 653.613 621.926Z" fill="#2563EB"/>
<path d="M838.531 621.926C841.456 621.926 843.828 619.554 843.828 616.629C843.828 613.703 841.456 611.331 838.531 611.331C835.605 611.331 833.233 613.703 833.233 616.629C833.233 619.554 835.605 621.926 838.531 621.926Z" fill="#2563EB"/>
<path d="M61.8769 640.418C64.8027 640.418 67.1745 638.046 67.1745 635.12C67.1745 632.195 64.8027 629.823 61.8769 629.823C58.951 629.823 56.5792 632.195 56.5792 635.12C56.5792 638.046 58.951 640.418 61.8769 640.418Z" fill="#2563EB"/>
<path d="M265.286 640.418C268.212 640.418 270.584 638.046 270.584 635.12C270.584 632.195 268.212 629.823 265.286 629.823C262.36 629.823 259.989 632.195 259.989 635.12C259.989 638.046 262.36 640.418 265.286 640.418Z" fill="#2563EB"/>
<path d="M635.121 640.418C638.047 640.418 640.419 638.046 640.419 635.12C640.419 632.195 638.047 629.823 635.121 629.823C632.195 629.823 629.824 632.195 629.824 635.12C629.824 638.046 632.195 640.418 635.121 640.418Z" fill="#2563EB"/>
<path d="M653.613 640.418C656.539 640.418 658.911 638.046 658.911 635.12C658.911 632.195 656.539 629.823 653.613 629.823C650.687 629.823 648.315 632.195 648.315 635.12C648.315 638.046 650.687 640.418 653.613 640.418Z" fill="#2563EB"/>
<path d="M838.531 640.418C841.456 640.418 843.828 638.046 843.828 635.12C843.828 632.195 841.456 629.823 838.531 629.823C835.605 629.823 833.233 632.195 833.233 635.12C833.233 638.046 835.605 640.418 838.531 640.418Z" fill="#2563EB"/>
<path d="M80.3686 658.91C83.2944 658.91 85.6663 656.538 85.6663 653.612C85.6663 650.686 83.2944 648.314 80.3686 648.314C77.4428 648.314 75.071 650.686 75.071 653.612C75.071 656.538 77.4428 658.91 80.3686 658.91Z" fill="#2563EB"/>
<path d="M283.778 658.91C286.704 658.91 289.076 656.538 289.076 653.612C289.076 650.686 286.704 648.314 283.778 648.314C280.852 648.314 278.48 650.686 278.48 653.612C278.48 656.538 280.852 658.91 283.778 658.91Z" fill="#2563EB"/>
<path d="M616.63 658.91C619.555 658.91 621.927 656.538 621.927 653.612C621.927 650.686 619.555 648.314 616.63 648.314C613.704 648.314 611.332 650.686 611.332 653.612C611.332 656.538 613.704 658.91 616.63 658.91Z" fill="#2563EB"/>
<path d="M635.121 658.91C638.047 658.91 640.419 656.538 640.419 653.612C640.419 650.686 638.047 648.314 635.121 648.314C632.195 648.314 629.824 650.686 629.824 653.612C629.824 656.538 632.195 658.91 635.121 658.91Z" fill="#2563EB"/>
<path d="M820.039 658.91C822.965 658.91 825.336 656.538 825.336 653.612C825.336 650.686 822.965 648.314 820.039 648.314C817.113 648.314 814.741 650.686 814.741 653.612C814.741 656.538 817.113 658.91 820.039 658.91Z" fill="#2563EB"/>
<path d="M838.531 658.179C841.053 658.179 843.098 656.134 843.098 653.612C843.098 651.09 841.053 649.045 838.531 649.045C836.008 649.045 833.963 651.09 833.963 653.612C833.963 656.134 836.008 658.179 838.531 658.179Z" fill="#2563EB"/>
<path d="M80.3686 677.401C83.2944 677.401 85.6663 675.03 85.6663 672.104C85.6663 669.178 83.2944 666.806 80.3686 666.806C77.4428 666.806 75.071 669.178 75.071 672.104C75.071 675.03 77.4428 677.401 80.3686 677.401Z" fill="#2563EB"/>
<path d="M98.8604 677.401C101.786 677.401 104.158 675.03 104.158 672.104C104.158 669.178 101.786 666.806 98.8604 666.806C95.9346 666.806 93.5627 669.178 93.5627 672.104C93.5627 675.03 95.9346 677.401 98.8604 677.401Z" fill="#2563EB"/>
<path d="M302.27 677.401C305.195 677.401 307.567 675.03 307.567 672.104C307.567 669.178 305.195 666.806 302.27 666.806C299.344 666.806 296.972 669.178 296.972 672.104C296.972 675.03 299.344 677.401 302.27 677.401Z" fill="#2563EB"/>
<path d="M320.761 677.401C323.687 677.401 326.059 675.03 326.059 672.104C326.059 669.178 323.687 666.806 320.761 666.806C317.836 666.806 315.464 669.178 315.464 672.104C315.464 675.03 317.836 677.401 320.761 677.401Z" fill="#2563EB"/>
<path d="M598.138 677.401C601.064 677.401 603.435 675.03 603.435 672.104C603.435 669.178 601.064 666.806 598.138 666.806C595.212 666.806 592.84 669.178 592.84 672.104C592.84 675.03 595.212 677.401 598.138 677.401Z" fill="#2563EB"/>
<path d="M820.039 677.401C822.965 677.401 825.336 675.03 825.336 672.104C825.336 669.178 822.965 666.806 820.039 666.806C817.113 666.806 814.741 669.178 814.741 672.104C814.741 675.03 817.113 677.401 820.039 677.401Z" fill="#2563EB"/>
<path d="M98.8604 695.893C101.786 695.893 104.158 693.521 104.158 690.596C104.158 687.67 101.786 685.298 98.8604 685.298C95.9346 685.298 93.5627 687.67 93.5627 690.596C93.5627 693.521 95.9346 695.893 98.8604 695.893Z" fill="#2563EB"/>
<path d="M339.253 695.893C342.179 695.893 344.551 693.521 344.551 690.596C344.551 687.67 342.179 685.298 339.253 685.298C336.327 685.298 333.956 687.67 333.956 690.596C333.956 693.521 336.327 695.893 339.253 695.893Z" fill="#2563EB"/>
<path d="M357.745 695.893C360.671 695.893 363.043 693.521 363.043 690.596C363.043 687.67 360.671 685.298 357.745 685.298C354.819 685.298 352.447 687.67 352.447 690.596C352.447 693.521 354.819 695.893 357.745 695.893Z" fill="#2563EB"/>
<path d="M542.663 695.893C545.588 695.893 547.96 693.521 547.96 690.596C547.96 687.67 545.588 685.298 542.663 685.298C539.737 685.298 537.365 687.67 537.365 690.596C537.365 693.521 539.737 695.893 542.663 695.893Z" fill="#2563EB"/>
<path d="M561.154 695.893C564.08 695.893 566.452 693.521 566.452 690.596C566.452 687.67 564.08 685.298 561.154 685.298C558.229 685.298 555.857 687.67 555.857 690.596C555.857 693.521 558.229 695.893 561.154 695.893Z" fill="#2563EB"/>
<path d="M579.646 695.893C582.572 695.893 584.944 693.521 584.944 690.596C584.944 687.67 582.572 685.298 579.646 685.298C576.72 685.298 574.348 687.67 574.348 690.596C574.348 693.521 576.72 695.893 579.646 695.893Z" fill="#2563EB"/>
<path d="M801.547 695.893C804.473 695.893 806.845 693.521 806.845 690.596C806.845 687.67 804.473 685.298 801.547 685.298C798.621 685.298 796.25 687.67 796.25 690.596C796.25 693.521 798.621 695.893 801.547 695.893Z" fill="#2563EB"/>
<path d="M117.352 714.385C120.278 714.385 122.65 712.013 122.65 709.087C122.65 706.162 120.278 703.79 117.352 703.79C114.426 703.79 112.054 706.162 112.054 709.087C112.054 712.013 114.426 714.385 117.352 714.385Z" fill="#2563EB"/>
<path d="M376.237 714.385C379.163 714.385 381.534 712.013 381.534 709.087C381.534 706.162 379.163 703.79 376.237 703.79C373.311 703.79 370.939 706.162 370.939 709.087C370.939 712.013 373.311 714.385 376.237 714.385Z" fill="#2563EB"/>
<path d="M394.728 714.385C397.654 714.385 400.026 712.013 400.026 709.087C400.026 706.162 397.654 703.79 394.728 703.79C391.803 703.79 389.431 706.162 389.431 709.087C389.431 712.013 391.803 714.385 394.728 714.385Z" fill="#2563EB"/>
<path d="M413.22 714.385C416.146 714.385 418.518 712.013 418.518 709.087C418.518 706.162 416.146 703.79 413.22 703.79C410.294 703.79 407.923 706.162 407.923 709.087C407.923 712.013 410.294 714.385 413.22 714.385Z" fill="#2563EB"/>
<path d="M431.712 714.385C434.638 714.385 437.01 712.013 437.01 709.087C437.01 706.162 434.638 703.79 431.712 703.79C428.786 703.79 426.414 706.162 426.414 709.087C426.414 712.013 428.786 714.385 431.712 714.385Z" fill="#2563EB"/>
<path d="M450.204 714.385C453.13 714.385 455.501 712.013 455.501 709.087C455.501 706.162 453.13 703.79 450.204 703.79C447.278 703.79 444.906 706.162 444.906 709.087C444.906 712.013 447.278 714.385 450.204 714.385Z" fill="#2563EB"/>
<path d="M468.695 714.385C471.621 714.385 473.993 712.013 473.993 709.087C473.993 706.162 471.621 703.79 468.695 703.79C465.77 703.79 463.398 706.162 463.398 709.087C463.398 712.013 465.77 714.385 468.695 714.385Z" fill="#2563EB"/>
<path d="M487.187 714.385C490.113 714.385 492.485 712.013 492.485 709.087C492.485 706.162 490.113 703.79 487.187 703.79C484.261 703.79 481.89 706.162 481.89 709.087C481.89 712.013 484.261 714.385 487.187 714.385Z" fill="#2563EB"/>
<path d="M505.679 714.385C508.605 714.385 510.977 712.013 510.977 709.087C510.977 706.162 508.605 703.79 505.679 703.79C502.753 703.79 500.381 706.162 500.381 709.087C500.381 712.013 502.753 714.385 505.679 714.385Z" fill="#2563EB"/>
<path d="M524.171 714.385C527.097 714.385 529.468 712.013 529.468 709.087C529.468 706.162 527.097 703.79 524.171 703.79C521.245 703.79 518.873 706.162 518.873 709.087C518.873 712.013 521.245 714.385 524.171 714.385Z" fill="#2563EB"/>
<path d="M542.663 714.385C545.588 714.385 547.96 712.013 547.96 709.087C547.96 706.162 545.588 703.79 542.663 703.79C539.737 703.79 537.365 706.162 537.365 709.087C537.365 712.013 539.737 714.385 542.663 714.385Z" fill="#2563EB"/>
<path d="M783.055 714.385C785.981 714.385 788.353 712.013 788.353 709.087C788.353 706.162 785.981 703.79 783.055 703.79C780.13 703.79 777.758 706.162 777.758 709.087C777.758 712.013 780.13 714.385 783.055 714.385Z" fill="#2563EB"/>
<path d="M801.547 714.385C804.473 714.385 806.845 712.013 806.845 709.087C806.845 706.162 804.473 703.79 801.547 703.79C798.621 703.79 796.25 706.162 796.25 709.087C796.25 712.013 798.621 714.385 801.547 714.385Z" fill="#2563EB"/>
<path d="M117.352 729.85C118.606 729.85 119.623 728.833 119.623 727.579C119.623 726.325 118.606 725.309 117.352 725.309C116.098 725.309 115.082 726.325 115.082 727.579C115.082 728.833 116.098 729.85 117.352 729.85Z" fill="#2563EB"/>
<path d="M135.844 732.877C138.77 732.877 141.142 730.505 141.142 727.579C141.142 724.653 138.77 722.281 135.844 722.281C132.918 722.281 130.546 724.653 130.546 727.579C130.546 730.505 132.918 732.877 135.844 732.877Z" fill="#2563EB"/>
<path d="M783.055 732.877C785.981 732.877 788.353 730.505 788.353 727.579C788.353 724.653 785.981 722.281 783.055 722.281C780.13 722.281 777.758 724.653 777.758 727.579C777.758 730.505 780.13 732.877 783.055 732.877Z" fill="#2563EB"/>
<path d="M135.844 751.368C138.77 751.368 141.142 748.997 141.142 746.071C141.142 743.145 138.77 740.773 135.844 740.773C132.918 740.773 130.546 743.145 130.546 746.071C130.546 748.997 132.918 751.368 135.844 751.368Z" fill="#2563EB"/>
<path d="M154.336 751.368C157.261 751.368 159.633 748.997 159.633 746.071C159.633 743.145 157.261 740.773 154.336 740.773C151.41 740.773 149.038 743.145 149.038 746.071C149.038 748.997 151.41 751.368 154.336 751.368Z" fill="#2563EB"/>
<path d="M764.564 751.368C767.489 751.368 769.861 748.997 769.861 746.071C769.861 743.145 767.489 740.773 764.564 740.773C761.638 740.773 759.266 743.145 759.266 746.071C759.266 748.997 761.638 751.368 764.564 751.368Z" fill="#2563EB"/>
<path d="M154.336 769.86C157.261 769.86 159.633 767.488 159.633 764.563C159.633 761.637 157.261 759.265 154.336 759.265C151.41 759.265 149.038 761.637 149.038 764.563C149.038 767.488 151.41 769.86 154.336 769.86Z" fill="#2563EB"/>
<path d="M172.827 769.86C175.753 769.86 178.125 767.488 178.125 764.563C178.125 761.637 175.753 759.265 172.827 759.265C169.902 759.265 167.53 761.637 167.53 764.563C167.53 767.488 169.902 769.86 172.827 769.86Z" fill="#2563EB"/>
<path d="M746.072 769.86C748.998 769.86 751.369 767.488 751.369 764.563C751.369 761.637 748.998 759.265 746.072 759.265C743.146 759.265 740.774 761.637 740.774 764.563C740.774 767.488 743.146 769.86 746.072 769.86Z" fill="#2563EB"/>
<path d="M172.827 788.352C175.753 788.352 178.125 785.98 178.125 783.054C178.125 780.129 175.753 777.757 172.827 777.757C169.902 777.757 167.53 780.129 167.53 783.054C167.53 785.98 169.902 788.352 172.827 788.352Z" fill="#2563EB"/>
<path d="M191.319 788.352C194.245 788.352 196.617 785.98 196.617 783.054C196.617 780.129 194.245 777.757 191.319 777.757C188.393 777.757 186.021 780.129 186.021 783.054C186.021 785.98 188.393 788.352 191.319 788.352Z" fill="#2563EB"/>
<path d="M709.088 788.352C712.014 788.352 714.386 785.98 714.386 783.054C714.386 780.129 712.014 777.757 709.088 777.757C706.163 777.757 703.791 780.129 703.791 783.054C703.791 785.98 706.163 788.352 709.088 788.352Z" fill="#2563EB"/>
<path d="M727.58 788.352C730.506 788.352 732.878 785.98 732.878 783.054C732.878 780.129 730.506 777.757 727.58 777.757C724.654 777.757 722.282 780.129 722.282 783.054C722.282 785.98 724.654 788.352 727.58 788.352Z" fill="#2563EB"/>
<path d="M209.811 806.844C212.737 806.844 215.109 804.472 215.109 801.546C215.109 798.62 212.737 796.249 209.811 796.249C206.885 796.249 204.513 798.62 204.513 801.546C204.513 804.472 206.885 806.844 209.811 806.844Z" fill="#2563EB"/>
<path d="M690.597 806.844C693.522 806.844 695.894 804.472 695.894 801.546C695.894 798.62 693.522 796.249 690.597 796.249C687.671 796.249 685.299 798.62 685.299 801.546C685.299 804.472 687.671 806.844 690.597 806.844Z" fill="#2563EB"/>
<path d="M709.088 806.844C712.014 806.844 714.386 804.472 714.386 801.546C714.386 798.62 712.014 796.249 709.088 796.249C706.163 796.249 703.791 798.62 703.791 801.546C703.791 804.472 706.163 806.844 709.088 806.844Z" fill="#2563EB"/>
<path d="M228.303 825.336C231.228 825.336 233.6 822.964 233.6 820.038C233.6 817.112 231.228 814.74 228.303 814.74C225.377 814.74 223.005 817.112 223.005 820.038C223.005 822.964 225.377 825.336 228.303 825.336Z" fill="#2563EB"/>
<path d="M246.794 825.336C249.72 825.336 252.092 822.964 252.092 820.038C252.092 817.112 249.72 814.74 246.794 814.74C243.869 814.74 241.497 817.112 241.497 820.038C241.497 822.964 243.869 825.336 246.794 825.336Z" fill="#2563EB"/>
<path d="M653.613 825.336C656.539 825.336 658.911 822.964 658.911 820.038C658.911 817.112 656.539 814.74 653.613 814.74C650.687 814.74 648.315 817.112 648.315 820.038C648.315 822.964 650.687 825.336 653.613 825.336Z" fill="#2563EB"/>
<path d="M672.105 825.336C675.031 825.336 677.402 822.964 677.402 820.038C677.402 817.112 675.031 814.74 672.105 814.74C669.179 814.74 666.807 817.112 666.807 820.038C666.807 822.964 669.179 825.336 672.105 825.336Z" fill="#2563EB"/>
<path d="M265.286 843.827C268.212 843.827 270.584 841.455 270.584 838.53C270.584 835.604 268.212 833.232 265.286 833.232C262.36 833.232 259.989 835.604 259.989 838.53C259.989 841.455 262.36 843.827 265.286 843.827Z" fill="#2563EB"/>
<path d="M283.778 843.827C286.704 843.827 289.076 841.455 289.076 838.53C289.076 835.604 286.704 833.232 283.778 833.232C280.852 833.232 278.48 835.604 278.48 838.53C278.48 841.455 280.852 843.827 283.778 843.827Z" fill="#2563EB"/>
<path d="M616.63 843.827C619.555 843.827 621.927 841.455 621.927 838.53C621.927 835.604 619.555 833.232 616.63 833.232C613.704 833.232 611.332 835.604 611.332 838.53C611.332 841.455 613.704 843.827 616.63 843.827Z" fill="#2563EB"/>
<path d="M635.121 843.827C638.047 843.827 640.419 841.455 640.419 838.53C640.419 835.604 638.047 833.232 635.121 833.232C632.195 833.232 629.824 835.604 629.824 838.53C629.824 841.455 632.195 843.827 635.121 843.827Z" fill="#2563EB"/>
<path d="M653.613 842.348C655.722 842.348 657.432 840.639 657.432 838.53C657.432 836.421 655.722 834.711 653.613 834.711C651.504 834.711 649.794 836.421 649.794 838.53C649.794 840.639 651.504 842.348 653.613 842.348Z" fill="#2563EB"/>
<path d="M302.27 862.319C305.195 862.319 307.567 859.947 307.567 857.021C307.567 854.096 305.195 851.724 302.27 851.724C299.344 851.724 296.972 854.096 296.972 857.021C296.972 859.947 299.344 862.319 302.27 862.319Z" fill="#2563EB"/>
<path d="M320.761 862.319C323.687 862.319 326.059 859.947 326.059 857.021C326.059 854.096 323.687 851.724 320.761 851.724C317.836 851.724 315.464 854.096 315.464 857.021C315.464 859.947 317.836 862.319 320.761 862.319Z" fill="#2563EB"/>
<path d="M339.253 862.319C342.179 862.319 344.551 859.947 344.551 857.021C344.551 854.096 342.179 851.724 339.253 851.724C336.327 851.724 333.956 854.096 333.956 857.021C333.956 859.947 336.327 862.319 339.253 862.319Z" fill="#2563EB"/>
<path d="M561.154 862.319C564.08 862.319 566.452 859.947 566.452 857.021C566.452 854.096 564.08 851.724 561.154 851.724C558.229 851.724 555.857 854.096 555.857 857.021C555.857 859.947 558.229 862.319 561.154 862.319Z" fill="#2563EB"/>
<path d="M579.646 862.319C582.572 862.319 584.944 859.947 584.944 857.021C584.944 854.096 582.572 851.724 579.646 851.724C576.72 851.724 574.348 854.096 574.348 857.021C574.348 859.947 576.72 862.319 579.646 862.319Z" fill="#2563EB"/>
<path d="M598.138 862.319C601.064 862.319 603.435 859.947 603.435 857.021C603.435 854.096 601.064 851.724 598.138 851.724C595.212 851.724 592.84 854.096 592.84 857.021C592.84 859.947 595.212 862.319 598.138 862.319Z" fill="#2563EB"/>
<path d="M357.745 880.811C360.671 880.811 363.043 878.439 363.043 875.513C363.043 872.587 360.671 870.216 357.745 870.216C354.819 870.216 352.447 872.587 352.447 875.513C352.447 878.439 354.819 880.811 357.745 880.811Z" fill="#2563EB"/>
<path d="M376.237 880.811C379.163 880.811 381.534 878.439 381.534 875.513C381.534 872.587 379.163 870.216 376.237 870.216C373.311 870.216 370.939 872.587 370.939 875.513C370.939 878.439 373.311 880.811 376.237 880.811Z" fill="#2563EB"/>
<path d="M394.728 880.811C397.654 880.811 400.026 878.439 400.026 875.513C400.026 872.587 397.654 870.216 394.728 870.216C391.803 870.216 389.431 872.587 389.431 875.513C389.431 878.439 391.803 880.811 394.728 880.811Z" fill="#2563EB"/>
<path d="M413.22 880.811C416.146 880.811 418.518 878.439 418.518 875.513C418.518 872.587 416.146 870.216 413.22 870.216C410.294 870.216 407.923 872.587 407.923 875.513C407.923 878.439 410.294 880.811 413.22 880.811Z" fill="#2563EB"/>
<path d="M431.712 880.811C434.638 880.811 437.01 878.439 437.01 875.513C437.01 872.587 434.638 870.216 431.712 870.216C428.786 870.216 426.414 872.587 426.414 875.513C426.414 878.439 428.786 880.811 431.712 880.811Z" fill="#2563EB"/>
<path d="M450.204 880.811C453.13 880.811 455.501 878.439 455.501 875.513C455.501 872.587 453.13 870.216 450.204 870.216C447.278 870.216 444.906 872.587 444.906 875.513C444.906 878.439 447.278 880.811 450.204 880.811Z" fill="#2563EB"/>
<path d="M468.695 880.811C471.621 880.811 473.993 878.439 473.993 875.513C473.993 872.587 471.621 870.216 468.695 870.216C465.77 870.216 463.398 872.587 463.398 875.513C463.398 878.439 465.77 880.811 468.695 880.811Z" fill="#2563EB"/>
<path d="M487.187 880.811C490.113 880.811 492.485 878.439 492.485 875.513C492.485 872.587 490.113 870.216 487.187 870.216C484.261 870.216 481.89 872.587 481.89 875.513C481.89 878.439 484.261 880.811 487.187 880.811Z" fill="#2563EB"/>
<path d="M505.679 880.811C508.605 880.811 510.977 878.439 510.977 875.513C510.977 872.587 508.605 870.216 505.679 870.216C502.753 870.216 500.381 872.587 500.381 875.513C500.381 878.439 502.753 880.811 505.679 880.811Z" fill="#2563EB"/>
<path d="M524.171 880.811C527.097 880.811 529.468 878.439 529.468 875.513C529.468 872.587 527.097 870.216 524.171 870.216C521.245 870.216 518.873 872.587 518.873 875.513C518.873 878.439 521.245 880.811 524.171 880.811Z" fill="#2563EB"/>
<path d="M542.663 880.811C545.588 880.811 547.96 878.439 547.96 875.513C547.96 872.587 545.588 870.216 542.663 870.216C539.737 870.216 537.365 872.587 537.365 875.513C537.365 878.439 539.737 880.811 542.663 880.811Z" fill="#2563EB"/>
</g>
<defs>
<radialGradient id="paint0_radial_186_99" cx="0" cy="0" r="1" gradientUnits="userSpaceOnUse" gradientTransform="translate(450.203 450.203) rotate(90) scale(450.203)">
<stop offset="0.308515" stop-color="white" stop-opacity="0"/>
<stop offset="1" stop-color="white"/>
</radialGradient>
</defs>
</svg>
