<svg width="205" height="30" viewBox="0 0 205 30" fill="none" xmlns="http://www.w3.org/2000/svg">
<path d="M0 15C0 6.71575 6.59744 0 14.7357 0C22.8741 0 29.4713 6.71575 29.4713 15C29.4713 23.2843 22.8741 30 14.7357 30C6.59744 30 0 23.2843 0 15Z" fill="#007BE5"/>
<path d="M40.1765 9.09167C39.3074 8.6625 38.329 8.42377 37.2947 8.42377C33.6836 8.42377 30.756 11.3494 30.756 14.9556C30.756 17.4697 32.1766 19.6513 34.2604 20.7408V27.7651C33.5107 28.2299 32.7154 28.6286 31.8843 28.9563C30.7788 29.393 29.6099 29.7028 28.3952 29.8653C27.7343 29.9542 27.0609 30 26.3748 30C25.6912 30 25.0177 29.9542 24.3571 29.8653C23.0051 29.6851 21.709 29.322 20.4968 28.8064C15.1296 26.5209 11.366 21.2003 11.366 14.9987C11.366 8.79964 15.1296 3.47922 20.4968 1.1936C22.3011 0.424104 24.2884 0 26.3748 0C28.3214 0 30.1792 0.370784 31.8843 1.04377C35.6098 2.51164 38.6034 5.42453 40.1765 9.09167Z" fill="#54AFFF"/>
<path d="M52.0714 15.0256C52.0714 15.5751 52.0435 16.117 51.9852 16.6513C51.2995 23.1591 46.5433 28.4203 40.3651 29.7356V20.7803C42.4474 19.689 43.8694 17.501 43.8694 14.9823C43.8694 12.4051 42.3788 10.1739 40.2154 9.10794C39.347 8.678 38.3692 8.43884 37.3357 8.43884C33.7273 8.43884 30.8021 11.3697 30.8021 14.9823C30.8021 17.501 32.2215 19.6863 34.3038 20.7779V29.7356C33.4861 29.5601 32.6914 29.3185 31.9296 29.0081C29.6341 28.0872 27.6203 26.5938 26.0587 24.6982C23.9003 22.0856 22.6001 18.7095 22.6001 15.0256C22.6001 11.3417 23.9003 7.9682 26.0587 5.35538C27.6203 3.45999 29.6341 1.9666 31.9296 1.04563C33.6029 0.3689 35.4262 0 37.3357 0C44.9359 0 51.1902 5.86674 51.9852 13.3999C52.0435 13.9342 52.0714 14.476 52.0714 15.0256Z" fill="#1E1E1E"/>
<path fill-rule="evenodd" clip-rule="evenodd" d="M83.797 6.46908C84.3675 6.46908 84.8357 6.65822 85.2003 7.03954C85.5648 7.42086 85.7478 7.89674 85.7478 8.4672C85.7478 9.02241 85.5648 9.4983 85.2003 9.89487C84.8357 10.2762 84.3675 10.4653 83.797 10.4653C83.225 10.4653 82.7492 10.2762 82.3694 9.89487C82.0047 9.4983 81.8218 9.02241 81.8218 8.4672C81.8218 7.89674 82.0047 7.42086 82.3694 7.03954C82.7492 6.65822 83.225 6.46908 83.797 6.46908Z" fill="#1E1E1E"/>
<path fill-rule="evenodd" clip-rule="evenodd" d="M60.4861 12.0608V7.27748H64.1269V12.0608H66.7443V15.1541H64.1269V23.6239H60.4861V15.1541H57.8687V12.0608H60.4861Z" fill="#1E1E1E"/>
<path fill-rule="evenodd" clip-rule="evenodd" d="M68.3474 23.6239V6.35011H71.9882V12.9226C72.2171 12.7182 72.4702 12.5428 72.7494 12.3933C73.4311 12.012 74.2166 11.8228 75.1059 11.8228C76.0089 11.8228 76.8021 12.012 77.4854 12.3933C78.1672 12.7578 78.6904 13.2734 79.0549 13.9399C79.4362 14.5897 79.6269 15.3524 79.6269 16.2248V23.6239H75.986V17.0332C75.986 16.4307 75.7953 15.9472 75.414 15.5811C75.0495 15.2013 74.5813 15.0107 74.0107 15.0107C73.6141 15.0107 73.2649 15.0976 72.9644 15.273C72.6624 15.4317 72.4244 15.6696 72.2506 15.9869C72.0751 16.2874 71.9882 16.6366 71.9882 17.0332V23.6239H68.3474Z" fill="#1E1E1E"/>
<path fill-rule="evenodd" clip-rule="evenodd" d="M81.9651 12.0608V23.6239H85.6044V12.0608H81.9651Z" fill="#1E1E1E"/>
<path fill-rule="evenodd" clip-rule="evenodd" d="M94.7836 11.8228C95.3388 11.8228 95.8224 11.9098 96.2357 12.0837C96.6628 12.2423 97.0364 12.497 97.3537 12.8448L95.1878 15.5811C95.0292 15.4073 94.8309 15.273 94.593 15.1769C94.355 15.0824 94.0851 15.0351 93.7845 15.0351C93.182 15.0351 92.6971 15.2242 92.3325 15.6055C91.9832 15.9701 91.8094 16.5253 91.8094 17.2712V23.6239H88.1684V12.0608H91.8094V12.9409C92.5232 12.195 93.5146 11.8228 94.7836 11.8228Z" fill="#1E1E1E"/>
<path fill-rule="evenodd" clip-rule="evenodd" d="M105.946 6.35011V12.8127C105.682 12.6038 105.387 12.4238 105.064 12.2743C104.43 11.9723 103.716 11.8228 102.923 11.8228C101.829 11.8228 100.853 12.0837 99.997 12.6068C99.1551 13.1315 98.4901 13.8454 97.9975 14.7483C97.5215 15.6528 97.2836 16.684 97.2836 17.8416C97.2836 19.0008 97.5215 20.0319 97.9975 20.9349C98.4901 21.8394 99.1551 22.5532 99.997 23.0765C100.853 23.6011 101.829 23.8619 102.923 23.8619C103.716 23.8619 104.439 23.7032 105.088 23.3861C105.43 23.2106 105.74 23.0078 106.016 22.7744V23.6239H109.585V6.35011H105.946ZM104.922 20.2455C105.302 20.0075 105.604 19.6826 105.827 19.2693C106.048 18.8574 106.159 18.3816 106.159 17.8416C106.159 17.3032 106.048 16.8349 105.827 16.4384C105.619 16.0265 105.319 15.7001 104.922 15.4622C104.541 15.2242 104.097 15.1053 103.589 15.1053C103.081 15.1053 102.63 15.2242 102.233 15.4622C101.852 15.7001 101.544 16.0265 101.306 16.4384C101.083 16.8502 100.972 17.3184 100.972 17.8416C100.972 18.3664 101.083 18.833 101.306 19.2464C101.527 19.6582 101.837 19.9831 102.233 20.2211C102.63 20.459 103.074 20.578 103.566 20.578C104.089 20.578 104.541 20.4682 104.922 20.2455Z" fill="#1E1E1E"/>
<path fill-rule="evenodd" clip-rule="evenodd" d="M111.078 15.1541V12.0608H113.624V11.0602C113.624 10.1252 113.83 9.28476 114.243 8.5389C114.672 7.77777 115.267 7.18292 116.028 6.75431C116.789 6.31045 117.693 6.08776 118.74 6.08776C119.533 6.08776 120.224 6.22199 120.81 6.49196C121.414 6.74669 121.937 7.10359 122.381 7.56271L120.096 9.84759C119.937 9.68896 119.756 9.56998 119.55 9.49067C119.359 9.39458 119.129 9.3473 118.859 9.3473C118.368 9.3473 117.979 9.49067 117.693 9.77591C117.408 10.0611 117.265 10.4501 117.265 10.9412V12.0608H120.596V15.1541H117.265V23.6239H113.624V15.1541H111.078Z" fill="#1E1E1E"/>
<path fill-rule="evenodd" clip-rule="evenodd" d="M130.021 12.0608V13.0232C129.708 12.7212 129.342 12.4726 128.926 12.2743C128.306 11.9723 127.609 11.8228 126.831 11.8228C125.768 11.8228 124.817 12.0837 123.976 12.6068C123.151 13.1315 122.494 13.8454 122.001 14.7483C121.525 15.6528 121.287 16.684 121.287 17.8416C121.287 19.0008 121.525 20.0319 122.001 20.9349C122.494 21.8394 123.151 22.5532 123.976 23.0765C124.817 23.6011 125.768 23.8619 126.831 23.8619C127.609 23.8619 128.316 23.7109 128.95 23.4105C129.36 23.2152 129.717 22.9742 130.021 22.6844V23.6239H133.59V12.0608H130.021ZM127.57 20.578C128.346 20.578 128.973 20.3248 129.449 19.8169C129.925 19.2937 130.163 18.6347 130.163 17.8416C130.163 17.3032 130.051 16.8274 129.83 16.414C129.624 16.0021 129.322 15.6849 128.926 15.4622C128.544 15.2242 128.101 15.1053 127.593 15.1053C127.086 15.1053 126.633 15.2242 126.237 15.4622C125.857 15.6849 125.547 16.0021 125.309 16.414C125.086 16.8274 124.975 17.3032 124.975 17.8416C124.975 18.3664 125.086 18.833 125.309 19.2464C125.53 19.6582 125.84 19.9831 126.237 20.2211C126.633 20.459 127.077 20.578 127.57 20.578Z" fill="#1E1E1E"/>
<path fill-rule="evenodd" clip-rule="evenodd" d="M143.052 20.34C143.434 20.1661 143.759 19.9282 144.029 19.6263L146.337 21.9584C145.735 22.5928 145.052 23.0765 144.29 23.4105C143.529 23.7277 142.681 23.8863 141.744 23.8863C140.554 23.8863 139.476 23.6239 138.509 23.1008C137.54 22.5776 136.779 21.8562 136.224 20.9349C135.669 20.0152 135.391 18.9841 135.391 17.8416C135.391 16.684 135.669 15.6528 136.224 14.7483C136.795 13.8286 137.565 13.1071 138.531 12.5839C139.501 12.0608 140.587 11.7984 141.791 11.7984C142.696 11.7984 143.521 11.9571 144.267 12.2743C145.029 12.5763 145.702 13.0354 146.29 13.6547L143.957 15.9869C143.687 15.6849 143.37 15.4622 143.006 15.3203C142.657 15.1769 142.252 15.1053 141.791 15.1053C141.268 15.1053 140.8 15.2242 140.388 15.4622C139.991 15.6849 139.675 16.0021 139.436 16.414C139.214 16.8105 139.104 17.2788 139.104 17.8188C139.104 18.3572 139.214 18.833 139.436 19.2464C139.675 19.6582 139.999 19.9831 140.413 20.2211C140.824 20.459 141.285 20.578 141.791 20.578C142.267 20.578 142.688 20.4987 143.052 20.34Z" fill="#1E1E1E"/>
<path fill-rule="evenodd" clip-rule="evenodd" d="M146.796 12.0608V15.1541H149.413V23.6239H153.055V15.1541H155.672V12.0608H153.055V7.27748H149.413V12.0608H146.796Z" fill="#1E1E1E"/>
<path fill-rule="evenodd" clip-rule="evenodd" d="M165.847 12.5839C166.798 13.1071 167.552 13.8286 168.107 14.7483C168.663 15.6528 168.94 16.6763 168.94 17.8188C168.94 18.9612 168.663 19.9922 168.107 20.912C167.552 21.8318 166.798 22.5609 165.847 23.1008C164.895 23.6239 163.816 23.8863 162.61 23.8863C161.421 23.8863 160.342 23.6239 159.375 23.1008C158.423 22.5609 157.669 21.8318 157.115 20.912C156.56 19.9922 156.282 18.9612 156.282 17.8188C156.282 16.6763 156.56 15.6528 157.115 14.7483C157.669 13.8454 158.423 13.1315 159.375 12.6068C160.327 12.0684 161.405 11.7984 162.61 11.7984C163.816 11.7984 164.895 12.0608 165.847 12.5839ZM164.895 19.2693C164.689 19.6826 164.387 20.0075 163.99 20.2455C163.594 20.4682 163.133 20.578 162.61 20.578C162.102 20.578 161.65 20.4682 161.254 20.2455C160.857 20.0075 160.547 19.6826 160.327 19.2693C160.104 18.8422 159.993 18.3664 159.993 17.8416C159.993 17.3032 160.104 16.8274 160.327 16.414C160.547 16.0021 160.857 15.6849 161.254 15.4622C161.65 15.2242 162.102 15.1053 162.61 15.1053C163.133 15.1053 163.586 15.2242 163.966 15.4622C164.362 15.6849 164.672 16.0021 164.895 16.414C165.116 16.8105 165.228 17.2788 165.228 17.8188C165.228 18.3572 165.116 18.8422 164.895 19.2693Z" fill="#1E1E1E"/>
<path fill-rule="evenodd" clip-rule="evenodd" d="M178.819 12.0837C178.406 11.9098 177.923 11.8228 177.367 11.8228C176.098 11.8228 175.107 12.195 174.393 12.9409V12.0608H170.752V23.6239H174.393V17.2712C174.393 16.5253 174.567 15.9701 174.916 15.6055C175.281 15.2242 175.766 15.0351 176.368 15.0351C176.669 15.0351 176.939 15.0824 177.177 15.1769C177.414 15.273 177.613 15.4073 177.771 15.5811L179.937 12.8448C179.62 12.497 179.246 12.2423 178.819 12.0837Z" fill="#1E1E1E"/>
<path d="M180.052 23.2697C180.463 23.6981 180.979 23.9122 181.599 23.9122C182.232 23.9122 182.748 23.6981 183.144 23.2697C183.557 22.8415 183.762 22.3259 183.762 21.7232C183.762 21.0886 183.557 20.5651 183.144 20.1526C182.748 19.7244 182.232 19.5103 181.599 19.5103C180.979 19.5103 180.463 19.7244 180.052 20.1526C179.638 20.5651 179.432 21.0886 179.432 21.7232C179.432 22.3259 179.638 22.8415 180.052 23.2697Z" fill="#1E1E1E"/>
<path fill-rule="evenodd" clip-rule="evenodd" d="M194.316 13.0217V12.0608H197.886V23.6239H194.316V22.6859C194.012 22.9742 193.656 23.2152 193.245 23.4105C192.611 23.7109 191.905 23.8619 191.129 23.8619C190.065 23.8619 189.114 23.6011 188.273 23.0765C187.448 22.5532 186.788 21.8394 186.298 20.9349C185.822 20.0319 185.584 19.0008 185.584 17.8416C185.584 16.684 185.822 15.6528 186.298 14.7483C186.788 13.8454 187.448 13.1315 188.273 12.6068C189.114 12.0837 190.065 11.8228 191.129 11.8228C191.905 11.8228 192.603 11.9723 193.222 12.2743C193.639 12.4726 194.003 12.7212 194.316 13.0217ZM193.746 19.8169C193.27 20.3248 192.643 20.578 191.865 20.578C191.374 20.578 190.93 20.459 190.533 20.2211C190.136 19.9831 189.827 19.6582 189.604 19.2464C189.384 18.833 189.272 18.3664 189.272 17.8416C189.272 17.3032 189.384 16.8274 189.604 16.414C189.843 16.0021 190.152 15.6849 190.533 15.4622C190.93 15.2242 191.382 15.1053 191.889 15.1053C192.397 15.1053 192.842 15.2242 193.222 15.4622C193.619 15.6849 193.92 16.0021 194.125 16.414C194.348 16.8274 194.46 17.3032 194.46 17.8416C194.46 18.6347 194.221 19.2937 193.746 19.8169Z" fill="#1E1E1E"/>
<path fill-rule="evenodd" clip-rule="evenodd" d="M200.45 12.0608V23.6239H204.089V12.0608H200.45Z" fill="#1E1E1E"/>
<path fill-rule="evenodd" clip-rule="evenodd" d="M202.281 6.46908C202.852 6.46908 203.32 6.65822 203.685 7.03954C204.05 7.42086 204.233 7.89674 204.233 8.4672C204.233 9.02241 204.05 9.4983 203.685 9.89487C203.32 10.2762 202.852 10.4653 202.281 10.4653C201.709 10.4653 201.234 10.2762 200.854 9.89487C200.489 9.4983 200.306 9.02241 200.306 8.4672C200.306 7.89674 200.489 7.42086 200.854 7.03954C201.234 6.65822 201.709 6.46908 202.281 6.46908Z" fill="#1E1E1E"/>
</svg>
